<?xml version="1.0" encoding="UTF-8" standalone="no"?>
<!DOCTYPE svg PUBLIC "-//W3C//DTD SVG 1.1//EN"
 "http://www.w3.org/Graphics/SVG/1.1/DTD/svg11.dtd">
<!-- Generated by graphviz version 12.2.1 (20241206.2353)
 -->
<!-- Title: BitSnark Pages: 1 -->
<svg width="512pt" height="819pt"
 viewBox="0.00 0.00 511.50 818.78" xmlns="http://www.w3.org/2000/svg" xmlns:xlink="http://www.w3.org/1999/xlink">
<g id="graph0" class="graph" transform="scale(1 1) rotate(0) translate(4 814.78)">
<title>BitSnark</title>
<polygon fill="white" stroke="none" points="-4,4 -4,-814.78 507.5,-814.78 507.5,4 -4,4"/>
<!-- LOCKED_FUNDS -->
<g id="node1" class="node">
<title>LOCKED_FUNDS</title>
<ellipse fill="none" stroke="magenta" cx="57" cy="-781.79" rx="50.03" ry="28.99"/>
<text text-anchor="middle" x="57" y="-784.99" font-family="Times,serif" font-size="14.00">LOCKED</text>
<text text-anchor="middle" x="57" y="-768.49" font-family="Times,serif" font-size="14.00">FUNDS</text>
</g>
<!-- PROOF_UNCONTESTED -->
<g id="node5" class="node">
<title>PROOF_UNCONTESTED</title>
<polygon fill="none" stroke="green" points="174.12,-554.3 65.88,-554.3 65.88,-513.3 180.12,-513.3 180.12,-548.3 174.12,-554.3"/>
<polyline fill="none" stroke="green" points="174.12,-554.3 174.12,-548.3"/>
<polyline fill="none" stroke="green" points="180.12,-548.3 174.12,-548.3"/>
<text text-anchor="middle" x="123" y="-537" font-family="Times,serif" font-size="14.00">PROOF</text>
<text text-anchor="middle" x="123" y="-520.5" font-family="Times,serif" font-size="14.00">UNCONTESTED</text>
</g>
<!-- LOCKED_FUNDS&#45;&gt;PROOF_UNCONTESTED -->
<!-- LOCKED_FUNDS_output_0 -->
<g id="node15" class="node">
<title>LOCKED_FUNDS_output_0</title>
<ellipse fill="black" stroke="black" cx="57" cy="-697.8" rx="1.8" ry="1.8"/>
</g>
<!-- LOCKED_FUNDS&#45;&gt;LOCKED_FUNDS_output_0 -->
<g id="edge6" class="edge">
<title>LOCKED_FUNDS&#45;&gt;LOCKED_FUNDS_output_0</title>
<path fill="none" stroke="magenta" d="M57,-752.57C57,-731.08 57,-704.38 57,-699.56"/>
</g>
<!-- PROVER_STAKE -->
<g id="node2" class="node">
<title>PROVER_STAKE</title>
<ellipse fill="none" stroke="green" cx="378" cy="-781.79" rx="48.97" ry="28.99"/>
<text text-anchor="middle" x="378" y="-784.99" font-family="Times,serif" font-size="14.00">PROVER</text>
<text text-anchor="middle" x="378" y="-768.49" font-family="Times,serif" font-size="14.00">STAKE</text>
</g>
<!-- PROOF -->
<g id="node3" class="node">
<title>PROOF</title>
<polygon fill="none" stroke="green" points="407.75,-715.8 348.25,-715.8 348.25,-679.8 407.75,-679.8 407.75,-715.8"/>
<text text-anchor="middle" x="378" y="-692.75" font-family="Times,serif" font-size="14.00">PROOF</text>
</g>
<!-- PROVER_STAKE&#45;&gt;PROOF -->
<g id="edge10" class="edge">
<title>PROVER_STAKE&#45;&gt;PROOF</title>
<path fill="none" stroke="green" d="M378,-752.57C378,-744.36 378,-735.38 378,-727.16"/>
<polygon fill="green" stroke="green" points="381.5,-727.33 378,-717.33 374.5,-727.33 381.5,-727.33"/>
</g>
<!-- CHALLENGE -->
<g id="node4" class="node">
<title>CHALLENGE</title>
<polygon fill="none" stroke="blue" points="497.5,-642.8 406.5,-642.8 406.5,-606.8 503.5,-606.8 503.5,-636.8 497.5,-642.8"/>
<polyline fill="none" stroke="blue" points="497.5,-642.8 497.5,-636.8"/>
<polyline fill="none" stroke="blue" points="503.5,-636.8 497.5,-636.8"/>
<text text-anchor="middle" x="455" y="-619.75" font-family="Times,serif" font-size="14.00">CHALLENGE</text>
</g>
<!-- PROOF&#45;&gt;CHALLENGE -->
<g id="edge18" class="edge">
<title>PROOF&#45;&gt;CHALLENGE</title>
<path fill="none" stroke="gray" d="M396.64,-679.61C406.03,-670.96 417.59,-660.3 427.93,-650.76"/>
<polygon fill="gray" stroke="gray" points="430.17,-653.45 435.15,-644.1 425.43,-648.31 430.17,-653.45"/>
</g>
<!-- STATE_00 -->
<g id="node7" class="node">
<title>STATE_00</title>
<polygon fill="none" stroke="green" points="406.25,-554.3 349.75,-554.3 349.75,-513.3 406.25,-513.3 406.25,-554.3"/>
<text text-anchor="middle" x="378" y="-537" font-family="Times,serif" font-size="14.00">STATE</text>
<text text-anchor="middle" x="378" y="-520.5" font-family="Times,serif" font-size="14.00">00</text>
</g>
<!-- PROOF&#45;&gt;STATE_00 -->
<!-- PROOF_output_0 -->
<g id="node16" class="node">
<title>PROOF_output_0</title>
<ellipse fill="black" stroke="black" cx="253" cy="-624.8" rx="1.8" ry="1.8"/>
</g>
<!-- PROOF&#45;&gt;PROOF_output_0 -->
<g id="edge11" class="edge">
<title>PROOF&#45;&gt;PROOF_output_0</title>
<path fill="none" stroke="black" d="M348.06,-679.79C313.97,-660.43 261.95,-630.88 254.03,-626.38"/>
</g>
<!-- PROOF_output_1 -->
<g id="node17" class="node">
<title>PROOF_output_1</title>
<ellipse fill="black" stroke="black" cx="348" cy="-624.8" rx="1.8" ry="1.8"/>
</g>
<!-- PROOF&#45;&gt;PROOF_output_1 -->
<g id="edge15" class="edge">
<title>PROOF&#45;&gt;PROOF_output_1</title>
<path fill="none" stroke="gray" d="M370.74,-679.61C362.69,-660.57 350.55,-631.85 348.35,-626.63"/>
</g>
<!-- CHALLENGE_UNCONTESTED -->
<g id="node6" class="node">
<title>CHALLENGE_UNCONTESTED</title>
<polygon fill="none" stroke="blue" points="306.12,-554.3 197.88,-554.3 197.88,-513.3 312.12,-513.3 312.12,-548.3 306.12,-554.3"/>
<polyline fill="none" stroke="blue" points="306.12,-554.3 306.12,-548.3"/>
<polyline fill="none" stroke="blue" points="312.12,-548.3 306.12,-548.3"/>
<text text-anchor="middle" x="255" y="-537" font-family="Times,serif" font-size="14.00">CHALLENGE</text>
<text text-anchor="middle" x="255" y="-520.5" font-family="Times,serif" font-size="14.00">UNCONTESTED</text>
</g>
<!-- Dissection -->
<g id="node9" class="node">
<title>Dissection</title>
<polygon fill="none" stroke="black" points="431.92,-383.99 431.92,-398.91 400.33,-409.45 355.67,-409.45 324.08,-398.91 324.08,-383.99 355.67,-373.45 400.33,-373.45 431.92,-383.99"/>
<polygon fill="none" stroke="black" points="435.92,-381.11 435.92,-401.79 400.98,-413.45 355.02,-413.45 320.08,-401.79 320.08,-381.11 355.02,-369.45 400.98,-369.45 435.92,-381.11"/>
<polygon fill="none" stroke="black" points="439.92,-378.23 439.92,-404.67 401.63,-417.45 354.37,-417.45 316.08,-404.67 316.08,-378.23 354.37,-365.45 401.63,-365.45 439.92,-378.23"/>
<text text-anchor="middle" x="378" y="-386.4" font-family="Times,serif" font-size="14.00">Dissection</text>
</g>
<!-- STATE_00&#45;&gt;Dissection -->
<!-- STATE_00_output_0 -->
<g id="node18" class="node">
<title>STATE_00_output_0</title>
<ellipse fill="black" stroke="black" cx="348" cy="-474.5" rx="1.8" ry="1.8"/>
</g>
<!-- STATE_00&#45;&gt;STATE_00_output_0 -->
<g id="edge19" class="edge">
<title>STATE_00&#45;&gt;STATE_00_output_0</title>
<path fill="none" stroke="black" d="M367.68,-513.08C360.22,-498.84 351.05,-481.32 348.62,-476.68"/>
</g>
<!-- STATE_UNCONTESTED_00 -->
<g id="node8" class="node">
<title>STATE_UNCONTESTED_00</title>
<polygon fill="none" stroke="green" points="214.12,-420.2 105.88,-420.2 105.88,-362.7 220.12,-362.7 220.12,-414.2 214.12,-420.2"/>
<polyline fill="none" stroke="green" points="214.12,-420.2 214.12,-414.2"/>
<polyline fill="none" stroke="green" points="220.12,-414.2 214.12,-414.2"/>
<text text-anchor="middle" x="163" y="-402.9" font-family="Times,serif" font-size="14.00">STATE</text>
<text text-anchor="middle" x="163" y="-386.4" font-family="Times,serif" font-size="14.00">UNCONTESTED</text>
<text text-anchor="middle" x="163" y="-369.9" font-family="Times,serif" font-size="14.00">00</text>
</g>
<!-- SELECT_05 -->
<g id="node10" class="node">
<title>SELECT_05</title>
<polygon fill="none" stroke="blue" points="410.75,-325.7 345.25,-325.7 345.25,-284.7 410.75,-284.7 410.75,-325.7"/>
<text text-anchor="middle" x="378" y="-308.4" font-family="Times,serif" font-size="14.00">SELECT</text>
<text text-anchor="middle" x="378" y="-291.9" font-family="Times,serif" font-size="14.00">05</text>
</g>
<!-- Dissection&#45;&gt;SELECT_05 -->
<!-- Dissection&#45;&gt;SELECT_05 -->
<g id="edge22" class="edge">
<title>Dissection&#45;&gt;SELECT_05</title>
<path fill="none" stroke="green" d="M384.25,-365.17C384.79,-356.48 384.9,-346.64 384.55,-337.52"/>
<polygon fill="green" stroke="green" points="388.05,-337.38 383.93,-327.62 381.06,-337.82 388.05,-337.38"/>
</g>
<!-- ARGUMENT -->
<g id="node12" class="node">
<title>ARGUMENT</title>
<polygon fill="none" stroke="green" points="424.62,-180.85 331.38,-180.85 331.38,-144.85 424.62,-144.85 424.62,-180.85"/>
<text text-anchor="middle" x="378" y="-157.8" font-family="Times,serif" font-size="14.00">ARGUMENT</text>
</g>
<!-- SELECT_05&#45;&gt;ARGUMENT -->
<!-- SELECT_05&#45;&gt;ARGUMENT -->
<g id="edge26" class="edge">
<title>SELECT_05&#45;&gt;ARGUMENT</title>
<path fill="none" stroke="gray" d="M348.76,-284.39C335.11,-260.11 333.87,-218.82 345.03,-191.44"/>
<polygon fill="gray" stroke="gray" points="348.06,-193.2 349.45,-182.7 341.82,-190.05 348.06,-193.2"/>
</g>
<!-- SELECT_05&#45;&gt;ARGUMENT -->
<g id="edge27" class="edge">
<title>SELECT_05&#45;&gt;ARGUMENT</title>
<path fill="none" stroke="gray" d="M358.51,-284.39C349.49,-260.32 348.6,-219.55 355.83,-192.17"/>
<polygon fill="gray" stroke="gray" points="359.11,-193.38 358.94,-182.78 352.47,-191.17 359.11,-193.38"/>
</g>
<!-- SELECT_05&#45;&gt;ARGUMENT -->
<g id="edge28" class="edge">
<title>SELECT_05&#45;&gt;ARGUMENT</title>
<path fill="none" stroke="gray" d="M368.25,-284.39C363.77,-260.43 363.3,-219.92 366.86,-192.54"/>
<polygon fill="gray" stroke="gray" points="370.29,-193.28 368.46,-182.84 363.38,-192.14 370.29,-193.28"/>
</g>
<!-- SELECT_05&#45;&gt;ARGUMENT -->
<g id="edge29" class="edge">
<title>SELECT_05&#45;&gt;ARGUMENT</title>
<path fill="none" stroke="gray" d="M378,-284.39C378,-260.43 378,-219.92 378,-192.54"/>
<polygon fill="gray" stroke="gray" points="381.5,-192.86 378,-182.86 374.5,-192.86 381.5,-192.86"/>
</g>
<!-- SELECT_05&#45;&gt;ARGUMENT -->
<g id="edge30" class="edge">
<title>SELECT_05&#45;&gt;ARGUMENT</title>
<path fill="none" stroke="gray" d="M387.75,-284.39C392.23,-260.43 392.7,-219.92 389.14,-192.54"/>
<polygon fill="gray" stroke="gray" points="392.62,-192.14 387.54,-182.84 385.71,-193.28 392.62,-192.14"/>
</g>
<!-- SELECT_05&#45;&gt;ARGUMENT -->
<g id="edge31" class="edge">
<title>SELECT_05&#45;&gt;ARGUMENT</title>
<path fill="none" stroke="gray" d="M397.49,-284.39C406.51,-260.32 407.4,-219.55 400.17,-192.17"/>
<polygon fill="gray" stroke="gray" points="403.53,-191.17 397.06,-182.78 396.89,-193.38 403.53,-191.17"/>
</g>
<!-- SELECT_05&#45;&gt;ARGUMENT -->
<g id="edge32" class="edge">
<title>SELECT_05&#45;&gt;ARGUMENT</title>
<path fill="none" stroke="gray" d="M407.24,-284.39C420.89,-260.11 422.13,-218.82 410.97,-191.44"/>
<polygon fill="gray" stroke="gray" points="414.18,-190.05 406.55,-182.7 407.94,-193.2 414.18,-190.05"/>
</g>
<!-- SELECT_05&#45;&gt;ARGUMENT -->
<g id="edge33" class="edge">
<title>SELECT_05&#45;&gt;ARGUMENT</title>
<path fill="none" stroke="gray" d="M411.17,-291C434.96,-268.07 438.37,-220.47 421.41,-190.46"/>
<polygon fill="gray" stroke="gray" points="424.31,-188.5 415.74,-182.26 418.55,-192.48 424.31,-188.5"/>
</g>
<!-- SELECT_05_output_0 -->
<g id="node19" class="node">
<title>SELECT_05_output_0</title>
<ellipse fill="black" stroke="black" cx="276" cy="-245.9" rx="1.8" ry="1.8"/>
</g>
<!-- SELECT_05&#45;&gt;SELECT_05_output_0 -->
<g id="edge23" class="edge">
<title>SELECT_05&#45;&gt;SELECT_05_output_0</title>
<path fill="none" stroke="black" d="M345.09,-293.62C328.52,-287.34 308.67,-278.33 293,-266.7 285.14,-260.87 278.44,-250.78 276.54,-247.77"/>
</g>
<!-- SELECT_UNCONTESTED_05 -->
<g id="node11" class="node">
<title>SELECT_UNCONTESTED_05</title>
<polygon fill="none" stroke="blue" points="258.12,-191.6 149.88,-191.6 149.88,-134.1 264.12,-134.1 264.12,-185.6 258.12,-191.6"/>
<polyline fill="none" stroke="blue" points="258.12,-191.6 258.12,-185.6"/>
<polyline fill="none" stroke="blue" points="264.12,-185.6 258.12,-185.6"/>
<text text-anchor="middle" x="207" y="-174.3" font-family="Times,serif" font-size="14.00">SELECT</text>
<text text-anchor="middle" x="207" y="-157.8" font-family="Times,serif" font-size="14.00">UNCONTESTED</text>
<text text-anchor="middle" x="207" y="-141.3" font-family="Times,serif" font-size="14.00">05</text>
</g>
<!-- PROOF_REFUTED -->
<g id="node13" class="node">
<title>PROOF_REFUTED</title>
<polygon fill="none" stroke="blue" points="410.38,-41 339.62,-41 339.62,0 416.38,0 416.38,-35 410.38,-41"/>
<polyline fill="none" stroke="blue" points="410.38,-41 410.38,-35"/>
<polyline fill="none" stroke="blue" points="416.38,-35 410.38,-35"/>
<text text-anchor="middle" x="378" y="-23.7" font-family="Times,serif" font-size="14.00">PROOF</text>
<text text-anchor="middle" x="378" y="-7.2" font-family="Times,serif" font-size="14.00">REFUTED</text>
</g>
<!-- ARGUMENT&#45;&gt;PROOF_REFUTED -->
<!-- ARGUMENT_output_0 -->
<g id="node20" class="node">
<title>ARGUMENT_output_0</title>
<ellipse fill="black" stroke="black" cx="348" cy="-95.3" rx="1.8" ry="1.8"/>
</g>
<!-- ARGUMENT&#45;&gt;ARGUMENT_output_0 -->
<g id="edge34" class="edge">
<title>ARGUMENT&#45;&gt;ARGUMENT_output_0</title>
<path fill="none" stroke="black" d="M370.12,-144.63C362.06,-127.03 350.44,-101.64 348.33,-97.03"/>
</g>
<!-- ARGUMENT_UNCONTESTED -->
<g id="node14" class="node">
<title>ARGUMENT_UNCONTESTED</title>
<polygon fill="none" stroke="green" points="183.12,-41 74.88,-41 74.88,0 189.12,0 189.12,-35 183.12,-41"/>
<polyline fill="none" stroke="green" points="183.12,-41 183.12,-35"/>
<polyline fill="none" stroke="green" points="189.12,-35 183.12,-35"/>
<text text-anchor="middle" x="132" y="-23.7" font-family="Times,serif" font-size="14.00">ARGUMENT</text>
<text text-anchor="middle" x="132" y="-7.2" font-family="Times,serif" font-size="14.00">UNCONTESTED</text>
</g>
<!-- LOCKED_FUNDS_output_0&#45;&gt;PROOF_UNCONTESTED -->
<g id="edge7" class="edge">
<title>LOCKED_FUNDS_output_0&#45;&gt;PROOF_UNCONTESTED</title>
<path fill="none" stroke="magenta" d="M57.32,-695.53C59.85,-685.73 76.95,-621.1 100,-572.3 101.23,-569.7 102.59,-567.06 104.02,-564.44"/>
<polygon fill="magenta" stroke="magenta" points="106.99,-566.3 108.99,-555.9 100.94,-562.78 106.99,-566.3"/>
</g>
<!-- LOCKED_FUNDS_output_0&#45;&gt;STATE_UNCONTESTED_00 -->
<g id="edge8" class="edge">
<title>LOCKED_FUNDS_output_0&#45;&gt;STATE_UNCONTESTED_00</title>
<path fill="none" stroke="magenta" d="M56.53,-695.83C53.6,-689.66 38,-655.4 38,-625.8 38,-625.8 38,-625.8 38,-473.5 38,-442.27 65.82,-422.46 95.2,-410.26"/>
<polygon fill="magenta" stroke="magenta" points="96.13,-413.65 104.21,-406.8 93.62,-407.12 96.13,-413.65"/>
</g>
<!-- LOCKED_FUNDS_output_0&#45;&gt;ARGUMENT_UNCONTESTED -->
<g id="edge9" class="edge">
<title>LOCKED_FUNDS_output_0&#45;&gt;ARGUMENT_UNCONTESTED</title>
<path fill="none" stroke="magenta" d="M55.59,-696.01C46.81,-690.99 0,-662.47 0,-625.8 0,-625.8 0,-625.8 0,-94.3 0,-61.62 31.41,-43.5 63.59,-33.51"/>
<polygon fill="magenta" stroke="magenta" points="64.36,-36.93 73.03,-30.84 62.46,-30.19 64.36,-36.93"/>
</g>
<!-- PROOF_output_0&#45;&gt;PROOF_UNCONTESTED -->
<g id="edge12" class="edge">
<title>PROOF_output_0&#45;&gt;PROOF_UNCONTESTED</title>
<path fill="none" stroke="green" stroke-dasharray="5,2" d="M251.14,-623.45C241.32,-621.51 194.78,-611.4 164.75,-588.8 155.78,-582.05 147.73,-572.9 141.15,-564.05"/>
<polygon fill="green" stroke="green" points="144.08,-562.13 135.48,-555.94 138.34,-566.14 144.08,-562.13"/>
<text text-anchor="middle" x="194.38" y="-575.5" font-family="Times,serif" font-size="14.00">180 blocks</text>
</g>
<!-- PROOF_output_0&#45;&gt;CHALLENGE_UNCONTESTED -->
<g id="edge13" class="edge">
<title>PROOF_output_0&#45;&gt;CHALLENGE_UNCONTESTED</title>
<path fill="none" stroke="blue" stroke-dasharray="5,2" d="M252.03,-622.83C248.23,-618.97 234.39,-604.16 229.75,-588.8 227.63,-581.78 227.61,-579.31 229.75,-572.3 230.54,-569.7 231.58,-567.12 232.79,-564.6"/>
<polygon fill="blue" stroke="blue" points="235.78,-566.42 237.71,-556 229.71,-562.94 235.78,-566.42"/>
<text text-anchor="middle" x="259.38" y="-575.5" font-family="Times,serif" font-size="14.00">360 blocks</text>
</g>
<!-- PROOF_output_0&#45;&gt;STATE_00 -->
<g id="edge14" class="edge">
<title>PROOF_output_0&#45;&gt;STATE_00</title>
<path fill="none" stroke="green" d="M253.8,-623.23C260.41,-618.52 306.75,-585.53 340.9,-561.22"/>
<polygon fill="green" stroke="green" points="342.81,-564.15 348.93,-555.5 338.75,-558.45 342.81,-564.15"/>
</g>
<!-- PROOF_output_1&#45;&gt;PROOF_UNCONTESTED -->
<g id="edge16" class="edge">
<title>PROOF_output_1&#45;&gt;PROOF_UNCONTESTED</title>
<path fill="none" stroke="gray" d="M347.36,-622.88C343.26,-617.13 320.17,-585.83 293,-572.3 254.04,-552.9 237.17,-563.18 191.67,-554.59"/>
<polygon fill="gray" stroke="gray" points="192.48,-551.18 181.97,-552.53 191.02,-558.03 192.48,-551.18"/>
</g>
<!-- PROOF_output_1&#45;&gt;STATE_00 -->
<g id="edge17" class="edge">
<title>PROOF_output_1&#45;&gt;STATE_00</title>
<path fill="none" stroke="gray" d="M348.42,-622.54C350.53,-616.3 360.06,-588.01 367.75,-565.22"/>
<polygon fill="gray" stroke="gray" points="370.97,-566.62 370.84,-556.03 364.33,-564.39 370.97,-566.62"/>
</g>
<!-- STATE_00_output_0&#45;&gt;STATE_UNCONTESTED_00 -->
<g id="edge20" class="edge">
<title>STATE_00_output_0&#45;&gt;STATE_UNCONTESTED_00</title>
<path fill="none" stroke="green" stroke-dasharray="5,2" d="M346.58,-473.1C340.16,-471.27 313.11,-463.39 291.75,-454.7 270.5,-446.05 247.82,-435.54 227.51,-425.63"/>
<polygon fill="green" stroke="green" points="229.31,-422.62 218.79,-421.35 226.22,-428.9 229.31,-422.62"/>
<text text-anchor="middle" x="321.38" y="-441.4" font-family="Times,serif" font-size="14.00">180 blocks</text>
</g>
<!-- STATE_00_output_0&#45;&gt;Dissection -->
<g id="edge21" class="edge">
<title>STATE_00_output_0&#45;&gt;Dissection</title>
<path fill="none" stroke="blue" d="M348.42,-472.35C350.27,-467.38 357.8,-447.03 364.8,-428.12"/>
<polygon fill="blue" stroke="blue" points="367.99,-429.59 368.18,-418.99 361.42,-427.16 367.99,-429.59"/>
</g>
<!-- SELECT_05_output_0&#45;&gt;SELECT_UNCONTESTED_05 -->
<g id="edge24" class="edge">
<title>SELECT_05_output_0&#45;&gt;SELECT_UNCONTESTED_05</title>
<path fill="none" stroke="blue" stroke-dasharray="5,2" d="M273.86,-245.11C264.21,-245.94 224.56,-247.9 207.75,-226.1 202.77,-219.64 200.66,-211.59 200.16,-203.43"/>
<polygon fill="blue" stroke="blue" points="203.66,-203.58 200.37,-193.51 196.66,-203.44 203.66,-203.58"/>
<text text-anchor="middle" x="237.38" y="-212.8" font-family="Times,serif" font-size="14.00">180 blocks</text>
</g>
<!-- SELECT_05_output_0&#45;&gt;ARGUMENT -->
<g id="edge25" class="edge">
<title>SELECT_05_output_0&#45;&gt;ARGUMENT</title>
<path fill="none" stroke="green" d="M276.38,-243.65C277.94,-238.73 284.23,-220.48 295,-209.6 303.77,-200.74 314.63,-193.11 325.56,-186.77"/>
<polygon fill="green" stroke="green" points="327.14,-189.89 334.24,-182.03 323.79,-183.75 327.14,-189.89"/>
</g>
<!-- ARGUMENT_output_0&#45;&gt;PROOF_REFUTED -->
<g id="edge35" class="edge">
<title>ARGUMENT_output_0&#45;&gt;PROOF_REFUTED</title>
<path fill="none" stroke="blue" d="M348.42,-93.27C350.33,-88.63 358.37,-69.15 365.58,-51.65"/>
<polygon fill="blue" stroke="blue" points="368.75,-53.14 369.32,-42.56 362.28,-50.47 368.75,-53.14"/>
</g>
<!-- ARGUMENT_output_0&#45;&gt;ARGUMENT_UNCONTESTED -->
<g id="edge36" class="edge">
<title>ARGUMENT_output_0&#45;&gt;ARGUMENT_UNCONTESTED</title>
<path fill="none" stroke="green" stroke-dasharray="5,2" d="M346.62,-93.84C335.46,-90.07 258.83,-64.25 200.28,-44.51"/>
<polygon fill="green" stroke="green" points="201.61,-41.27 191.02,-41.39 199.38,-47.9 201.61,-41.27"/>
<text text-anchor="middle" x="319.7" y="-62.2" font-family="Times,serif" font-size="14.00">180 blocks</text>
</g>
</g>
</svg>
