<?xml version="1.0" encoding="UTF-8" standalone="no"?>
<!DOCTYPE svg PUBLIC "-//W3C//DTD SVG 1.1//EN"
 "http://www.w3.org/Graphics/SVG/1.1/DTD/svg11.dtd">
<!-- Generated by graphviz version 2.42.4 (0)
 -->
<!-- Title: BitSnark Pages: 1 -->
<svg width="938pt" height="2129pt"
 viewBox="0.00 0.00 937.50 2129.14" xmlns="http://www.w3.org/2000/svg" xmlns:xlink="http://www.w3.org/1999/xlink">
<g id="graph0" class="graph" transform="scale(1 1) rotate(0) translate(4 2125.14)">
<title>BitSnark</title>
<polygon fill="white" stroke="transparent" points="-4,4 -4,-2125.14 933.5,-2125.14 933.5,4 -4,4"/>
<!-- LOCKED_FUNDS -->
<g id="node1" class="node">
<title>LOCKED_FUNDS</title>
<ellipse fill="none" stroke="magenta" cx="152" cy="-2094.27" rx="56.64" ry="26.74"/>
<text text-anchor="middle" x="152" y="-2098.07" font-family="Times,serif" font-size="14.00">LOCKED</text>
<text text-anchor="middle" x="152" y="-2083.07" font-family="Times,serif" font-size="14.00">FUNDS</text>
</g>
<!-- PROOF_UNCONTESTED -->
<g id="node5" class="node">
<title>PROOF_UNCONTESTED</title>
<polygon fill="none" stroke="green" points="642,-1902.8 514,-1902.8 514,-1864.8 648,-1864.8 648,-1896.8 642,-1902.8"/>
<polyline fill="none" stroke="green" points="642,-1902.8 642,-1896.8 "/>
<polyline fill="none" stroke="green" points="648,-1896.8 642,-1896.8 "/>
<text text-anchor="middle" x="581" y="-1887.6" font-family="Times,serif" font-size="14.00">PROOF</text>
<text text-anchor="middle" x="581" y="-1872.6" font-family="Times,serif" font-size="14.00">UNCONTESTED</text>
</g>
<!-- LOCKED_FUNDS&#45;&gt;PROOF_UNCONTESTED -->
<!-- LOCKED_FUNDS_output_0 -->
<g id="node34" class="node">
<title>LOCKED_FUNDS_output_0</title>
<ellipse fill="black" stroke="black" cx="152" cy="-2012.4" rx="1.8" ry="1.8"/>
</g>
<!-- LOCKED_FUNDS&#45;&gt;LOCKED_FUNDS_output_0 -->
<g id="edge25" class="edge">
<title>LOCKED_FUNDS&#45;&gt;LOCKED_FUNDS_output_0</title>
<path fill="none" stroke="magenta" d="M152,-2067.12C152,-2046.74 152,-2020.89 152,-2014.75"/>
</g>
<!-- PROVER_STAKE -->
<g id="node2" class="node">
<title>PROVER_STAKE</title>
<ellipse fill="none" stroke="green" cx="464" cy="-2094.27" rx="55.72" ry="26.74"/>
<text text-anchor="middle" x="464" y="-2098.07" font-family="Times,serif" font-size="14.00">PROVER</text>
<text text-anchor="middle" x="464" y="-2083.07" font-family="Times,serif" font-size="14.00">STAKE</text>
</g>
<!-- PROOF -->
<g id="node3" class="node">
<title>PROOF</title>
<polygon fill="none" stroke="green" points="498.5,-2030.4 429.5,-2030.4 429.5,-1994.4 498.5,-1994.4 498.5,-2030.4"/>
<text text-anchor="middle" x="464" y="-2008.7" font-family="Times,serif" font-size="14.00">PROOF</text>
</g>
<!-- PROVER_STAKE&#45;&gt;PROOF -->
<g id="edge34" class="edge">
<title>PROVER_STAKE&#45;&gt;PROOF</title>
<path fill="none" stroke="green" d="M464,-2067.12C464,-2058.67 464,-2049.29 464,-2040.76"/>
<polygon fill="green" stroke="green" points="467.5,-2040.55 464,-2030.55 460.5,-2040.55 467.5,-2040.55"/>
</g>
<!-- STATE_00 -->
<g id="node7" class="node">
<title>STATE_00</title>
<polygon fill="none" stroke="green" points="495.5,-1902.8 432.5,-1902.8 432.5,-1864.8 495.5,-1864.8 495.5,-1902.8"/>
<text text-anchor="middle" x="464" y="-1887.6" font-family="Times,serif" font-size="14.00">STATE</text>
<text text-anchor="middle" x="464" y="-1872.6" font-family="Times,serif" font-size="14.00">00</text>
</g>
<!-- PROOF&#45;&gt;STATE_00 -->
<!-- PROOF&#45;&gt;STATE_00 -->
<g id="edge39" class="edge">
<title>PROOF&#45;&gt;STATE_00</title>
<path fill="none" stroke="gray" d="M468.79,-1994.33C471.04,-1973.51 471.35,-1938.04 469.73,-1913.12"/>
<polygon fill="gray" stroke="gray" points="473.2,-1912.51 468.89,-1902.83 466.22,-1913.08 473.2,-1912.51"/>
</g>
<!-- PROOF_output_0 -->
<g id="node35" class="node">
<title>PROOF_output_0</title>
<ellipse fill="black" stroke="black" cx="565" cy="-1955.6" rx="1.8" ry="1.8"/>
</g>
<!-- PROOF&#45;&gt;PROOF_output_0 -->
<g id="edge35" class="edge">
<title>PROOF&#45;&gt;PROOF_output_0</title>
<path fill="none" stroke="black" d="M495.4,-1994.36C522.27,-1979.78 557.6,-1960.61 563.99,-1957.15"/>
</g>
<!-- PROOF_output_2 -->
<g id="node36" class="node">
<title>PROOF_output_2</title>
<ellipse fill="black" stroke="black" cx="799" cy="-1955.6" rx="1.8" ry="1.8"/>
</g>
<!-- PROOF&#45;&gt;PROOF_output_2 -->
<g id="edge40" class="edge">
<title>PROOF&#45;&gt;PROOF_output_2</title>
<path fill="none" stroke="gray" d="M498.59,-2005.74C580.17,-1992.4 779.14,-1959.85 797.62,-1956.83"/>
</g>
<!-- CHALLENGE -->
<g id="node4" class="node">
<title>CHALLENGE</title>
<polygon fill="none" stroke="blue" points="923.5,-1901.8 818.5,-1901.8 818.5,-1865.8 929.5,-1865.8 929.5,-1895.8 923.5,-1901.8"/>
<polyline fill="none" stroke="blue" points="923.5,-1901.8 923.5,-1895.8 "/>
<polyline fill="none" stroke="blue" points="929.5,-1895.8 923.5,-1895.8 "/>
<text text-anchor="middle" x="874" y="-1880.1" font-family="Times,serif" font-size="14.00">CHALLENGE</text>
</g>
<!-- CHALLENGE_UNCONTESTED -->
<g id="node6" class="node">
<title>CHALLENGE_UNCONTESTED</title>
<polygon fill="none" stroke="blue" points="794,-1902.8 666,-1902.8 666,-1864.8 800,-1864.8 800,-1896.8 794,-1902.8"/>
<polyline fill="none" stroke="blue" points="794,-1902.8 794,-1896.8 "/>
<polyline fill="none" stroke="blue" points="800,-1896.8 794,-1896.8 "/>
<text text-anchor="middle" x="733" y="-1887.6" font-family="Times,serif" font-size="14.00">CHALLENGE</text>
<text text-anchor="middle" x="733" y="-1872.6" font-family="Times,serif" font-size="14.00">UNCONTESTED</text>
</g>
<!-- SELECT_00 -->
<g id="node9" class="node">
<title>SELECT_00</title>
<polygon fill="none" stroke="blue" points="502,-1765.7 426,-1765.7 426,-1727.7 502,-1727.7 502,-1765.7"/>
<text text-anchor="middle" x="464" y="-1750.5" font-family="Times,serif" font-size="14.00">SELECT</text>
<text text-anchor="middle" x="464" y="-1735.5" font-family="Times,serif" font-size="14.00">00</text>
</g>
<!-- STATE_00&#45;&gt;SELECT_00 -->
<!-- STATE_00_output_0 -->
<g id="node37" class="node">
<title>STATE_00_output_0</title>
<ellipse fill="black" stroke="black" cx="434" cy="-1826" rx="1.8" ry="1.8"/>
</g>
<!-- STATE_00&#45;&gt;STATE_00_output_0 -->
<g id="edge43" class="edge">
<title>STATE_00&#45;&gt;STATE_00_output_0</title>
<path fill="none" stroke="black" d="M454.18,-1864.53C446.52,-1850.29 436.82,-1832.24 434.51,-1827.95"/>
</g>
<!-- STATE_UNCONTESTED_00 -->
<g id="node8" class="node">
<title>STATE_UNCONTESTED_00</title>
<polygon fill="none" stroke="green" points="308,-1773.2 180,-1773.2 180,-1720.2 314,-1720.2 314,-1767.2 308,-1773.2"/>
<polyline fill="none" stroke="green" points="308,-1773.2 308,-1767.2 "/>
<polyline fill="none" stroke="green" points="314,-1767.2 308,-1767.2 "/>
<text text-anchor="middle" x="247" y="-1758" font-family="Times,serif" font-size="14.00">STATE</text>
<text text-anchor="middle" x="247" y="-1743" font-family="Times,serif" font-size="14.00">UNCONTESTED</text>
<text text-anchor="middle" x="247" y="-1728" font-family="Times,serif" font-size="14.00">00</text>
</g>
<!-- STATE_UNCONTESTED_01 -->
<g id="node12" class="node">
<title>STATE_UNCONTESTED_01</title>
<polygon fill="none" stroke="green" points="279,-1484 151,-1484 151,-1431 285,-1431 285,-1478 279,-1484"/>
<polyline fill="none" stroke="green" points="279,-1484 279,-1478 "/>
<polyline fill="none" stroke="green" points="285,-1478 279,-1478 "/>
<text text-anchor="middle" x="218" y="-1468.8" font-family="Times,serif" font-size="14.00">STATE</text>
<text text-anchor="middle" x="218" y="-1453.8" font-family="Times,serif" font-size="14.00">UNCONTESTED</text>
<text text-anchor="middle" x="218" y="-1438.8" font-family="Times,serif" font-size="14.00">01</text>
</g>
<!-- STATE_UNCONTESTED_00&#45;&gt;STATE_UNCONTESTED_01 -->
<!-- STATE_01 -->
<g id="node11" class="node">
<title>STATE_01</title>
<polygon fill="none" stroke="green" points="495.5,-1621.1 432.5,-1621.1 432.5,-1583.1 495.5,-1583.1 495.5,-1621.1"/>
<text text-anchor="middle" x="464" y="-1605.9" font-family="Times,serif" font-size="14.00">STATE</text>
<text text-anchor="middle" x="464" y="-1590.9" font-family="Times,serif" font-size="14.00">01</text>
</g>
<!-- SELECT_00&#45;&gt;STATE_01 -->
<!-- SELECT_00&#45;&gt;STATE_01 -->
<g id="edge49" class="edge">
<title>SELECT_00&#45;&gt;STATE_01</title>
<path fill="none" stroke="gray" d="M468.67,-1727.64C471.12,-1703.45 471.4,-1660.27 469.53,-1631.65"/>
<polygon fill="gray" stroke="gray" points="473,-1631.15 468.7,-1621.46 466.02,-1631.71 473,-1631.15"/>
</g>
<!-- SELECT_00_output_0 -->
<g id="node38" class="node">
<title>SELECT_00_output_0</title>
<ellipse fill="black" stroke="black" cx="581" cy="-1681.4" rx="1.8" ry="1.8"/>
</g>
<!-- SELECT_00&#45;&gt;SELECT_00_output_0 -->
<g id="edge46" class="edge">
<title>SELECT_00&#45;&gt;SELECT_00_output_0</title>
<path fill="none" stroke="black" d="M497.53,-1727.56C528.86,-1710.61 571.96,-1687.29 579.76,-1683.07"/>
</g>
<!-- SELECT_UNCONTESTED_00 -->
<g id="node10" class="node">
<title>SELECT_UNCONTESTED_00</title>
<polygon fill="none" stroke="blue" points="642,-1628.6 514,-1628.6 514,-1575.6 648,-1575.6 648,-1622.6 642,-1628.6"/>
<polyline fill="none" stroke="blue" points="642,-1628.6 642,-1622.6 "/>
<polyline fill="none" stroke="blue" points="648,-1622.6 642,-1622.6 "/>
<text text-anchor="middle" x="581" y="-1613.4" font-family="Times,serif" font-size="14.00">SELECT</text>
<text text-anchor="middle" x="581" y="-1598.4" font-family="Times,serif" font-size="14.00">UNCONTESTED</text>
<text text-anchor="middle" x="581" y="-1583.4" font-family="Times,serif" font-size="14.00">00</text>
</g>
<!-- SELECT_UNCONTESTED_01 -->
<g id="node14" class="node">
<title>SELECT_UNCONTESTED_01</title>
<polygon fill="none" stroke="blue" points="642,-1339.4 514,-1339.4 514,-1286.4 648,-1286.4 648,-1333.4 642,-1339.4"/>
<polyline fill="none" stroke="blue" points="642,-1339.4 642,-1333.4 "/>
<polyline fill="none" stroke="blue" points="648,-1333.4 642,-1333.4 "/>
<text text-anchor="middle" x="581" y="-1324.2" font-family="Times,serif" font-size="14.00">SELECT</text>
<text text-anchor="middle" x="581" y="-1309.2" font-family="Times,serif" font-size="14.00">UNCONTESTED</text>
<text text-anchor="middle" x="581" y="-1294.2" font-family="Times,serif" font-size="14.00">01</text>
</g>
<!-- SELECT_UNCONTESTED_00&#45;&gt;SELECT_UNCONTESTED_01 -->
<!-- SELECT_01 -->
<g id="node13" class="node">
<title>SELECT_01</title>
<polygon fill="none" stroke="blue" points="502,-1476.5 426,-1476.5 426,-1438.5 502,-1438.5 502,-1476.5"/>
<text text-anchor="middle" x="464" y="-1461.3" font-family="Times,serif" font-size="14.00">SELECT</text>
<text text-anchor="middle" x="464" y="-1446.3" font-family="Times,serif" font-size="14.00">01</text>
</g>
<!-- STATE_01&#45;&gt;SELECT_01 -->
<!-- STATE_01_output_0 -->
<g id="node39" class="node">
<title>STATE_01_output_0</title>
<ellipse fill="black" stroke="black" cx="434" cy="-1536.8" rx="1.8" ry="1.8"/>
</g>
<!-- STATE_01&#45;&gt;STATE_01_output_0 -->
<g id="edge50" class="edge">
<title>STATE_01&#45;&gt;STATE_01_output_0</title>
<path fill="none" stroke="black" d="M455.32,-1582.79C447.57,-1566.43 437.06,-1544.26 434.55,-1538.97"/>
</g>
<!-- STATE_UNCONTESTED_02 -->
<g id="node16" class="node">
<title>STATE_UNCONTESTED_02</title>
<polygon fill="none" stroke="green" points="278,-1194.8 150,-1194.8 150,-1141.8 284,-1141.8 284,-1188.8 278,-1194.8"/>
<polyline fill="none" stroke="green" points="278,-1194.8 278,-1188.8 "/>
<polyline fill="none" stroke="green" points="284,-1188.8 278,-1188.8 "/>
<text text-anchor="middle" x="217" y="-1179.6" font-family="Times,serif" font-size="14.00">STATE</text>
<text text-anchor="middle" x="217" y="-1164.6" font-family="Times,serif" font-size="14.00">UNCONTESTED</text>
<text text-anchor="middle" x="217" y="-1149.6" font-family="Times,serif" font-size="14.00">02</text>
</g>
<!-- STATE_UNCONTESTED_01&#45;&gt;STATE_UNCONTESTED_02 -->
<!-- STATE_02 -->
<g id="node15" class="node">
<title>STATE_02</title>
<polygon fill="none" stroke="green" points="495.5,-1331.9 432.5,-1331.9 432.5,-1293.9 495.5,-1293.9 495.5,-1331.9"/>
<text text-anchor="middle" x="464" y="-1316.7" font-family="Times,serif" font-size="14.00">STATE</text>
<text text-anchor="middle" x="464" y="-1301.7" font-family="Times,serif" font-size="14.00">02</text>
</g>
<!-- SELECT_01&#45;&gt;STATE_02 -->
<!-- SELECT_01&#45;&gt;STATE_02 -->
<g id="edge56" class="edge">
<title>SELECT_01&#45;&gt;STATE_02</title>
<path fill="none" stroke="gray" d="M468.67,-1438.44C471.12,-1414.25 471.4,-1371.07 469.53,-1342.45"/>
<polygon fill="gray" stroke="gray" points="473,-1341.95 468.7,-1332.26 466.02,-1342.51 473,-1341.95"/>
</g>
<!-- SELECT_01_output_0 -->
<g id="node40" class="node">
<title>SELECT_01_output_0</title>
<ellipse fill="black" stroke="black" cx="503" cy="-1392.2" rx="1.8" ry="1.8"/>
</g>
<!-- SELECT_01&#45;&gt;SELECT_01_output_0 -->
<g id="edge53" class="edge">
<title>SELECT_01&#45;&gt;SELECT_01_output_0</title>
<path fill="none" stroke="black" d="M475.28,-1438.19C485.36,-1421.83 499.02,-1399.66 502.28,-1394.37"/>
</g>
<!-- SELECT_UNCONTESTED_02 -->
<g id="node18" class="node">
<title>SELECT_UNCONTESTED_02</title>
<polygon fill="none" stroke="blue" points="642,-1050.2 514,-1050.2 514,-997.2 648,-997.2 648,-1044.2 642,-1050.2"/>
<polyline fill="none" stroke="blue" points="642,-1050.2 642,-1044.2 "/>
<polyline fill="none" stroke="blue" points="648,-1044.2 642,-1044.2 "/>
<text text-anchor="middle" x="581" y="-1035" font-family="Times,serif" font-size="14.00">SELECT</text>
<text text-anchor="middle" x="581" y="-1020" font-family="Times,serif" font-size="14.00">UNCONTESTED</text>
<text text-anchor="middle" x="581" y="-1005" font-family="Times,serif" font-size="14.00">02</text>
</g>
<!-- SELECT_UNCONTESTED_01&#45;&gt;SELECT_UNCONTESTED_02 -->
<!-- SELECT_02 -->
<g id="node17" class="node">
<title>SELECT_02</title>
<polygon fill="none" stroke="blue" points="502,-1187.3 426,-1187.3 426,-1149.3 502,-1149.3 502,-1187.3"/>
<text text-anchor="middle" x="464" y="-1172.1" font-family="Times,serif" font-size="14.00">SELECT</text>
<text text-anchor="middle" x="464" y="-1157.1" font-family="Times,serif" font-size="14.00">02</text>
</g>
<!-- STATE_02&#45;&gt;SELECT_02 -->
<!-- STATE_02_output_0 -->
<g id="node41" class="node">
<title>STATE_02_output_0</title>
<ellipse fill="black" stroke="black" cx="434" cy="-1247.6" rx="1.8" ry="1.8"/>
</g>
<!-- STATE_02&#45;&gt;STATE_02_output_0 -->
<g id="edge57" class="edge">
<title>STATE_02&#45;&gt;STATE_02_output_0</title>
<path fill="none" stroke="black" d="M455.32,-1293.59C447.57,-1277.23 437.06,-1255.06 434.55,-1249.77"/>
</g>
<!-- STATE_UNCONTESTED_03 -->
<g id="node20" class="node">
<title>STATE_UNCONTESTED_03</title>
<polygon fill="none" stroke="green" points="278,-905.6 150,-905.6 150,-852.6 284,-852.6 284,-899.6 278,-905.6"/>
<polyline fill="none" stroke="green" points="278,-905.6 278,-899.6 "/>
<polyline fill="none" stroke="green" points="284,-899.6 278,-899.6 "/>
<text text-anchor="middle" x="217" y="-890.4" font-family="Times,serif" font-size="14.00">STATE</text>
<text text-anchor="middle" x="217" y="-875.4" font-family="Times,serif" font-size="14.00">UNCONTESTED</text>
<text text-anchor="middle" x="217" y="-860.4" font-family="Times,serif" font-size="14.00">03</text>
</g>
<!-- STATE_UNCONTESTED_02&#45;&gt;STATE_UNCONTESTED_03 -->
<!-- STATE_03 -->
<g id="node19" class="node">
<title>STATE_03</title>
<polygon fill="none" stroke="green" points="495.5,-1042.7 432.5,-1042.7 432.5,-1004.7 495.5,-1004.7 495.5,-1042.7"/>
<text text-anchor="middle" x="464" y="-1027.5" font-family="Times,serif" font-size="14.00">STATE</text>
<text text-anchor="middle" x="464" y="-1012.5" font-family="Times,serif" font-size="14.00">03</text>
</g>
<!-- SELECT_02&#45;&gt;STATE_03 -->
<!-- SELECT_02&#45;&gt;STATE_03 -->
<g id="edge63" class="edge">
<title>SELECT_02&#45;&gt;STATE_03</title>
<path fill="none" stroke="gray" d="M468.67,-1149.24C471.12,-1125.05 471.4,-1081.87 469.53,-1053.25"/>
<polygon fill="gray" stroke="gray" points="473,-1052.75 468.7,-1043.06 466.02,-1053.31 473,-1052.75"/>
</g>
<!-- SELECT_02_output_0 -->
<g id="node42" class="node">
<title>SELECT_02_output_0</title>
<ellipse fill="black" stroke="black" cx="503" cy="-1103" rx="1.8" ry="1.8"/>
</g>
<!-- SELECT_02&#45;&gt;SELECT_02_output_0 -->
<g id="edge60" class="edge">
<title>SELECT_02&#45;&gt;SELECT_02_output_0</title>
<path fill="none" stroke="black" d="M475.28,-1148.99C485.36,-1132.63 499.02,-1110.46 502.28,-1105.17"/>
</g>
<!-- SELECT_UNCONTESTED_03 -->
<g id="node22" class="node">
<title>SELECT_UNCONTESTED_03</title>
<polygon fill="none" stroke="blue" points="642,-761 514,-761 514,-708 648,-708 648,-755 642,-761"/>
<polyline fill="none" stroke="blue" points="642,-761 642,-755 "/>
<polyline fill="none" stroke="blue" points="648,-755 642,-755 "/>
<text text-anchor="middle" x="581" y="-745.8" font-family="Times,serif" font-size="14.00">SELECT</text>
<text text-anchor="middle" x="581" y="-730.8" font-family="Times,serif" font-size="14.00">UNCONTESTED</text>
<text text-anchor="middle" x="581" y="-715.8" font-family="Times,serif" font-size="14.00">03</text>
</g>
<!-- SELECT_UNCONTESTED_02&#45;&gt;SELECT_UNCONTESTED_03 -->
<!-- SELECT_03 -->
<g id="node21" class="node">
<title>SELECT_03</title>
<polygon fill="none" stroke="blue" points="502,-898.1 426,-898.1 426,-860.1 502,-860.1 502,-898.1"/>
<text text-anchor="middle" x="464" y="-882.9" font-family="Times,serif" font-size="14.00">SELECT</text>
<text text-anchor="middle" x="464" y="-867.9" font-family="Times,serif" font-size="14.00">03</text>
</g>
<!-- STATE_03&#45;&gt;SELECT_03 -->
<!-- STATE_03_output_0 -->
<g id="node43" class="node">
<title>STATE_03_output_0</title>
<ellipse fill="black" stroke="black" cx="434" cy="-958.4" rx="1.8" ry="1.8"/>
</g>
<!-- STATE_03&#45;&gt;STATE_03_output_0 -->
<g id="edge64" class="edge">
<title>STATE_03&#45;&gt;STATE_03_output_0</title>
<path fill="none" stroke="black" d="M455.32,-1004.39C447.57,-988.03 437.06,-965.86 434.55,-960.57"/>
</g>
<!-- STATE_UNCONTESTED_04 -->
<g id="node24" class="node">
<title>STATE_UNCONTESTED_04</title>
<polygon fill="none" stroke="green" points="276,-616.4 148,-616.4 148,-563.4 282,-563.4 282,-610.4 276,-616.4"/>
<polyline fill="none" stroke="green" points="276,-616.4 276,-610.4 "/>
<polyline fill="none" stroke="green" points="282,-610.4 276,-610.4 "/>
<text text-anchor="middle" x="215" y="-601.2" font-family="Times,serif" font-size="14.00">STATE</text>
<text text-anchor="middle" x="215" y="-586.2" font-family="Times,serif" font-size="14.00">UNCONTESTED</text>
<text text-anchor="middle" x="215" y="-571.2" font-family="Times,serif" font-size="14.00">04</text>
</g>
<!-- STATE_UNCONTESTED_03&#45;&gt;STATE_UNCONTESTED_04 -->
<!-- STATE_04 -->
<g id="node23" class="node">
<title>STATE_04</title>
<polygon fill="none" stroke="green" points="495.5,-753.5 432.5,-753.5 432.5,-715.5 495.5,-715.5 495.5,-753.5"/>
<text text-anchor="middle" x="464" y="-738.3" font-family="Times,serif" font-size="14.00">STATE</text>
<text text-anchor="middle" x="464" y="-723.3" font-family="Times,serif" font-size="14.00">04</text>
</g>
<!-- SELECT_03&#45;&gt;STATE_04 -->
<!-- SELECT_03&#45;&gt;STATE_04 -->
<g id="edge70" class="edge">
<title>SELECT_03&#45;&gt;STATE_04</title>
<path fill="none" stroke="gray" d="M468.67,-860.04C471.12,-835.85 471.4,-792.67 469.53,-764.05"/>
<polygon fill="gray" stroke="gray" points="473,-763.55 468.7,-753.86 466.02,-764.11 473,-763.55"/>
</g>
<!-- SELECT_03_output_0 -->
<g id="node44" class="node">
<title>SELECT_03_output_0</title>
<ellipse fill="black" stroke="black" cx="503" cy="-813.8" rx="1.8" ry="1.8"/>
</g>
<!-- SELECT_03&#45;&gt;SELECT_03_output_0 -->
<g id="edge67" class="edge">
<title>SELECT_03&#45;&gt;SELECT_03_output_0</title>
<path fill="none" stroke="black" d="M475.28,-859.79C485.36,-843.43 499.02,-821.26 502.28,-815.97"/>
</g>
<!-- SELECT_UNCONTESTED_04 -->
<g id="node26" class="node">
<title>SELECT_UNCONTESTED_04</title>
<polygon fill="none" stroke="blue" points="408,-471.8 280,-471.8 280,-418.8 414,-418.8 414,-465.8 408,-471.8"/>
<polyline fill="none" stroke="blue" points="408,-471.8 408,-465.8 "/>
<polyline fill="none" stroke="blue" points="414,-465.8 408,-465.8 "/>
<text text-anchor="middle" x="347" y="-456.6" font-family="Times,serif" font-size="14.00">SELECT</text>
<text text-anchor="middle" x="347" y="-441.6" font-family="Times,serif" font-size="14.00">UNCONTESTED</text>
<text text-anchor="middle" x="347" y="-426.6" font-family="Times,serif" font-size="14.00">04</text>
</g>
<!-- SELECT_UNCONTESTED_03&#45;&gt;SELECT_UNCONTESTED_04 -->
<!-- SELECT_04 -->
<g id="node25" class="node">
<title>SELECT_04</title>
<polygon fill="none" stroke="blue" points="502,-608.9 426,-608.9 426,-570.9 502,-570.9 502,-608.9"/>
<text text-anchor="middle" x="464" y="-593.7" font-family="Times,serif" font-size="14.00">SELECT</text>
<text text-anchor="middle" x="464" y="-578.7" font-family="Times,serif" font-size="14.00">04</text>
</g>
<!-- STATE_04&#45;&gt;SELECT_04 -->
<!-- STATE_04_output_0 -->
<g id="node45" class="node">
<title>STATE_04_output_0</title>
<ellipse fill="black" stroke="black" cx="434" cy="-669.2" rx="1.8" ry="1.8"/>
</g>
<!-- STATE_04&#45;&gt;STATE_04_output_0 -->
<g id="edge71" class="edge">
<title>STATE_04&#45;&gt;STATE_04_output_0</title>
<path fill="none" stroke="black" d="M455.32,-715.19C447.57,-698.83 437.06,-676.66 434.55,-671.37"/>
</g>
<!-- STATE_UNCONTESTED_05 -->
<g id="node28" class="node">
<title>STATE_UNCONTESTED_05</title>
<polygon fill="none" stroke="green" points="313,-327.2 185,-327.2 185,-274.2 319,-274.2 319,-321.2 313,-327.2"/>
<polyline fill="none" stroke="green" points="313,-327.2 313,-321.2 "/>
<polyline fill="none" stroke="green" points="319,-321.2 313,-321.2 "/>
<text text-anchor="middle" x="252" y="-312" font-family="Times,serif" font-size="14.00">STATE</text>
<text text-anchor="middle" x="252" y="-297" font-family="Times,serif" font-size="14.00">UNCONTESTED</text>
<text text-anchor="middle" x="252" y="-282" font-family="Times,serif" font-size="14.00">05</text>
</g>
<!-- STATE_UNCONTESTED_04&#45;&gt;STATE_UNCONTESTED_05 -->
<!-- STATE_05 -->
<g id="node27" class="node">
<title>STATE_05</title>
<polygon fill="none" stroke="green" points="495.5,-464.3 432.5,-464.3 432.5,-426.3 495.5,-426.3 495.5,-464.3"/>
<text text-anchor="middle" x="464" y="-449.1" font-family="Times,serif" font-size="14.00">STATE</text>
<text text-anchor="middle" x="464" y="-434.1" font-family="Times,serif" font-size="14.00">05</text>
</g>
<!-- SELECT_04&#45;&gt;STATE_05 -->
<!-- SELECT_04&#45;&gt;STATE_05 -->
<g id="edge77" class="edge">
<title>SELECT_04&#45;&gt;STATE_05</title>
<path fill="none" stroke="gray" d="M468.67,-570.84C471.12,-546.65 471.4,-503.47 469.53,-474.85"/>
<polygon fill="gray" stroke="gray" points="473,-474.35 468.7,-464.66 466.02,-474.91 473,-474.35"/>
</g>
<!-- SELECT_04_output_0 -->
<g id="node46" class="node">
<title>SELECT_04_output_0</title>
<ellipse fill="black" stroke="black" cx="425" cy="-524.6" rx="1.8" ry="1.8"/>
</g>
<!-- SELECT_04&#45;&gt;SELECT_04_output_0 -->
<g id="edge74" class="edge">
<title>SELECT_04&#45;&gt;SELECT_04_output_0</title>
<path fill="none" stroke="black" d="M452.72,-570.59C442.64,-554.23 428.98,-532.06 425.72,-526.77"/>
</g>
<!-- SELECT_UNCONTESTED_05 -->
<g id="node30" class="node">
<title>SELECT_UNCONTESTED_05</title>
<polygon fill="none" stroke="blue" points="336,-182.6 208,-182.6 208,-129.6 342,-129.6 342,-176.6 336,-182.6"/>
<polyline fill="none" stroke="blue" points="336,-182.6 336,-176.6 "/>
<polyline fill="none" stroke="blue" points="342,-176.6 336,-176.6 "/>
<text text-anchor="middle" x="275" y="-167.4" font-family="Times,serif" font-size="14.00">SELECT</text>
<text text-anchor="middle" x="275" y="-152.4" font-family="Times,serif" font-size="14.00">UNCONTESTED</text>
<text text-anchor="middle" x="275" y="-137.4" font-family="Times,serif" font-size="14.00">05</text>
</g>
<!-- SELECT_UNCONTESTED_04&#45;&gt;SELECT_UNCONTESTED_05 -->
<!-- SELECT_05 -->
<g id="node29" class="node">
<title>SELECT_05</title>
<polygon fill="none" stroke="blue" points="502,-319.7 426,-319.7 426,-281.7 502,-281.7 502,-319.7"/>
<text text-anchor="middle" x="464" y="-304.5" font-family="Times,serif" font-size="14.00">SELECT</text>
<text text-anchor="middle" x="464" y="-289.5" font-family="Times,serif" font-size="14.00">05</text>
</g>
<!-- STATE_05&#45;&gt;SELECT_05 -->
<!-- STATE_05_output_0 -->
<g id="node47" class="node">
<title>STATE_05_output_0</title>
<ellipse fill="black" stroke="black" cx="434" cy="-380" rx="1.8" ry="1.8"/>
</g>
<!-- STATE_05&#45;&gt;STATE_05_output_0 -->
<g id="edge78" class="edge">
<title>STATE_05&#45;&gt;STATE_05_output_0</title>
<path fill="none" stroke="black" d="M455.32,-425.99C447.57,-409.63 437.06,-387.46 434.55,-382.17"/>
</g>
<!-- ARGUMENT -->
<g id="node31" class="node">
<title>ARGUMENT</title>
<polygon fill="none" stroke="green" points="517,-174.1 411,-174.1 411,-138.1 517,-138.1 517,-174.1"/>
<text text-anchor="middle" x="464" y="-152.4" font-family="Times,serif" font-size="14.00">ARGUMENT</text>
</g>
<!-- SELECT_05&#45;&gt;ARGUMENT -->
<!-- SELECT_05&#45;&gt;ARGUMENT -->
<g id="edge84" class="edge">
<title>SELECT_05&#45;&gt;ARGUMENT</title>
<path fill="none" stroke="gray" d="M435.96,-281.64C420.84,-256.73 419.48,-211.67 431.87,-183.12"/>
<polygon fill="gray" stroke="gray" points="435.05,-184.61 436.6,-174.13 428.85,-181.35 435.05,-184.61"/>
</g>
<!-- SELECT_05&#45;&gt;ARGUMENT -->
<g id="edge85" class="edge">
<title>SELECT_05&#45;&gt;ARGUMENT</title>
<path fill="none" stroke="gray" d="M445.31,-281.64C435.32,-256.94 434.34,-212.45 442.37,-183.87"/>
<polygon fill="gray" stroke="gray" points="445.78,-184.72 445.74,-174.13 439.16,-182.43 445.78,-184.72"/>
</g>
<!-- SELECT_05&#45;&gt;ARGUMENT -->
<g id="edge86" class="edge">
<title>SELECT_05&#45;&gt;ARGUMENT</title>
<path fill="none" stroke="gray" d="M454.65,-281.64C449.68,-257.05 449.17,-212.84 453.13,-184.25"/>
<polygon fill="gray" stroke="gray" points="456.63,-184.57 454.87,-174.13 449.73,-183.39 456.63,-184.57"/>
</g>
<!-- SELECT_05&#45;&gt;ARGUMENT -->
<g id="edge87" class="edge">
<title>SELECT_05&#45;&gt;ARGUMENT</title>
<path fill="none" stroke="gray" d="M464,-281.64C464,-257.05 464,-212.84 464,-184.25"/>
<polygon fill="gray" stroke="gray" points="467.5,-184.13 464,-174.13 460.5,-184.13 467.5,-184.13"/>
</g>
<!-- SELECT_05&#45;&gt;ARGUMENT -->
<g id="edge88" class="edge">
<title>SELECT_05&#45;&gt;ARGUMENT</title>
<path fill="none" stroke="gray" d="M473.35,-281.64C478.32,-257.05 478.83,-212.84 474.87,-184.25"/>
<polygon fill="gray" stroke="gray" points="478.27,-183.39 473.13,-174.13 471.37,-184.57 478.27,-183.39"/>
</g>
<!-- SELECT_05&#45;&gt;ARGUMENT -->
<g id="edge89" class="edge">
<title>SELECT_05&#45;&gt;ARGUMENT</title>
<path fill="none" stroke="gray" d="M482.69,-281.64C492.68,-256.94 493.66,-212.45 485.63,-183.87"/>
<polygon fill="gray" stroke="gray" points="488.84,-182.43 482.26,-174.13 482.22,-184.72 488.84,-182.43"/>
</g>
<!-- SELECT_05&#45;&gt;ARGUMENT -->
<g id="edge90" class="edge">
<title>SELECT_05&#45;&gt;ARGUMENT</title>
<path fill="none" stroke="gray" d="M492.04,-281.64C507.16,-256.73 508.52,-211.67 496.13,-183.12"/>
<polygon fill="gray" stroke="gray" points="499.15,-181.35 491.4,-174.13 492.95,-184.61 499.15,-181.35"/>
</g>
<!-- SELECT_05&#45;&gt;ARGUMENT -->
<g id="edge91" class="edge">
<title>SELECT_05&#45;&gt;ARGUMENT</title>
<path fill="none" stroke="gray" d="M501.39,-281.64C521.72,-256.51 523.39,-210.88 506.4,-182.38"/>
<polygon fill="gray" stroke="gray" points="509.18,-180.25 500.53,-174.13 503.47,-184.3 509.18,-180.25"/>
</g>
<!-- SELECT_05_output_0 -->
<g id="node48" class="node">
<title>SELECT_05_output_0</title>
<ellipse fill="black" stroke="black" cx="362" cy="-235.4" rx="1.8" ry="1.8"/>
</g>
<!-- SELECT_05&#45;&gt;SELECT_05_output_0 -->
<g id="edge81" class="edge">
<title>SELECT_05&#45;&gt;SELECT_05_output_0</title>
<path fill="none" stroke="black" d="M425.96,-284.68C410.21,-277.43 392.31,-267.77 378,-256.2 370.58,-250.2 364.29,-240.23 362.51,-237.26"/>
</g>
<!-- PROOF_REFUTED -->
<g id="node32" class="node">
<title>PROOF_REFUTED</title>
<polygon fill="none" stroke="blue" points="503,-38 419,-38 419,0 509,0 509,-32 503,-38"/>
<polyline fill="none" stroke="blue" points="503,-38 503,-32 "/>
<polyline fill="none" stroke="blue" points="509,-32 503,-32 "/>
<text text-anchor="middle" x="464" y="-22.8" font-family="Times,serif" font-size="14.00">PROOF</text>
<text text-anchor="middle" x="464" y="-7.8" font-family="Times,serif" font-size="14.00">REFUTED</text>
</g>
<!-- ARGUMENT&#45;&gt;PROOF_REFUTED -->
<!-- ARGUMENT_output_0 -->
<g id="node49" class="node">
<title>ARGUMENT_output_0</title>
<ellipse fill="black" stroke="black" cx="434" cy="-90.8" rx="1.8" ry="1.8"/>
</g>
<!-- ARGUMENT&#45;&gt;ARGUMENT_output_0 -->
<g id="edge92" class="edge">
<title>ARGUMENT&#45;&gt;ARGUMENT_output_0</title>
<path fill="none" stroke="black" d="M455.8,-137.8C448.03,-121.4 437.17,-98.48 434.57,-93.01"/>
</g>
<!-- ARGUMENT_UNCONTESTED -->
<g id="node33" class="node">
<title>ARGUMENT_UNCONTESTED</title>
<polygon fill="none" stroke="green" points="233,-38 105,-38 105,0 239,0 239,-32 233,-38"/>
<polyline fill="none" stroke="green" points="233,-38 233,-32 "/>
<polyline fill="none" stroke="green" points="239,-32 233,-32 "/>
<text text-anchor="middle" x="172" y="-22.8" font-family="Times,serif" font-size="14.00">ARGUMENT</text>
<text text-anchor="middle" x="172" y="-7.8" font-family="Times,serif" font-size="14.00">UNCONTESTED</text>
</g>
<!-- LOCKED_FUNDS_output_0&#45;&gt;PROOF_UNCONTESTED -->
<g id="edge26" class="edge">
<title>LOCKED_FUNDS_output_0&#45;&gt;PROOF_UNCONTESTED</title>
<path fill="none" stroke="magenta" d="M153.43,-2011.2C165.84,-2009.45 256.58,-1996.31 328,-1976.4 398.39,-1956.78 477.21,-1926.94 527.89,-1906.69"/>
<polygon fill="magenta" stroke="magenta" points="529.35,-1909.88 537.32,-1902.9 526.74,-1903.38 529.35,-1909.88"/>
</g>
<!-- LOCKED_FUNDS_output_0&#45;&gt;STATE_UNCONTESTED_00 -->
<g id="edge27" class="edge">
<title>LOCKED_FUNDS_output_0&#45;&gt;STATE_UNCONTESTED_00</title>
<path fill="none" stroke="magenta" d="M153.66,-2010.96C163.97,-2008.14 219,-1991.46 219,-1956.6 219,-1956.6 219,-1956.6 219,-1825 219,-1810.67 223.31,-1795.69 228.54,-1782.77"/>
<polygon fill="magenta" stroke="magenta" points="231.87,-1783.91 232.67,-1773.34 225.45,-1781.1 231.87,-1783.91"/>
</g>
<!-- LOCKED_FUNDS_output_0&#45;&gt;STATE_UNCONTESTED_01 -->
<g id="edge28" class="edge">
<title>LOCKED_FUNDS_output_0&#45;&gt;STATE_UNCONTESTED_01</title>
<path fill="none" stroke="magenta" d="M152,-2010.04C152,-2003.88 152,-1977.91 152,-1956.6 152,-1956.6 152,-1956.6 152,-1535.8 152,-1518.85 161.29,-1503.73 172.91,-1491.47"/>
<polygon fill="magenta" stroke="magenta" points="175.64,-1493.68 180.37,-1484.2 170.76,-1488.67 175.64,-1493.68"/>
</g>
<!-- LOCKED_FUNDS_output_0&#45;&gt;STATE_UNCONTESTED_02 -->
<g id="edge29" class="edge">
<title>LOCKED_FUNDS_output_0&#45;&gt;STATE_UNCONTESTED_02</title>
<path fill="none" stroke="magenta" d="M151.06,-2010.75C145.21,-2006.64 114,-1983.46 114,-1956.6 114,-1956.6 114,-1956.6 114,-1246.6 114,-1227.18 125.86,-1212.04 141.53,-1200.51"/>
<polygon fill="magenta" stroke="magenta" points="143.67,-1203.29 150.02,-1194.81 139.77,-1197.47 143.67,-1203.29"/>
</g>
<!-- LOCKED_FUNDS_output_0&#45;&gt;STATE_UNCONTESTED_03 -->
<g id="edge30" class="edge">
<title>LOCKED_FUNDS_output_0&#45;&gt;STATE_UNCONTESTED_03</title>
<path fill="none" stroke="magenta" d="M150.68,-2011.15C140.59,-2009.17 76,-1994.99 76,-1956.6 76,-1956.6 76,-1956.6 76,-957.4 76,-923.86 107.05,-904.78 140.01,-893.97"/>
<polygon fill="magenta" stroke="magenta" points="141.25,-897.25 149.8,-891 139.22,-890.55 141.25,-897.25"/>
</g>
<!-- LOCKED_FUNDS_output_0&#45;&gt;STATE_UNCONTESTED_04 -->
<g id="edge31" class="edge">
<title>LOCKED_FUNDS_output_0&#45;&gt;STATE_UNCONTESTED_04</title>
<path fill="none" stroke="magenta" d="M150.39,-2011.4C136.53,-2011.31 38,-2008.86 38,-1956.6 38,-1956.6 38,-1956.6 38,-668.2 38,-621.63 90.09,-602.84 137.75,-595.39"/>
<polygon fill="magenta" stroke="magenta" points="138.42,-598.83 147.83,-593.97 137.44,-591.9 138.42,-598.83"/>
</g>
<!-- LOCKED_FUNDS_output_0&#45;&gt;STATE_UNCONTESTED_05 -->
<g id="edge32" class="edge">
<title>LOCKED_FUNDS_output_0&#45;&gt;STATE_UNCONTESTED_05</title>
<path fill="none" stroke="magenta" d="M153.4,-2011.25C169.23,-2009.5 314,-1992.53 314,-1956.6 314,-1956.6 314,-1956.6 314,-1825 314,-1801.63 320.99,-1796.48 323,-1773.2 325.02,-1749.73 323.22,-1743.75 323,-1720.2 320.56,-1455.1 312,-1388.91 312,-1123.8 312,-1123.8 312,-1123.8 312,-689 312,-590.76 286.95,-568.73 271,-471.8 263.41,-425.7 257.98,-372.06 254.91,-337.53"/>
<polygon fill="magenta" stroke="magenta" points="258.39,-337.12 254.04,-327.46 251.42,-337.73 258.39,-337.12"/>
</g>
<!-- LOCKED_FUNDS_output_0&#45;&gt;ARGUMENT_UNCONTESTED -->
<g id="edge33" class="edge">
<title>LOCKED_FUNDS_output_0&#45;&gt;ARGUMENT_UNCONTESTED</title>
<path fill="none" stroke="magenta" d="M150.29,-2011.18C133.59,-2008.97 0,-1990.26 0,-1956.6 0,-1956.6 0,-1956.6 0,-89.8 0,-45.82 48.89,-28.89 94.54,-22.68"/>
<polygon fill="magenta" stroke="magenta" points="95.01,-26.14 104.51,-21.47 94.17,-19.19 95.01,-26.14"/>
</g>
<!-- PROOF_output_0&#45;&gt;PROOF_UNCONTESTED -->
<g id="edge36" class="edge">
<title>PROOF_output_0&#45;&gt;PROOF_UNCONTESTED</title>
<path fill="none" stroke="green" stroke-dasharray="5,2" d="M565.23,-1953.61C566.26,-1949.11 570.63,-1930.02 574.52,-1913.08"/>
<polygon fill="green" stroke="green" points="578.01,-1913.5 576.84,-1902.97 571.19,-1911.93 578.01,-1913.5"/>
<text text-anchor="middle" x="610.5" y="-1924.6" font-family="Times,serif" font-size="14.00">180 blocks</text>
</g>
<!-- PROOF_output_0&#45;&gt;CHALLENGE_UNCONTESTED -->
<g id="edge37" class="edge">
<title>PROOF_output_0&#45;&gt;CHALLENGE_UNCONTESTED</title>
<path fill="none" stroke="blue" stroke-dasharray="5,2" d="M566.75,-1954.46C575.99,-1953.67 620.04,-1949.31 653,-1935.8 669.91,-1928.87 687.19,-1918.36 701.35,-1908.68"/>
<polygon fill="blue" stroke="blue" points="703.55,-1911.41 709.72,-1902.8 699.53,-1905.69 703.55,-1911.41"/>
<text text-anchor="middle" x="718.5" y="-1924.6" font-family="Times,serif" font-size="14.00">360 blocks</text>
</g>
<!-- PROOF_output_0&#45;&gt;STATE_00 -->
<g id="edge38" class="edge">
<title>PROOF_output_0&#45;&gt;STATE_00</title>
<path fill="none" stroke="green" d="M563.87,-1953.82C557.41,-1949.36 524.69,-1926.74 498.43,-1908.59"/>
<polygon fill="green" stroke="green" points="500.39,-1905.69 490.17,-1902.89 496.41,-1911.45 500.39,-1905.69"/>
</g>
<!-- PROOF_output_2&#45;&gt;CHALLENGE -->
<g id="edge41" class="edge">
<title>PROOF_output_2&#45;&gt;CHALLENGE</title>
<path fill="none" stroke="gray" d="M799.84,-1953.82C804.62,-1949.37 828.75,-1926.91 848.21,-1908.8"/>
<polygon fill="gray" stroke="gray" points="850.72,-1911.25 855.65,-1901.88 845.95,-1906.13 850.72,-1911.25"/>
</g>
<!-- PROOF_output_2&#45;&gt;PROOF_UNCONTESTED -->
<g id="edge42" class="edge">
<title>PROOF_output_2&#45;&gt;PROOF_UNCONTESTED</title>
<path fill="none" stroke="gray" d="M798.2,-1953.55C794.55,-1948.83 778.82,-1929.39 761,-1920.8 721.38,-1901.7 705.03,-1910.86 657.93,-1902.78"/>
<polygon fill="gray" stroke="gray" points="658.56,-1899.34 648.09,-1900.92 657.26,-1906.22 658.56,-1899.34"/>
</g>
<!-- STATE_00_output_0&#45;&gt;STATE_UNCONTESTED_00 -->
<g id="edge44" class="edge">
<title>STATE_00_output_0&#45;&gt;STATE_UNCONTESTED_00</title>
<path fill="none" stroke="green" stroke-dasharray="5,2" d="M432.57,-1824.75C425.01,-1823.43 388.89,-1816.8 361,-1806.2 340.54,-1798.43 318.96,-1787.99 300.15,-1778.08"/>
<polygon fill="green" stroke="green" points="301.63,-1774.9 291.16,-1773.27 298.33,-1781.07 301.63,-1774.9"/>
<text text-anchor="middle" x="399.5" y="-1795" font-family="Times,serif" font-size="14.00">180 blocks</text>
</g>
<!-- STATE_00_output_0&#45;&gt;SELECT_00 -->
<g id="edge45" class="edge">
<title>STATE_00_output_0&#45;&gt;SELECT_00</title>
<path fill="none" stroke="blue" d="M434.34,-1824.13C436.21,-1819.31 445.53,-1795.3 453.23,-1775.46"/>
<polygon fill="blue" stroke="blue" points="456.59,-1776.46 456.95,-1765.87 450.07,-1773.93 456.59,-1776.46"/>
</g>
<!-- SELECT_00_output_0&#45;&gt;SELECT_UNCONTESTED_00 -->
<g id="edge47" class="edge">
<title>SELECT_00_output_0&#45;&gt;SELECT_UNCONTESTED_00</title>
<path fill="none" stroke="blue" stroke-dasharray="5,2" d="M581,-1679.53C581,-1675.37 581,-1656.95 581,-1639.24"/>
<polygon fill="blue" stroke="blue" points="584.5,-1639 581,-1629 577.5,-1639 584.5,-1639"/>
<text text-anchor="middle" x="619.5" y="-1650.4" font-family="Times,serif" font-size="14.00">180 blocks</text>
</g>
<!-- SELECT_00_output_0&#45;&gt;STATE_01 -->
<g id="edge48" class="edge">
<title>SELECT_00_output_0&#45;&gt;STATE_01</title>
<path fill="none" stroke="green" d="M579.69,-1679.53C571.88,-1674.38 530.93,-1647.32 499.94,-1626.85"/>
<polygon fill="green" stroke="green" points="501.78,-1623.86 491.51,-1621.27 497.92,-1629.7 501.78,-1623.86"/>
</g>
<!-- STATE_01_output_0&#45;&gt;STATE_UNCONTESTED_01 -->
<g id="edge51" class="edge">
<title>STATE_01_output_0&#45;&gt;STATE_UNCONTESTED_01</title>
<path fill="none" stroke="green" stroke-dasharray="5,2" d="M432.59,-1535.51C425.1,-1533.97 389.32,-1526.39 361,-1517 335.71,-1508.62 308.52,-1497.93 284.71,-1487.99"/>
<polygon fill="green" stroke="green" points="286,-1484.74 275.42,-1484.08 283.28,-1491.19 286,-1484.74"/>
<text text-anchor="middle" x="399.5" y="-1505.8" font-family="Times,serif" font-size="14.00">180 blocks</text>
</g>
<!-- STATE_01_output_0&#45;&gt;SELECT_01 -->
<g id="edge52" class="edge">
<title>STATE_01_output_0&#45;&gt;SELECT_01</title>
<path fill="none" stroke="blue" d="M434.34,-1534.93C436.21,-1530.11 445.53,-1506.1 453.23,-1486.26"/>
<polygon fill="blue" stroke="blue" points="456.59,-1487.26 456.95,-1476.67 450.07,-1484.73 456.59,-1487.26"/>
</g>
<!-- SELECT_01_output_0&#45;&gt;SELECT_UNCONTESTED_01 -->
<g id="edge54" class="edge">
<title>SELECT_01_output_0&#45;&gt;SELECT_UNCONTESTED_01</title>
<path fill="none" stroke="blue" stroke-dasharray="5,2" d="M503.88,-1390.33C508.31,-1385.94 528.79,-1365.64 547.53,-1347.07"/>
<polygon fill="blue" stroke="blue" points="550.23,-1349.33 554.86,-1339.8 545.3,-1344.35 550.23,-1349.33"/>
<text text-anchor="middle" x="573.5" y="-1361.2" font-family="Times,serif" font-size="14.00">180 blocks</text>
</g>
<!-- SELECT_01_output_0&#45;&gt;STATE_02 -->
<g id="edge55" class="edge">
<title>SELECT_01_output_0&#45;&gt;STATE_02</title>
<path fill="none" stroke="green" d="M502.58,-1390.36C500.67,-1386.56 492.63,-1370.54 486,-1357.4 483.38,-1352.21 480.58,-1346.66 477.89,-1341.34"/>
<polygon fill="green" stroke="green" points="480.85,-1339.44 473.21,-1332.1 474.6,-1342.6 480.85,-1339.44"/>
</g>
<!-- STATE_02_output_0&#45;&gt;STATE_UNCONTESTED_02 -->
<g id="edge58" class="edge">
<title>STATE_02_output_0&#45;&gt;STATE_UNCONTESTED_02</title>
<path fill="none" stroke="green" stroke-dasharray="5,2" d="M432.59,-1246.31C425.1,-1244.76 389.33,-1237.16 361,-1227.8 335.55,-1219.4 308.18,-1208.71 284.2,-1198.77"/>
<polygon fill="green" stroke="green" points="285.42,-1195.49 274.84,-1194.86 282.72,-1201.95 285.42,-1195.49"/>
<text text-anchor="middle" x="399.5" y="-1216.6" font-family="Times,serif" font-size="14.00">180 blocks</text>
</g>
<!-- STATE_02_output_0&#45;&gt;SELECT_02 -->
<g id="edge59" class="edge">
<title>STATE_02_output_0&#45;&gt;SELECT_02</title>
<path fill="none" stroke="blue" d="M434.34,-1245.73C436.21,-1240.91 445.53,-1216.9 453.23,-1197.06"/>
<polygon fill="blue" stroke="blue" points="456.59,-1198.06 456.95,-1187.47 450.07,-1195.53 456.59,-1198.06"/>
</g>
<!-- SELECT_02_output_0&#45;&gt;SELECT_UNCONTESTED_02 -->
<g id="edge61" class="edge">
<title>SELECT_02_output_0&#45;&gt;SELECT_UNCONTESTED_02</title>
<path fill="none" stroke="blue" stroke-dasharray="5,2" d="M503.88,-1101.13C508.31,-1096.74 528.79,-1076.44 547.53,-1057.87"/>
<polygon fill="blue" stroke="blue" points="550.23,-1060.13 554.86,-1050.6 545.3,-1055.15 550.23,-1060.13"/>
<text text-anchor="middle" x="573.5" y="-1072" font-family="Times,serif" font-size="14.00">180 blocks</text>
</g>
<!-- SELECT_02_output_0&#45;&gt;STATE_03 -->
<g id="edge62" class="edge">
<title>SELECT_02_output_0&#45;&gt;STATE_03</title>
<path fill="none" stroke="green" d="M502.58,-1101.16C500.67,-1097.36 492.63,-1081.34 486,-1068.2 483.38,-1063.01 480.58,-1057.46 477.89,-1052.14"/>
<polygon fill="green" stroke="green" points="480.85,-1050.24 473.21,-1042.9 474.6,-1053.4 480.85,-1050.24"/>
</g>
<!-- STATE_03_output_0&#45;&gt;STATE_UNCONTESTED_03 -->
<g id="edge65" class="edge">
<title>STATE_03_output_0&#45;&gt;STATE_UNCONTESTED_03</title>
<path fill="none" stroke="green" stroke-dasharray="5,2" d="M432.59,-957.11C425.1,-955.56 389.33,-947.96 361,-938.6 335.55,-930.2 308.18,-919.51 284.2,-909.57"/>
<polygon fill="green" stroke="green" points="285.42,-906.29 274.84,-905.66 282.72,-912.75 285.42,-906.29"/>
<text text-anchor="middle" x="399.5" y="-927.4" font-family="Times,serif" font-size="14.00">180 blocks</text>
</g>
<!-- STATE_03_output_0&#45;&gt;SELECT_03 -->
<g id="edge66" class="edge">
<title>STATE_03_output_0&#45;&gt;SELECT_03</title>
<path fill="none" stroke="blue" d="M434.34,-956.53C436.21,-951.71 445.53,-927.7 453.23,-907.86"/>
<polygon fill="blue" stroke="blue" points="456.59,-908.86 456.95,-898.27 450.07,-906.33 456.59,-908.86"/>
</g>
<!-- SELECT_03_output_0&#45;&gt;SELECT_UNCONTESTED_03 -->
<g id="edge68" class="edge">
<title>SELECT_03_output_0&#45;&gt;SELECT_UNCONTESTED_03</title>
<path fill="none" stroke="blue" stroke-dasharray="5,2" d="M503.88,-811.93C508.31,-807.54 528.79,-787.24 547.53,-768.67"/>
<polygon fill="blue" stroke="blue" points="550.23,-770.93 554.86,-761.4 545.3,-765.95 550.23,-770.93"/>
<text text-anchor="middle" x="573.5" y="-782.8" font-family="Times,serif" font-size="14.00">180 blocks</text>
</g>
<!-- SELECT_03_output_0&#45;&gt;STATE_04 -->
<g id="edge69" class="edge">
<title>SELECT_03_output_0&#45;&gt;STATE_04</title>
<path fill="none" stroke="green" d="M502.58,-811.96C500.67,-808.16 492.63,-792.14 486,-779 483.38,-773.81 480.58,-768.26 477.89,-762.94"/>
<polygon fill="green" stroke="green" points="480.85,-761.04 473.21,-753.7 474.6,-764.2 480.85,-761.04"/>
</g>
<!-- STATE_04_output_0&#45;&gt;STATE_UNCONTESTED_04 -->
<g id="edge72" class="edge">
<title>STATE_04_output_0&#45;&gt;STATE_UNCONTESTED_04</title>
<path fill="none" stroke="green" stroke-dasharray="5,2" d="M432.59,-667.91C425.11,-666.34 389.36,-658.69 361,-649.4 335.23,-640.96 307.48,-630.26 283.16,-620.33"/>
<polygon fill="green" stroke="green" points="284.26,-616.99 273.68,-616.42 281.59,-623.47 284.26,-616.99"/>
<text text-anchor="middle" x="399.5" y="-638.2" font-family="Times,serif" font-size="14.00">180 blocks</text>
</g>
<!-- STATE_04_output_0&#45;&gt;SELECT_04 -->
<g id="edge73" class="edge">
<title>STATE_04_output_0&#45;&gt;SELECT_04</title>
<path fill="none" stroke="blue" d="M434.34,-667.33C436.21,-662.51 445.53,-638.5 453.23,-618.66"/>
<polygon fill="blue" stroke="blue" points="456.59,-619.66 456.95,-609.07 450.07,-617.13 456.59,-619.66"/>
</g>
<!-- SELECT_04_output_0&#45;&gt;SELECT_UNCONTESTED_04 -->
<g id="edge75" class="edge">
<title>SELECT_04_output_0&#45;&gt;SELECT_UNCONTESTED_04</title>
<path fill="none" stroke="blue" stroke-dasharray="5,2" d="M423.32,-523.76C414.49,-524.51 373.07,-526.74 354,-504.8 348.51,-498.49 345.82,-490.24 344.69,-481.94"/>
<polygon fill="blue" stroke="blue" points="348.18,-481.65 344.01,-471.91 341.19,-482.13 348.18,-481.65"/>
<text text-anchor="middle" x="392.5" y="-493.6" font-family="Times,serif" font-size="14.00">180 blocks</text>
</g>
<!-- SELECT_04_output_0&#45;&gt;STATE_05 -->
<g id="edge76" class="edge">
<title>SELECT_04_output_0&#45;&gt;STATE_05</title>
<path fill="none" stroke="green" d="M425.44,-522.73C427.89,-517.86 440.21,-493.46 450.27,-473.52"/>
<polygon fill="green" stroke="green" points="453.45,-474.98 454.83,-464.47 447.2,-471.82 453.45,-474.98"/>
</g>
<!-- STATE_05_output_0&#45;&gt;STATE_UNCONTESTED_05 -->
<g id="edge79" class="edge">
<title>STATE_05_output_0&#45;&gt;STATE_UNCONTESTED_05</title>
<path fill="none" stroke="green" stroke-dasharray="5,2" d="M432.57,-378.76C424.98,-377.49 388.79,-371.05 361,-360.2 341.41,-352.55 320.86,-342.19 302.94,-332.32"/>
<polygon fill="green" stroke="green" points="304.27,-329.05 293.84,-327.21 300.85,-335.16 304.27,-329.05"/>
<text text-anchor="middle" x="399.5" y="-349" font-family="Times,serif" font-size="14.00">180 blocks</text>
</g>
<!-- STATE_05_output_0&#45;&gt;SELECT_05 -->
<g id="edge80" class="edge">
<title>STATE_05_output_0&#45;&gt;SELECT_05</title>
<path fill="none" stroke="blue" d="M434.34,-378.13C436.21,-373.31 445.53,-349.3 453.23,-329.46"/>
<polygon fill="blue" stroke="blue" points="456.59,-330.46 456.95,-319.87 450.07,-327.93 456.59,-330.46"/>
</g>
<!-- SELECT_05_output_0&#45;&gt;SELECT_UNCONTESTED_05 -->
<g id="edge82" class="edge">
<title>SELECT_05_output_0&#45;&gt;SELECT_UNCONTESTED_05</title>
<path fill="none" stroke="blue" stroke-dasharray="5,2" d="M360.45,-234.31C349.8,-233.69 287.33,-229.43 276,-215.6 270.84,-209.3 268.81,-201.21 268.46,-193.07"/>
<polygon fill="blue" stroke="blue" points="271.97,-192.97 268.81,-182.86 264.97,-192.74 271.97,-192.97"/>
<text text-anchor="middle" x="314.5" y="-204.4" font-family="Times,serif" font-size="14.00">180 blocks</text>
</g>
<!-- SELECT_05_output_0&#45;&gt;ARGUMENT -->
<g id="edge83" class="edge">
<title>SELECT_05_output_0&#45;&gt;ARGUMENT</title>
<path fill="none" stroke="green" d="M362.31,-233.44C363.75,-229.1 370.18,-211.1 381,-200.6 389.66,-192.19 400.28,-185 410.99,-179.03"/>
<polygon fill="green" stroke="green" points="412.75,-182.06 419.96,-174.3 409.48,-175.86 412.75,-182.06"/>
</g>
<!-- ARGUMENT_output_0&#45;&gt;PROOF_REFUTED -->
<g id="edge93" class="edge">
<title>ARGUMENT_output_0&#45;&gt;PROOF_REFUTED</title>
<path fill="none" stroke="blue" d="M434.34,-89.02C436.13,-84.85 444.74,-64.8 452.23,-47.38"/>
<polygon fill="blue" stroke="blue" points="455.49,-48.66 456.23,-38.09 449.06,-45.89 455.49,-48.66"/>
</g>
<!-- ARGUMENT_output_0&#45;&gt;ARGUMENT_UNCONTESTED -->
<g id="edge94" class="edge">
<title>ARGUMENT_output_0&#45;&gt;ARGUMENT_UNCONTESTED</title>
<path fill="none" stroke="green" stroke-dasharray="5,2" d="M432.61,-89.45C425.22,-87.58 389.85,-78.61 361,-71 323.76,-61.18 282.46,-50.06 247.99,-40.72"/>
<polygon fill="green" stroke="green" points="248.56,-37.25 237.99,-38.01 246.72,-44 248.56,-37.25"/>
<text text-anchor="middle" x="399.5" y="-59.8" font-family="Times,serif" font-size="14.00">180 blocks</text>
</g>
</g>
</svg>
