<?xml version="1.0" encoding="UTF-8" standalone="no"?>
<!DOCTYPE svg PUBLIC "-//W3C//DTD SVG 1.1//EN"
 "http://www.w3.org/Graphics/SVG/1.1/DTD/svg11.dtd">
<!-- Generated by graphviz version 12.2.1 (20241206.2353)
 -->
<!-- Title: BitSnark Pages: 1 -->
<svg width="618pt" height="2247pt"
 viewBox="0.00 0.00 618.25 2246.78" xmlns="http://www.w3.org/2000/svg" xmlns:xlink="http://www.w3.org/1999/xlink">
<g id="graph0" class="graph" transform="scale(1 1) rotate(0) translate(4 2242.78)">
<title>BitSnark</title>
<polygon fill="white" stroke="none" points="-4,4 -4,-2242.78 614.25,-2242.78 614.25,4 -4,4"/>
<!-- LOCKED_FUNDS -->
<g id="node1" class="node">
<title>LOCKED_FUNDS</title>
<ellipse fill="none" stroke="magenta" cx="152" cy="-2209.79" rx="50.03" ry="28.99"/>
<text text-anchor="middle" x="152" y="-2212.99" font-family="Times,serif" font-size="14.00">LOCKED</text>
<text text-anchor="middle" x="152" y="-2196.49" font-family="Times,serif" font-size="14.00">FUNDS</text>
</g>
<!-- PROOF_UNCONTESTED -->
<g id="node5" class="node">
<title>PROOF_UNCONTESTED</title>
<polygon fill="none" stroke="green" points="366.12,-1982.3 257.88,-1982.3 257.88,-1941.3 372.12,-1941.3 372.12,-1976.3 366.12,-1982.3"/>
<polyline fill="none" stroke="green" points="366.12,-1982.3 366.12,-1976.3"/>
<polyline fill="none" stroke="green" points="372.12,-1976.3 366.12,-1976.3"/>
<text text-anchor="middle" x="315" y="-1965" font-family="Times,serif" font-size="14.00">PROOF</text>
<text text-anchor="middle" x="315" y="-1948.5" font-family="Times,serif" font-size="14.00">UNCONTESTED</text>
</g>
<!-- LOCKED_FUNDS&#45;&gt;PROOF_UNCONTESTED -->
<!-- LOCKED_FUNDS_output_0 -->
<g id="node34" class="node">
<title>LOCKED_FUNDS_output_0</title>
<ellipse fill="black" stroke="black" cx="152" cy="-2125.8" rx="1.8" ry="1.8"/>
</g>
<!-- LOCKED_FUNDS&#45;&gt;LOCKED_FUNDS_output_0 -->
<g id="edge25" class="edge">
<title>LOCKED_FUNDS&#45;&gt;LOCKED_FUNDS_output_0</title>
<path fill="none" stroke="magenta" d="M152,-2180.57C152,-2159.08 152,-2132.38 152,-2127.56"/>
</g>
<!-- PROVER_STAKE -->
<g id="node2" class="node">
<title>PROVER_STAKE</title>
<ellipse fill="none" stroke="green" cx="448" cy="-2209.79" rx="48.97" ry="28.99"/>
<text text-anchor="middle" x="448" y="-2212.99" font-family="Times,serif" font-size="14.00">PROVER</text>
<text text-anchor="middle" x="448" y="-2196.49" font-family="Times,serif" font-size="14.00">STAKE</text>
</g>
<!-- PROOF -->
<g id="node3" class="node">
<title>PROOF</title>
<polygon fill="none" stroke="green" points="477.75,-2143.8 418.25,-2143.8 418.25,-2107.8 477.75,-2107.8 477.75,-2143.8"/>
<text text-anchor="middle" x="448" y="-2120.75" font-family="Times,serif" font-size="14.00">PROOF</text>
</g>
<!-- PROVER_STAKE&#45;&gt;PROOF -->
<g id="edge34" class="edge">
<title>PROVER_STAKE&#45;&gt;PROOF</title>
<path fill="none" stroke="green" d="M448,-2180.57C448,-2172.36 448,-2163.38 448,-2155.16"/>
<polygon fill="green" stroke="green" points="451.5,-2155.33 448,-2145.33 444.5,-2155.33 451.5,-2155.33"/>
</g>
<!-- CHALLENGE -->
<g id="node4" class="node">
<title>CHALLENGE</title>
<polygon fill="none" stroke="blue" points="588.5,-2070.8 497.5,-2070.8 497.5,-2034.8 594.5,-2034.8 594.5,-2064.8 588.5,-2070.8"/>
<polyline fill="none" stroke="blue" points="588.5,-2070.8 588.5,-2064.8"/>
<polyline fill="none" stroke="blue" points="594.5,-2064.8 588.5,-2064.8"/>
<text text-anchor="middle" x="546" y="-2047.75" font-family="Times,serif" font-size="14.00">CHALLENGE</text>
</g>
<!-- PROOF&#45;&gt;CHALLENGE -->
<g id="edge42" class="edge">
<title>PROOF&#45;&gt;CHALLENGE</title>
<path fill="none" stroke="gray" d="M471.97,-2107.43C484.31,-2098.49 499.55,-2087.46 512.98,-2077.72"/>
<polygon fill="gray" stroke="gray" points="514.66,-2080.82 520.71,-2072.12 510.56,-2075.16 514.66,-2080.82"/>
</g>
<!-- STATE_00 -->
<g id="node7" class="node">
<title>STATE_00</title>
<polygon fill="none" stroke="green" points="476.25,-1982.3 419.75,-1982.3 419.75,-1941.3 476.25,-1941.3 476.25,-1982.3"/>
<text text-anchor="middle" x="448" y="-1965" font-family="Times,serif" font-size="14.00">STATE</text>
<text text-anchor="middle" x="448" y="-1948.5" font-family="Times,serif" font-size="14.00">00</text>
</g>
<!-- PROOF&#45;&gt;STATE_00 -->
<!-- PROOF_output_0 -->
<g id="node35" class="node">
<title>PROOF_output_0</title>
<ellipse fill="black" stroke="black" cx="478" cy="-2052.8" rx="1.8" ry="1.8"/>
</g>
<!-- PROOF&#45;&gt;PROOF_output_0 -->
<g id="edge35" class="edge">
<title>PROOF&#45;&gt;PROOF_output_0</title>
<path fill="none" stroke="black" d="M455.26,-2107.61C463.31,-2088.57 475.45,-2059.85 477.65,-2054.63"/>
</g>
<!-- PROOF_output_1 -->
<g id="node36" class="node">
<title>PROOF_output_1</title>
<ellipse fill="black" stroke="black" cx="418" cy="-2052.8" rx="1.8" ry="1.8"/>
</g>
<!-- PROOF&#45;&gt;PROOF_output_1 -->
<g id="edge39" class="edge">
<title>PROOF&#45;&gt;PROOF_output_1</title>
<path fill="none" stroke="gray" d="M440.74,-2107.61C432.69,-2088.57 420.55,-2059.85 418.35,-2054.63"/>
</g>
<!-- CHALLENGE_UNCONTESTED -->
<g id="node6" class="node">
<title>CHALLENGE_UNCONTESTED</title>
<polygon fill="none" stroke="blue" points="602.12,-1982.3 493.88,-1982.3 493.88,-1941.3 608.12,-1941.3 608.12,-1976.3 602.12,-1982.3"/>
<polyline fill="none" stroke="blue" points="602.12,-1982.3 602.12,-1976.3"/>
<polyline fill="none" stroke="blue" points="608.12,-1976.3 602.12,-1976.3"/>
<text text-anchor="middle" x="551" y="-1965" font-family="Times,serif" font-size="14.00">CHALLENGE</text>
<text text-anchor="middle" x="551" y="-1948.5" font-family="Times,serif" font-size="14.00">UNCONTESTED</text>
</g>
<!-- SELECT_00 -->
<g id="node9" class="node">
<title>SELECT_00</title>
<polygon fill="none" stroke="blue" points="480.75,-1839.95 415.25,-1839.95 415.25,-1798.95 480.75,-1798.95 480.75,-1839.95"/>
<text text-anchor="middle" x="448" y="-1822.65" font-family="Times,serif" font-size="14.00">SELECT</text>
<text text-anchor="middle" x="448" y="-1806.15" font-family="Times,serif" font-size="14.00">00</text>
</g>
<!-- STATE_00&#45;&gt;SELECT_00 -->
<!-- STATE_00_output_0 -->
<g id="node37" class="node">
<title>STATE_00_output_0</title>
<ellipse fill="black" stroke="black" cx="481" cy="-1902.5" rx="1.8" ry="1.8"/>
</g>
<!-- STATE_00&#45;&gt;STATE_00_output_0 -->
<g id="edge43" class="edge">
<title>STATE_00&#45;&gt;STATE_00_output_0</title>
<path fill="none" stroke="black" d="M459.36,-1941.08C467.56,-1926.84 477.65,-1909.32 480.32,-1904.68"/>
</g>
<!-- STATE_UNCONTESTED_00 -->
<g id="node8" class="node">
<title>STATE_UNCONTESTED_00</title>
<polygon fill="none" stroke="green" points="327.12,-1848.2 218.88,-1848.2 218.88,-1790.7 333.12,-1790.7 333.12,-1842.2 327.12,-1848.2"/>
<polyline fill="none" stroke="green" points="327.12,-1848.2 327.12,-1842.2"/>
<polyline fill="none" stroke="green" points="333.12,-1842.2 327.12,-1842.2"/>
<text text-anchor="middle" x="276" y="-1830.9" font-family="Times,serif" font-size="14.00">STATE</text>
<text text-anchor="middle" x="276" y="-1814.4" font-family="Times,serif" font-size="14.00">UNCONTESTED</text>
<text text-anchor="middle" x="276" y="-1797.9" font-family="Times,serif" font-size="14.00">00</text>
</g>
<!-- STATE_UNCONTESTED_01 -->
<g id="node12" class="node">
<title>STATE_UNCONTESTED_01</title>
<polygon fill="none" stroke="green" points="327.12,-1547 218.88,-1547 218.88,-1489.5 333.12,-1489.5 333.12,-1541 327.12,-1547"/>
<polyline fill="none" stroke="green" points="327.12,-1547 327.12,-1541"/>
<polyline fill="none" stroke="green" points="333.12,-1541 327.12,-1541"/>
<text text-anchor="middle" x="276" y="-1529.7" font-family="Times,serif" font-size="14.00">STATE</text>
<text text-anchor="middle" x="276" y="-1513.2" font-family="Times,serif" font-size="14.00">UNCONTESTED</text>
<text text-anchor="middle" x="276" y="-1496.7" font-family="Times,serif" font-size="14.00">01</text>
</g>
<!-- STATE_UNCONTESTED_00&#45;&gt;STATE_UNCONTESTED_01 -->
<!-- STATE_01 -->
<g id="node11" class="node">
<title>STATE_01</title>
<polygon fill="none" stroke="green" points="476.25,-1689.35 419.75,-1689.35 419.75,-1648.35 476.25,-1648.35 476.25,-1689.35"/>
<text text-anchor="middle" x="448" y="-1672.05" font-family="Times,serif" font-size="14.00">STATE</text>
<text text-anchor="middle" x="448" y="-1655.55" font-family="Times,serif" font-size="14.00">01</text>
</g>
<!-- SELECT_00&#45;&gt;STATE_01 -->
<!-- SELECT_00&#45;&gt;STATE_01 -->
<g id="edge49" class="edge">
<title>SELECT_00&#45;&gt;STATE_01</title>
<path fill="none" stroke="gray" d="M452.76,-1798.72C455.09,-1773.74 455.37,-1730.42 453.61,-1700.96"/>
<polygon fill="gray" stroke="gray" points="457.12,-1700.89 452.88,-1691.17 450.14,-1701.41 457.12,-1700.89"/>
</g>
<!-- SELECT_00_output_0 -->
<g id="node38" class="node">
<title>SELECT_00_output_0</title>
<ellipse fill="black" stroke="black" cx="551" cy="-1751.9" rx="1.8" ry="1.8"/>
</g>
<!-- SELECT_00&#45;&gt;SELECT_00_output_0 -->
<g id="edge46" class="edge">
<title>SELECT_00&#45;&gt;SELECT_00_output_0</title>
<path fill="none" stroke="black" d="M479.18,-1798.6C506.66,-1781.12 543.32,-1757.79 549.95,-1753.57"/>
</g>
<!-- SELECT_UNCONTESTED_00 -->
<g id="node10" class="node">
<title>SELECT_UNCONTESTED_00</title>
<polygon fill="none" stroke="blue" points="602.12,-1697.6 493.88,-1697.6 493.88,-1640.1 608.12,-1640.1 608.12,-1691.6 602.12,-1697.6"/>
<polyline fill="none" stroke="blue" points="602.12,-1697.6 602.12,-1691.6"/>
<polyline fill="none" stroke="blue" points="608.12,-1691.6 602.12,-1691.6"/>
<text text-anchor="middle" x="551" y="-1680.3" font-family="Times,serif" font-size="14.00">SELECT</text>
<text text-anchor="middle" x="551" y="-1663.8" font-family="Times,serif" font-size="14.00">UNCONTESTED</text>
<text text-anchor="middle" x="551" y="-1647.3" font-family="Times,serif" font-size="14.00">00</text>
</g>
<!-- SELECT_UNCONTESTED_01 -->
<g id="node14" class="node">
<title>SELECT_UNCONTESTED_01</title>
<polygon fill="none" stroke="blue" points="602.12,-1396.4 493.88,-1396.4 493.88,-1338.9 608.12,-1338.9 608.12,-1390.4 602.12,-1396.4"/>
<polyline fill="none" stroke="blue" points="602.12,-1396.4 602.12,-1390.4"/>
<polyline fill="none" stroke="blue" points="608.12,-1390.4 602.12,-1390.4"/>
<text text-anchor="middle" x="551" y="-1379.1" font-family="Times,serif" font-size="14.00">SELECT</text>
<text text-anchor="middle" x="551" y="-1362.6" font-family="Times,serif" font-size="14.00">UNCONTESTED</text>
<text text-anchor="middle" x="551" y="-1346.1" font-family="Times,serif" font-size="14.00">01</text>
</g>
<!-- SELECT_UNCONTESTED_00&#45;&gt;SELECT_UNCONTESTED_01 -->
<!-- SELECT_01 -->
<g id="node13" class="node">
<title>SELECT_01</title>
<polygon fill="none" stroke="blue" points="480.75,-1538.75 415.25,-1538.75 415.25,-1497.75 480.75,-1497.75 480.75,-1538.75"/>
<text text-anchor="middle" x="448" y="-1521.45" font-family="Times,serif" font-size="14.00">SELECT</text>
<text text-anchor="middle" x="448" y="-1504.95" font-family="Times,serif" font-size="14.00">01</text>
</g>
<!-- STATE_01&#45;&gt;SELECT_01 -->
<!-- STATE_01_output_0 -->
<g id="node39" class="node">
<title>STATE_01_output_0</title>
<ellipse fill="black" stroke="black" cx="418" cy="-1601.3" rx="1.8" ry="1.8"/>
</g>
<!-- STATE_01&#45;&gt;STATE_01_output_0 -->
<g id="edge50" class="edge">
<title>STATE_01&#45;&gt;STATE_01_output_0</title>
<path fill="none" stroke="black" d="M439,-1648.18C431.27,-1631.29 420.99,-1608.83 418.54,-1603.48"/>
</g>
<!-- STATE_UNCONTESTED_02 -->
<g id="node16" class="node">
<title>STATE_UNCONTESTED_02</title>
<polygon fill="none" stroke="green" points="327.12,-1245.8 218.88,-1245.8 218.88,-1188.3 333.12,-1188.3 333.12,-1239.8 327.12,-1245.8"/>
<polyline fill="none" stroke="green" points="327.12,-1245.8 327.12,-1239.8"/>
<polyline fill="none" stroke="green" points="333.12,-1239.8 327.12,-1239.8"/>
<text text-anchor="middle" x="276" y="-1228.5" font-family="Times,serif" font-size="14.00">STATE</text>
<text text-anchor="middle" x="276" y="-1212" font-family="Times,serif" font-size="14.00">UNCONTESTED</text>
<text text-anchor="middle" x="276" y="-1195.5" font-family="Times,serif" font-size="14.00">02</text>
</g>
<!-- STATE_UNCONTESTED_01&#45;&gt;STATE_UNCONTESTED_02 -->
<!-- STATE_02 -->
<g id="node15" class="node">
<title>STATE_02</title>
<polygon fill="none" stroke="green" points="476.25,-1388.15 419.75,-1388.15 419.75,-1347.15 476.25,-1347.15 476.25,-1388.15"/>
<text text-anchor="middle" x="448" y="-1370.85" font-family="Times,serif" font-size="14.00">STATE</text>
<text text-anchor="middle" x="448" y="-1354.35" font-family="Times,serif" font-size="14.00">02</text>
</g>
<!-- SELECT_01&#45;&gt;STATE_02 -->
<!-- SELECT_01&#45;&gt;STATE_02 -->
<g id="edge56" class="edge">
<title>SELECT_01&#45;&gt;STATE_02</title>
<path fill="none" stroke="gray" d="M452.76,-1497.52C455.09,-1472.54 455.37,-1429.22 453.61,-1399.76"/>
<polygon fill="gray" stroke="gray" points="457.12,-1399.69 452.88,-1389.97 450.14,-1400.21 457.12,-1399.69"/>
</g>
<!-- SELECT_01_output_0 -->
<g id="node40" class="node">
<title>SELECT_01_output_0</title>
<ellipse fill="black" stroke="black" cx="487" cy="-1450.7" rx="1.8" ry="1.8"/>
</g>
<!-- SELECT_01&#45;&gt;SELECT_01_output_0 -->
<g id="edge53" class="edge">
<title>SELECT_01&#45;&gt;SELECT_01_output_0</title>
<path fill="none" stroke="black" d="M459.7,-1497.58C469.75,-1480.69 483.11,-1458.23 486.3,-1452.88"/>
</g>
<!-- SELECT_UNCONTESTED_02 -->
<g id="node18" class="node">
<title>SELECT_UNCONTESTED_02</title>
<polygon fill="none" stroke="blue" points="602.12,-1095.2 493.88,-1095.2 493.88,-1037.7 608.12,-1037.7 608.12,-1089.2 602.12,-1095.2"/>
<polyline fill="none" stroke="blue" points="602.12,-1095.2 602.12,-1089.2"/>
<polyline fill="none" stroke="blue" points="608.12,-1089.2 602.12,-1089.2"/>
<text text-anchor="middle" x="551" y="-1077.9" font-family="Times,serif" font-size="14.00">SELECT</text>
<text text-anchor="middle" x="551" y="-1061.4" font-family="Times,serif" font-size="14.00">UNCONTESTED</text>
<text text-anchor="middle" x="551" y="-1044.9" font-family="Times,serif" font-size="14.00">02</text>
</g>
<!-- SELECT_UNCONTESTED_01&#45;&gt;SELECT_UNCONTESTED_02 -->
<!-- SELECT_02 -->
<g id="node17" class="node">
<title>SELECT_02</title>
<polygon fill="none" stroke="blue" points="480.75,-1237.55 415.25,-1237.55 415.25,-1196.55 480.75,-1196.55 480.75,-1237.55"/>
<text text-anchor="middle" x="448" y="-1220.25" font-family="Times,serif" font-size="14.00">SELECT</text>
<text text-anchor="middle" x="448" y="-1203.75" font-family="Times,serif" font-size="14.00">02</text>
</g>
<!-- STATE_02&#45;&gt;SELECT_02 -->
<!-- STATE_02_output_0 -->
<g id="node41" class="node">
<title>STATE_02_output_0</title>
<ellipse fill="black" stroke="black" cx="418" cy="-1300.1" rx="1.8" ry="1.8"/>
</g>
<!-- STATE_02&#45;&gt;STATE_02_output_0 -->
<g id="edge57" class="edge">
<title>STATE_02&#45;&gt;STATE_02_output_0</title>
<path fill="none" stroke="black" d="M439,-1346.98C431.27,-1330.09 420.99,-1307.63 418.54,-1302.28"/>
</g>
<!-- STATE_UNCONTESTED_03 -->
<g id="node20" class="node">
<title>STATE_UNCONTESTED_03</title>
<polygon fill="none" stroke="green" points="327.12,-944.6 218.88,-944.6 218.88,-887.1 333.12,-887.1 333.12,-938.6 327.12,-944.6"/>
<polyline fill="none" stroke="green" points="327.12,-944.6 327.12,-938.6"/>
<polyline fill="none" stroke="green" points="333.12,-938.6 327.12,-938.6"/>
<text text-anchor="middle" x="276" y="-927.3" font-family="Times,serif" font-size="14.00">STATE</text>
<text text-anchor="middle" x="276" y="-910.8" font-family="Times,serif" font-size="14.00">UNCONTESTED</text>
<text text-anchor="middle" x="276" y="-894.3" font-family="Times,serif" font-size="14.00">03</text>
</g>
<!-- STATE_UNCONTESTED_02&#45;&gt;STATE_UNCONTESTED_03 -->
<!-- STATE_03 -->
<g id="node19" class="node">
<title>STATE_03</title>
<polygon fill="none" stroke="green" points="476.25,-1086.95 419.75,-1086.95 419.75,-1045.95 476.25,-1045.95 476.25,-1086.95"/>
<text text-anchor="middle" x="448" y="-1069.65" font-family="Times,serif" font-size="14.00">STATE</text>
<text text-anchor="middle" x="448" y="-1053.15" font-family="Times,serif" font-size="14.00">03</text>
</g>
<!-- SELECT_02&#45;&gt;STATE_03 -->
<!-- SELECT_02&#45;&gt;STATE_03 -->
<g id="edge63" class="edge">
<title>SELECT_02&#45;&gt;STATE_03</title>
<path fill="none" stroke="gray" d="M452.76,-1196.32C455.09,-1171.34 455.37,-1128.02 453.61,-1098.56"/>
<polygon fill="gray" stroke="gray" points="457.12,-1098.49 452.88,-1088.77 450.14,-1099.01 457.12,-1098.49"/>
</g>
<!-- SELECT_02_output_0 -->
<g id="node42" class="node">
<title>SELECT_02_output_0</title>
<ellipse fill="black" stroke="black" cx="365" cy="-1149.5" rx="1.8" ry="1.8"/>
</g>
<!-- SELECT_02&#45;&gt;SELECT_02_output_0 -->
<g id="edge60" class="edge">
<title>SELECT_02&#45;&gt;SELECT_02_output_0</title>
<path fill="none" stroke="black" d="M423.1,-1196.38C400.94,-1178.88 371.23,-1155.42 365.85,-1151.17"/>
</g>
<!-- SELECT_UNCONTESTED_03 -->
<g id="node22" class="node">
<title>SELECT_UNCONTESTED_03</title>
<polygon fill="none" stroke="blue" points="602.12,-794 493.88,-794 493.88,-736.5 608.12,-736.5 608.12,-788 602.12,-794"/>
<polyline fill="none" stroke="blue" points="602.12,-794 602.12,-788"/>
<polyline fill="none" stroke="blue" points="608.12,-788 602.12,-788"/>
<text text-anchor="middle" x="551" y="-776.7" font-family="Times,serif" font-size="14.00">SELECT</text>
<text text-anchor="middle" x="551" y="-760.2" font-family="Times,serif" font-size="14.00">UNCONTESTED</text>
<text text-anchor="middle" x="551" y="-743.7" font-family="Times,serif" font-size="14.00">03</text>
</g>
<!-- SELECT_UNCONTESTED_02&#45;&gt;SELECT_UNCONTESTED_03 -->
<!-- SELECT_03 -->
<g id="node21" class="node">
<title>SELECT_03</title>
<polygon fill="none" stroke="blue" points="480.75,-936.35 415.25,-936.35 415.25,-895.35 480.75,-895.35 480.75,-936.35"/>
<text text-anchor="middle" x="448" y="-919.05" font-family="Times,serif" font-size="14.00">SELECT</text>
<text text-anchor="middle" x="448" y="-902.55" font-family="Times,serif" font-size="14.00">03</text>
</g>
<!-- STATE_03&#45;&gt;SELECT_03 -->
<!-- STATE_03_output_0 -->
<g id="node43" class="node">
<title>STATE_03_output_0</title>
<ellipse fill="black" stroke="black" cx="418" cy="-998.9" rx="1.8" ry="1.8"/>
</g>
<!-- STATE_03&#45;&gt;STATE_03_output_0 -->
<g id="edge64" class="edge">
<title>STATE_03&#45;&gt;STATE_03_output_0</title>
<path fill="none" stroke="black" d="M439,-1045.78C431.27,-1028.89 420.99,-1006.43 418.54,-1001.08"/>
</g>
<!-- STATE_UNCONTESTED_04 -->
<g id="node24" class="node">
<title>STATE_UNCONTESTED_04</title>
<polygon fill="none" stroke="green" points="327.12,-643.4 218.88,-643.4 218.88,-585.9 333.12,-585.9 333.12,-637.4 327.12,-643.4"/>
<polyline fill="none" stroke="green" points="327.12,-643.4 327.12,-637.4"/>
<polyline fill="none" stroke="green" points="333.12,-637.4 327.12,-637.4"/>
<text text-anchor="middle" x="276" y="-626.1" font-family="Times,serif" font-size="14.00">STATE</text>
<text text-anchor="middle" x="276" y="-609.6" font-family="Times,serif" font-size="14.00">UNCONTESTED</text>
<text text-anchor="middle" x="276" y="-593.1" font-family="Times,serif" font-size="14.00">04</text>
</g>
<!-- STATE_UNCONTESTED_03&#45;&gt;STATE_UNCONTESTED_04 -->
<!-- STATE_04 -->
<g id="node23" class="node">
<title>STATE_04</title>
<polygon fill="none" stroke="green" points="476.25,-785.75 419.75,-785.75 419.75,-744.75 476.25,-744.75 476.25,-785.75"/>
<text text-anchor="middle" x="448" y="-768.45" font-family="Times,serif" font-size="14.00">STATE</text>
<text text-anchor="middle" x="448" y="-751.95" font-family="Times,serif" font-size="14.00">04</text>
</g>
<!-- SELECT_03&#45;&gt;STATE_04 -->
<!-- SELECT_03&#45;&gt;STATE_04 -->
<g id="edge70" class="edge">
<title>SELECT_03&#45;&gt;STATE_04</title>
<path fill="none" stroke="gray" d="M452.76,-895.12C455.09,-870.14 455.37,-826.82 453.61,-797.36"/>
<polygon fill="gray" stroke="gray" points="457.12,-797.29 452.88,-787.57 450.14,-797.81 457.12,-797.29"/>
</g>
<!-- SELECT_03_output_0 -->
<g id="node44" class="node">
<title>SELECT_03_output_0</title>
<ellipse fill="black" stroke="black" cx="487" cy="-848.3" rx="1.8" ry="1.8"/>
</g>
<!-- SELECT_03&#45;&gt;SELECT_03_output_0 -->
<g id="edge67" class="edge">
<title>SELECT_03&#45;&gt;SELECT_03_output_0</title>
<path fill="none" stroke="black" d="M459.7,-895.18C469.75,-878.29 483.11,-855.83 486.3,-850.48"/>
</g>
<!-- SELECT_UNCONTESTED_04 -->
<g id="node26" class="node">
<title>SELECT_UNCONTESTED_04</title>
<polygon fill="none" stroke="blue" points="602.12,-492.8 493.88,-492.8 493.88,-435.3 608.12,-435.3 608.12,-486.8 602.12,-492.8"/>
<polyline fill="none" stroke="blue" points="602.12,-492.8 602.12,-486.8"/>
<polyline fill="none" stroke="blue" points="608.12,-486.8 602.12,-486.8"/>
<text text-anchor="middle" x="551" y="-475.5" font-family="Times,serif" font-size="14.00">SELECT</text>
<text text-anchor="middle" x="551" y="-459" font-family="Times,serif" font-size="14.00">UNCONTESTED</text>
<text text-anchor="middle" x="551" y="-442.5" font-family="Times,serif" font-size="14.00">04</text>
</g>
<!-- SELECT_UNCONTESTED_03&#45;&gt;SELECT_UNCONTESTED_04 -->
<!-- SELECT_04 -->
<g id="node25" class="node">
<title>SELECT_04</title>
<polygon fill="none" stroke="blue" points="480.75,-635.15 415.25,-635.15 415.25,-594.15 480.75,-594.15 480.75,-635.15"/>
<text text-anchor="middle" x="448" y="-617.85" font-family="Times,serif" font-size="14.00">SELECT</text>
<text text-anchor="middle" x="448" y="-601.35" font-family="Times,serif" font-size="14.00">04</text>
</g>
<!-- STATE_04&#45;&gt;SELECT_04 -->
<!-- STATE_04_output_0 -->
<g id="node45" class="node">
<title>STATE_04_output_0</title>
<ellipse fill="black" stroke="black" cx="418" cy="-697.7" rx="1.8" ry="1.8"/>
</g>
<!-- STATE_04&#45;&gt;STATE_04_output_0 -->
<g id="edge71" class="edge">
<title>STATE_04&#45;&gt;STATE_04_output_0</title>
<path fill="none" stroke="black" d="M439,-744.58C431.27,-727.69 420.99,-705.23 418.54,-699.88"/>
</g>
<!-- STATE_UNCONTESTED_05 -->
<g id="node28" class="node">
<title>STATE_UNCONTESTED_05</title>
<polygon fill="none" stroke="green" points="327.12,-342.2 218.88,-342.2 218.88,-284.7 333.12,-284.7 333.12,-336.2 327.12,-342.2"/>
<polyline fill="none" stroke="green" points="327.12,-342.2 327.12,-336.2"/>
<polyline fill="none" stroke="green" points="333.12,-336.2 327.12,-336.2"/>
<text text-anchor="middle" x="276" y="-324.9" font-family="Times,serif" font-size="14.00">STATE</text>
<text text-anchor="middle" x="276" y="-308.4" font-family="Times,serif" font-size="14.00">UNCONTESTED</text>
<text text-anchor="middle" x="276" y="-291.9" font-family="Times,serif" font-size="14.00">05</text>
</g>
<!-- STATE_UNCONTESTED_04&#45;&gt;STATE_UNCONTESTED_05 -->
<!-- STATE_05 -->
<g id="node27" class="node">
<title>STATE_05</title>
<polygon fill="none" stroke="green" points="476.25,-484.55 419.75,-484.55 419.75,-443.55 476.25,-443.55 476.25,-484.55"/>
<text text-anchor="middle" x="448" y="-467.25" font-family="Times,serif" font-size="14.00">STATE</text>
<text text-anchor="middle" x="448" y="-450.75" font-family="Times,serif" font-size="14.00">05</text>
</g>
<!-- SELECT_04&#45;&gt;STATE_05 -->
<!-- SELECT_04&#45;&gt;STATE_05 -->
<g id="edge77" class="edge">
<title>SELECT_04&#45;&gt;STATE_05</title>
<path fill="none" stroke="gray" d="M452.76,-593.92C455.09,-568.94 455.37,-525.62 453.61,-496.16"/>
<polygon fill="gray" stroke="gray" points="457.12,-496.09 452.88,-486.37 450.14,-496.61 457.12,-496.09"/>
</g>
<!-- SELECT_04_output_0 -->
<g id="node46" class="node">
<title>SELECT_04_output_0</title>
<ellipse fill="black" stroke="black" cx="365" cy="-547.1" rx="1.8" ry="1.8"/>
</g>
<!-- SELECT_04&#45;&gt;SELECT_04_output_0 -->
<g id="edge74" class="edge">
<title>SELECT_04&#45;&gt;SELECT_04_output_0</title>
<path fill="none" stroke="black" d="M423.1,-593.98C400.94,-576.48 371.23,-553.02 365.85,-548.77"/>
</g>
<!-- SELECT_UNCONTESTED_05 -->
<g id="node30" class="node">
<title>SELECT_UNCONTESTED_05</title>
<polygon fill="none" stroke="blue" points="328.12,-191.6 219.88,-191.6 219.88,-134.1 334.12,-134.1 334.12,-185.6 328.12,-191.6"/>
<polyline fill="none" stroke="blue" points="328.12,-191.6 328.12,-185.6"/>
<polyline fill="none" stroke="blue" points="334.12,-185.6 328.12,-185.6"/>
<text text-anchor="middle" x="277" y="-174.3" font-family="Times,serif" font-size="14.00">SELECT</text>
<text text-anchor="middle" x="277" y="-157.8" font-family="Times,serif" font-size="14.00">UNCONTESTED</text>
<text text-anchor="middle" x="277" y="-141.3" font-family="Times,serif" font-size="14.00">05</text>
</g>
<!-- SELECT_UNCONTESTED_04&#45;&gt;SELECT_UNCONTESTED_05 -->
<!-- SELECT_05 -->
<g id="node29" class="node">
<title>SELECT_05</title>
<polygon fill="none" stroke="blue" points="480.75,-333.95 415.25,-333.95 415.25,-292.95 480.75,-292.95 480.75,-333.95"/>
<text text-anchor="middle" x="448" y="-316.65" font-family="Times,serif" font-size="14.00">SELECT</text>
<text text-anchor="middle" x="448" y="-300.15" font-family="Times,serif" font-size="14.00">05</text>
</g>
<!-- STATE_05&#45;&gt;SELECT_05 -->
<!-- STATE_05_output_0 -->
<g id="node47" class="node">
<title>STATE_05_output_0</title>
<ellipse fill="black" stroke="black" cx="380" cy="-396.5" rx="1.8" ry="1.8"/>
</g>
<!-- STATE_05&#45;&gt;STATE_05_output_0 -->
<g id="edge78" class="edge">
<title>STATE_05&#45;&gt;STATE_05_output_0</title>
<path fill="none" stroke="black" d="M427.6,-443.38C409.45,-425.88 385.1,-402.42 380.7,-398.17"/>
</g>
<!-- ARGUMENT -->
<g id="node31" class="node">
<title>ARGUMENT</title>
<polygon fill="none" stroke="green" points="494.62,-180.85 401.38,-180.85 401.38,-144.85 494.62,-144.85 494.62,-180.85"/>
<text text-anchor="middle" x="448" y="-157.8" font-family="Times,serif" font-size="14.00">ARGUMENT</text>
</g>
<!-- SELECT_05&#45;&gt;ARGUMENT -->
<!-- SELECT_05&#45;&gt;ARGUMENT -->
<g id="edge84" class="edge">
<title>SELECT_05&#45;&gt;ARGUMENT</title>
<path fill="none" stroke="gray" d="M419.44,-292.72C404.88,-266.7 403.64,-220.79 415.71,-191.37"/>
<polygon fill="gray" stroke="gray" points="418.7,-193.21 420.07,-182.7 412.45,-190.06 418.7,-193.21"/>
</g>
<!-- SELECT_05&#45;&gt;ARGUMENT -->
<g id="edge85" class="edge">
<title>SELECT_05&#45;&gt;ARGUMENT</title>
<path fill="none" stroke="gray" d="M428.96,-292.72C419.34,-266.93 418.44,-221.6 426.26,-192.15"/>
<polygon fill="gray" stroke="gray" points="429.54,-193.38 429.36,-182.79 422.9,-191.18 429.54,-193.38"/>
</g>
<!-- SELECT_05&#45;&gt;ARGUMENT -->
<g id="edge86" class="edge">
<title>SELECT_05&#45;&gt;ARGUMENT</title>
<path fill="none" stroke="gray" d="M438.48,-292.72C433.69,-267.04 433.22,-222 437.08,-192.54"/>
<polygon fill="gray" stroke="gray" points="440.5,-193.28 438.67,-182.84 433.6,-192.14 440.5,-193.28"/>
</g>
<!-- SELECT_05&#45;&gt;ARGUMENT -->
<g id="edge87" class="edge">
<title>SELECT_05&#45;&gt;ARGUMENT</title>
<path fill="none" stroke="gray" d="M448,-292.72C448,-267.04 448,-222 448,-192.54"/>
<polygon fill="gray" stroke="gray" points="451.5,-192.86 448,-182.86 444.5,-192.86 451.5,-192.86"/>
</g>
<!-- SELECT_05&#45;&gt;ARGUMENT -->
<g id="edge88" class="edge">
<title>SELECT_05&#45;&gt;ARGUMENT</title>
<path fill="none" stroke="gray" d="M457.52,-292.72C462.31,-267.04 462.78,-222 458.92,-192.54"/>
<polygon fill="gray" stroke="gray" points="462.4,-192.14 457.33,-182.84 455.5,-193.28 462.4,-192.14"/>
</g>
<!-- SELECT_05&#45;&gt;ARGUMENT -->
<g id="edge89" class="edge">
<title>SELECT_05&#45;&gt;ARGUMENT</title>
<path fill="none" stroke="gray" d="M467.04,-292.72C476.66,-266.93 477.56,-221.6 469.74,-192.15"/>
<polygon fill="gray" stroke="gray" points="473.1,-191.18 466.64,-182.79 466.46,-193.38 473.1,-191.18"/>
</g>
<!-- SELECT_05&#45;&gt;ARGUMENT -->
<g id="edge90" class="edge">
<title>SELECT_05&#45;&gt;ARGUMENT</title>
<path fill="none" stroke="gray" d="M476.56,-292.72C491.12,-266.7 492.36,-220.79 480.29,-191.37"/>
<polygon fill="gray" stroke="gray" points="483.55,-190.06 475.93,-182.7 477.3,-193.21 483.55,-190.06"/>
</g>
<!-- SELECT_05&#45;&gt;ARGUMENT -->
<g id="edge91" class="edge">
<title>SELECT_05&#45;&gt;ARGUMENT</title>
<path fill="none" stroke="gray" d="M481.17,-298.47C505.42,-273.72 508.5,-221.83 490.4,-190.19"/>
<polygon fill="gray" stroke="gray" points="493.52,-188.56 484.96,-182.32 487.77,-192.54 493.52,-188.56"/>
</g>
<!-- SELECT_05_output_0 -->
<g id="node48" class="node">
<title>SELECT_05_output_0</title>
<ellipse fill="black" stroke="black" cx="346" cy="-245.9" rx="1.8" ry="1.8"/>
</g>
<!-- SELECT_05&#45;&gt;SELECT_05_output_0 -->
<g id="edge81" class="edge">
<title>SELECT_05&#45;&gt;SELECT_05_output_0</title>
<path fill="none" stroke="black" d="M414.79,-298.11C398.32,-290.15 378.67,-279.31 363,-266.7 355.38,-260.57 348.51,-250.69 346.56,-247.75"/>
</g>
<!-- PROOF_REFUTED -->
<g id="node32" class="node">
<title>PROOF_REFUTED</title>
<polygon fill="none" stroke="blue" points="480.38,-41 409.62,-41 409.62,0 486.38,0 486.38,-35 480.38,-41"/>
<polyline fill="none" stroke="blue" points="480.38,-41 480.38,-35"/>
<polyline fill="none" stroke="blue" points="486.38,-35 480.38,-35"/>
<text text-anchor="middle" x="448" y="-23.7" font-family="Times,serif" font-size="14.00">PROOF</text>
<text text-anchor="middle" x="448" y="-7.2" font-family="Times,serif" font-size="14.00">REFUTED</text>
</g>
<!-- ARGUMENT&#45;&gt;PROOF_REFUTED -->
<!-- ARGUMENT_output_0 -->
<g id="node49" class="node">
<title>ARGUMENT_output_0</title>
<ellipse fill="black" stroke="black" cx="418" cy="-95.3" rx="1.8" ry="1.8"/>
</g>
<!-- ARGUMENT&#45;&gt;ARGUMENT_output_0 -->
<g id="edge92" class="edge">
<title>ARGUMENT&#45;&gt;ARGUMENT_output_0</title>
<path fill="none" stroke="black" d="M440.12,-144.63C432.06,-127.03 420.44,-101.64 418.33,-97.03"/>
</g>
<!-- ARGUMENT_UNCONTESTED -->
<g id="node33" class="node">
<title>ARGUMENT_UNCONTESTED</title>
<polygon fill="none" stroke="green" points="218.12,-41 109.88,-41 109.88,0 224.12,0 224.12,-35 218.12,-41"/>
<polyline fill="none" stroke="green" points="218.12,-41 218.12,-35"/>
<polyline fill="none" stroke="green" points="224.12,-35 218.12,-35"/>
<text text-anchor="middle" x="167" y="-23.7" font-family="Times,serif" font-size="14.00">ARGUMENT</text>
<text text-anchor="middle" x="167" y="-7.2" font-family="Times,serif" font-size="14.00">UNCONTESTED</text>
</g>
<!-- LOCKED_FUNDS_output_0&#45;&gt;PROOF_UNCONTESTED -->
<g id="edge26" class="edge">
<title>LOCKED_FUNDS_output_0&#45;&gt;PROOF_UNCONTESTED</title>
<path fill="none" stroke="magenta" d="M153.74,-2124.62C163.73,-2123.5 214.32,-2116.64 242,-2089.8 273.02,-2059.71 256.45,-2036.54 280,-2000.3 281.99,-1997.24 284.24,-1994.2 286.62,-1991.24"/>
<polygon fill="magenta" stroke="magenta" points="289.09,-1993.73 293,-1983.88 283.8,-1989.15 289.09,-1993.73"/>
</g>
<!-- LOCKED_FUNDS_output_0&#45;&gt;STATE_UNCONTESTED_00 -->
<g id="edge27" class="edge">
<title>LOCKED_FUNDS_output_0&#45;&gt;STATE_UNCONTESTED_00</title>
<path fill="none" stroke="magenta" d="M153.59,-2124.25C164.5,-2120.38 228,-2096.05 228,-2053.8 228,-2053.8 228,-2053.8 228,-1901.5 228,-1885.99 234.59,-1870.85 242.88,-1857.94"/>
<polygon fill="magenta" stroke="magenta" points="245.73,-1859.96 248.6,-1849.76 240,-1855.94 245.73,-1859.96"/>
</g>
<!-- LOCKED_FUNDS_output_0&#45;&gt;STATE_UNCONTESTED_01 -->
<g id="edge28" class="edge">
<title>LOCKED_FUNDS_output_0&#45;&gt;STATE_UNCONTESTED_01</title>
<path fill="none" stroke="magenta" d="M152.94,-2123.9C158.79,-2118.19 190,-2086.24 190,-2053.8 190,-2053.8 190,-2053.8 190,-1600.3 190,-1582.12 200.3,-1566.82 213.78,-1554.57"/>
<polygon fill="magenta" stroke="magenta" points="215.87,-1557.38 221.35,-1548.31 211.41,-1551.99 215.87,-1557.38"/>
</g>
<!-- LOCKED_FUNDS_output_0&#45;&gt;STATE_UNCONTESTED_02 -->
<g id="edge29" class="edge">
<title>LOCKED_FUNDS_output_0&#45;&gt;STATE_UNCONTESTED_02</title>
<path fill="none" stroke="magenta" d="M152,-2123.8C152,-2117.47 152,-2082.4 152,-2053.8 152,-2053.8 152,-2053.8 152,-1299.1 152,-1268.29 179.15,-1248.57 208.04,-1236.3"/>
<polygon fill="magenta" stroke="magenta" points="209.28,-1239.58 217.31,-1232.67 206.72,-1233.06 209.28,-1239.58"/>
</g>
<!-- LOCKED_FUNDS_output_0&#45;&gt;STATE_UNCONTESTED_03 -->
<g id="edge30" class="edge">
<title>LOCKED_FUNDS_output_0&#45;&gt;STATE_UNCONTESTED_03</title>
<path fill="none" stroke="magenta" d="M151.06,-2123.9C145.21,-2118.19 114,-2086.24 114,-2053.8 114,-2053.8 114,-2053.8 114,-997.9 114,-953.54 163.18,-933.46 207.34,-924.37"/>
<polygon fill="magenta" stroke="magenta" points="207.76,-927.85 216.94,-922.57 206.47,-920.97 207.76,-927.85"/>
</g>
<!-- LOCKED_FUNDS_output_0&#45;&gt;STATE_UNCONTESTED_04 -->
<g id="edge31" class="edge">
<title>LOCKED_FUNDS_output_0&#45;&gt;STATE_UNCONTESTED_04</title>
<path fill="none" stroke="magenta" d="M150.41,-2124.25C139.5,-2120.38 76,-2096.05 76,-2053.8 76,-2053.8 76,-2053.8 76,-696.7 76,-638.66 149.24,-621.18 207.08,-616.43"/>
<polygon fill="magenta" stroke="magenta" points="207.18,-619.94 216.91,-615.75 206.69,-612.95 207.18,-619.94"/>
</g>
<!-- LOCKED_FUNDS_output_0&#45;&gt;STATE_UNCONTESTED_05 -->
<g id="edge32" class="edge">
<title>LOCKED_FUNDS_output_0&#45;&gt;STATE_UNCONTESTED_05</title>
<path fill="none" stroke="magenta" d="M150.39,-2124.62C136.53,-2122.97 38,-2109.29 38,-2053.8 38,-2053.8 38,-2053.8 38,-395.5 38,-359.45 137.07,-336.18 207.37,-324.21"/>
<polygon fill="magenta" stroke="magenta" points="207.6,-327.72 216.89,-322.63 206.46,-320.81 207.6,-327.72"/>
</g>
<!-- LOCKED_FUNDS_output_0&#45;&gt;ARGUMENT_UNCONTESTED -->
<g id="edge33" class="edge">
<title>LOCKED_FUNDS_output_0&#45;&gt;ARGUMENT_UNCONTESTED</title>
<path fill="none" stroke="magenta" d="M150.29,-2124.82C133.59,-2124.94 0,-2123.7 0,-2053.8 0,-2053.8 0,-2053.8 0,-94.3 0,-49.01 52.25,-31.61 98.3,-25.07"/>
<polygon fill="magenta" stroke="magenta" points="98.54,-28.56 108.03,-23.85 97.67,-21.62 98.54,-28.56"/>
</g>
<!-- PROOF_output_0&#45;&gt;PROOF_UNCONTESTED -->
<g id="edge36" class="edge">
<title>PROOF_output_0&#45;&gt;PROOF_UNCONTESTED</title>
<path fill="none" stroke="green" stroke-dasharray="5,2" d="M476.45,-2051.22C468.22,-2048.12 428.94,-2033.07 398.75,-2016.8 383.28,-2008.46 366.91,-1998.24 352.78,-1988.95"/>
<polygon fill="green" stroke="green" points="354.91,-1986.16 344.65,-1983.53 351.03,-1991.99 354.91,-1986.16"/>
<text text-anchor="middle" x="428.38" y="-2003.5" font-family="Times,serif" font-size="14.00">180 blocks</text>
</g>
<!-- PROOF_output_0&#45;&gt;CHALLENGE_UNCONTESTED -->
<g id="edge37" class="edge">
<title>PROOF_output_0&#45;&gt;CHALLENGE_UNCONTESTED</title>
<path fill="none" stroke="blue" stroke-dasharray="5,2" d="M478.55,-2050.85C480.1,-2048.22 484.62,-2040.65 489,-2034.8 500.16,-2019.89 513.55,-2004.12 525.01,-1991.15"/>
<polygon fill="blue" stroke="blue" points="527.53,-1993.59 531.59,-1983.8 522.31,-1988.92 527.53,-1993.59"/>
<text text-anchor="middle" x="546.5" y="-2003.5" font-family="Times,serif" font-size="14.00">360 blocks</text>
</g>
<!-- PROOF_output_0&#45;&gt;STATE_00 -->
<g id="edge38" class="edge">
<title>PROOF_output_0&#45;&gt;STATE_00</title>
<path fill="none" stroke="green" d="M477.79,-2051.07C476.46,-2046.45 469.02,-2020.85 462,-2000.3 461.23,-1998.04 460.41,-1995.71 459.57,-1993.37"/>
<polygon fill="green" stroke="green" points="462.87,-1992.18 456.14,-1984 456.29,-1994.59 462.87,-1992.18"/>
</g>
<!-- PROOF_output_1&#45;&gt;PROOF_UNCONTESTED -->
<g id="edge40" class="edge">
<title>PROOF_output_1&#45;&gt;PROOF_UNCONTESTED</title>
<path fill="none" stroke="gray" d="M416.24,-2051.66C406.16,-2050.77 355.26,-2044.94 330,-2016.8 324.24,-2010.38 320.66,-2001.93 318.46,-1993.62"/>
<polygon fill="gray" stroke="gray" points="321.94,-1993.18 316.52,-1984.07 315.08,-1994.57 321.94,-1993.18"/>
</g>
<!-- PROOF_output_1&#45;&gt;STATE_00 -->
<g id="edge41" class="edge">
<title>PROOF_output_1&#45;&gt;STATE_00</title>
<path fill="none" stroke="gray" d="M418.42,-2050.54C420.53,-2044.3 430.06,-2016.01 437.75,-1993.22"/>
<polygon fill="gray" stroke="gray" points="440.97,-1994.62 440.84,-1984.03 434.33,-1992.39 440.97,-1994.62"/>
</g>
<!-- STATE_00_output_0&#45;&gt;STATE_UNCONTESTED_00 -->
<g id="edge44" class="edge">
<title>STATE_00_output_0&#45;&gt;STATE_UNCONTESTED_00</title>
<path fill="none" stroke="green" stroke-dasharray="5,2" d="M479.69,-1900.98C469.3,-1896.87 399.07,-1869.11 343.94,-1847.31"/>
<polygon fill="green" stroke="green" points="345.49,-1844.16 334.9,-1843.74 342.91,-1850.67 345.49,-1844.16"/>
<text text-anchor="middle" x="461.08" y="-1869.4" font-family="Times,serif" font-size="14.00">180 blocks</text>
</g>
<!-- STATE_00_output_0&#45;&gt;SELECT_00 -->
<g id="edge45" class="edge">
<title>STATE_00_output_0&#45;&gt;SELECT_00</title>
<path fill="none" stroke="blue" d="M482.9,-1901.62C491.44,-1902.02 526.52,-1902.41 541,-1882.7 545.34,-1876.79 544.88,-1872.43 541,-1866.2 530.11,-1848.71 510.35,-1837.71 491.84,-1830.9"/>
<polygon fill="blue" stroke="blue" points="493.19,-1827.66 482.6,-1827.83 490.98,-1834.3 493.19,-1827.66"/>
</g>
<!-- SELECT_00_output_0&#45;&gt;SELECT_UNCONTESTED_00 -->
<g id="edge47" class="edge">
<title>SELECT_00_output_0&#45;&gt;SELECT_UNCONTESTED_00</title>
<path fill="none" stroke="blue" stroke-dasharray="5,2" d="M551,-1749.75C551,-1745.11 551,-1727.12 551,-1709.37"/>
<polygon fill="blue" stroke="blue" points="554.5,-1709.41 551,-1699.41 547.5,-1709.41 554.5,-1709.41"/>
<text text-anchor="middle" x="580.62" y="-1718.8" font-family="Times,serif" font-size="14.00">180 blocks</text>
</g>
<!-- SELECT_00_output_0&#45;&gt;STATE_01 -->
<g id="edge48" class="edge">
<title>SELECT_00_output_0&#45;&gt;STATE_01</title>
<path fill="none" stroke="green" d="M549.84,-1749.99C543.17,-1744.74 508.96,-1717.82 482.01,-1696.61"/>
<polygon fill="green" stroke="green" points="484.41,-1694.05 474.39,-1690.61 480.08,-1699.55 484.41,-1694.05"/>
</g>
<!-- STATE_01_output_0&#45;&gt;STATE_UNCONTESTED_01 -->
<g id="edge51" class="edge">
<title>STATE_01_output_0&#45;&gt;STATE_UNCONTESTED_01</title>
<path fill="none" stroke="green" stroke-dasharray="5,2" d="M416.54,-1599.99C409.94,-1598.53 382.26,-1592.05 361.75,-1581.5 346.86,-1573.84 331.73,-1563.76 318.4,-1553.95"/>
<polygon fill="green" stroke="green" points="320.78,-1551.37 310.69,-1548.14 316.57,-1556.96 320.78,-1551.37"/>
<text text-anchor="middle" x="391.38" y="-1568.2" font-family="Times,serif" font-size="14.00">180 blocks</text>
</g>
<!-- STATE_01_output_0&#45;&gt;SELECT_01 -->
<g id="edge52" class="edge">
<title>STATE_01_output_0&#45;&gt;SELECT_01</title>
<path fill="none" stroke="blue" d="M418.42,-1599.15C420.43,-1593.73 429.19,-1570.07 436.66,-1549.89"/>
<polygon fill="blue" stroke="blue" points="439.91,-1551.19 440.1,-1540.6 433.34,-1548.76 439.91,-1551.19"/>
</g>
<!-- SELECT_01_output_0&#45;&gt;SELECT_UNCONTESTED_01 -->
<g id="edge54" class="edge">
<title>SELECT_01_output_0&#45;&gt;SELECT_UNCONTESTED_01</title>
<path fill="none" stroke="blue" stroke-dasharray="5,2" d="M487.72,-1448.79C491.23,-1444.35 507,-1424.38 521.91,-1405.48"/>
<polygon fill="blue" stroke="blue" points="524.5,-1407.86 527.95,-1397.84 519,-1403.52 524.5,-1407.86"/>
<text text-anchor="middle" x="542.89" y="-1417.6" font-family="Times,serif" font-size="14.00">180 blocks</text>
</g>
<!-- SELECT_01_output_0&#45;&gt;STATE_02 -->
<g id="edge55" class="edge">
<title>SELECT_01_output_0&#45;&gt;STATE_02</title>
<path fill="none" stroke="green" d="M486.45,-1448.55C483.82,-1443.08 472.24,-1419.03 462.48,-1398.73"/>
<polygon fill="green" stroke="green" points="465.74,-1397.43 458.25,-1389.94 459.43,-1400.47 465.74,-1397.43"/>
</g>
<!-- STATE_02_output_0&#45;&gt;STATE_UNCONTESTED_02 -->
<g id="edge58" class="edge">
<title>STATE_02_output_0&#45;&gt;STATE_UNCONTESTED_02</title>
<path fill="none" stroke="green" stroke-dasharray="5,2" d="M416.54,-1298.79C409.94,-1297.33 382.26,-1290.85 361.75,-1280.3 346.86,-1272.64 331.73,-1262.56 318.4,-1252.75"/>
<polygon fill="green" stroke="green" points="320.78,-1250.17 310.69,-1246.94 316.57,-1255.76 320.78,-1250.17"/>
<text text-anchor="middle" x="391.38" y="-1267" font-family="Times,serif" font-size="14.00">180 blocks</text>
</g>
<!-- STATE_02_output_0&#45;&gt;SELECT_02 -->
<g id="edge59" class="edge">
<title>STATE_02_output_0&#45;&gt;SELECT_02</title>
<path fill="none" stroke="blue" d="M418.42,-1297.95C420.43,-1292.53 429.19,-1268.87 436.66,-1248.69"/>
<polygon fill="blue" stroke="blue" points="439.91,-1249.99 440.1,-1239.4 433.34,-1247.56 439.91,-1249.99"/>
</g>
<!-- SELECT_02_output_0&#45;&gt;SELECT_UNCONTESTED_02 -->
<g id="edge61" class="edge">
<title>SELECT_02_output_0&#45;&gt;SELECT_UNCONTESTED_02</title>
<path fill="none" stroke="blue" stroke-dasharray="5,2" d="M366.34,-1147.78C373.48,-1143.94 407.69,-1125.73 436.75,-1113.2 454.98,-1105.34 461.88,-1103.92 482.78,-1095.97"/>
<polygon fill="blue" stroke="blue" points="484.01,-1099.25 492.05,-1092.35 481.47,-1092.72 484.01,-1099.25"/>
<text text-anchor="middle" x="466.38" y="-1116.4" font-family="Times,serif" font-size="14.00">180 blocks</text>
</g>
<!-- SELECT_02_output_0&#45;&gt;STATE_03 -->
<g id="edge62" class="edge">
<title>SELECT_02_output_0&#45;&gt;STATE_03</title>
<path fill="none" stroke="green" d="M363.64,-1147.7C359.94,-1145.45 349.72,-1138.61 346,-1129.7 343.18,-1122.93 342.01,-1119.36 346,-1113.2 359.81,-1091.88 386.16,-1080.4 408.62,-1074.27"/>
<polygon fill="green" stroke="green" points="409.23,-1077.73 418.12,-1071.96 407.57,-1070.92 409.23,-1077.73"/>
</g>
<!-- STATE_03_output_0&#45;&gt;STATE_UNCONTESTED_03 -->
<g id="edge65" class="edge">
<title>STATE_03_output_0&#45;&gt;STATE_UNCONTESTED_03</title>
<path fill="none" stroke="green" stroke-dasharray="5,2" d="M416.54,-997.59C409.94,-996.13 382.26,-989.65 361.75,-979.1 346.86,-971.44 331.73,-961.36 318.4,-951.55"/>
<polygon fill="green" stroke="green" points="320.78,-948.97 310.69,-945.74 316.57,-954.56 320.78,-948.97"/>
<text text-anchor="middle" x="391.38" y="-965.8" font-family="Times,serif" font-size="14.00">180 blocks</text>
</g>
<!-- STATE_03_output_0&#45;&gt;SELECT_03 -->
<g id="edge66" class="edge">
<title>STATE_03_output_0&#45;&gt;SELECT_03</title>
<path fill="none" stroke="blue" d="M418.42,-996.75C420.43,-991.33 429.19,-967.67 436.66,-947.49"/>
<polygon fill="blue" stroke="blue" points="439.91,-948.79 440.1,-938.2 433.34,-946.36 439.91,-948.79"/>
</g>
<!-- SELECT_03_output_0&#45;&gt;SELECT_UNCONTESTED_03 -->
<g id="edge68" class="edge">
<title>SELECT_03_output_0&#45;&gt;SELECT_UNCONTESTED_03</title>
<path fill="none" stroke="blue" stroke-dasharray="5,2" d="M487.72,-846.39C491.23,-841.95 507,-821.98 521.91,-803.08"/>
<polygon fill="blue" stroke="blue" points="524.5,-805.46 527.95,-795.44 519,-801.12 524.5,-805.46"/>
<text text-anchor="middle" x="542.89" y="-815.2" font-family="Times,serif" font-size="14.00">180 blocks</text>
</g>
<!-- SELECT_03_output_0&#45;&gt;STATE_04 -->
<g id="edge69" class="edge">
<title>SELECT_03_output_0&#45;&gt;STATE_04</title>
<path fill="none" stroke="green" d="M486.45,-846.15C483.82,-840.68 472.24,-816.63 462.48,-796.33"/>
<polygon fill="green" stroke="green" points="465.74,-795.03 458.25,-787.54 459.43,-798.07 465.74,-795.03"/>
</g>
<!-- STATE_04_output_0&#45;&gt;STATE_UNCONTESTED_04 -->
<g id="edge72" class="edge">
<title>STATE_04_output_0&#45;&gt;STATE_UNCONTESTED_04</title>
<path fill="none" stroke="green" stroke-dasharray="5,2" d="M416.54,-696.39C409.94,-694.93 382.26,-688.45 361.75,-677.9 346.86,-670.24 331.73,-660.16 318.4,-650.35"/>
<polygon fill="green" stroke="green" points="320.78,-647.77 310.69,-644.54 316.57,-653.36 320.78,-647.77"/>
<text text-anchor="middle" x="391.38" y="-664.6" font-family="Times,serif" font-size="14.00">180 blocks</text>
</g>
<!-- STATE_04_output_0&#45;&gt;SELECT_04 -->
<g id="edge73" class="edge">
<title>STATE_04_output_0&#45;&gt;SELECT_04</title>
<path fill="none" stroke="blue" d="M418.42,-695.55C420.43,-690.13 429.19,-666.47 436.66,-646.29"/>
<polygon fill="blue" stroke="blue" points="439.91,-647.59 440.1,-637 433.34,-645.16 439.91,-647.59"/>
</g>
<!-- SELECT_04_output_0&#45;&gt;SELECT_UNCONTESTED_04 -->
<g id="edge75" class="edge">
<title>SELECT_04_output_0&#45;&gt;SELECT_UNCONTESTED_04</title>
<path fill="none" stroke="blue" stroke-dasharray="5,2" d="M365.64,-545.5C369.71,-541.73 392.46,-521.13 414.75,-510.8 441.14,-498.57 452.23,-502.12 482.91,-493.16"/>
<polygon fill="blue" stroke="blue" points="483.68,-496.58 492.16,-490.23 481.57,-489.91 483.68,-496.58"/>
<text text-anchor="middle" x="444.38" y="-514" font-family="Times,serif" font-size="14.00">180 blocks</text>
</g>
<!-- SELECT_04_output_0&#45;&gt;STATE_05 -->
<g id="edge76" class="edge">
<title>SELECT_04_output_0&#45;&gt;STATE_05</title>
<path fill="none" stroke="green" d="M363.64,-545.3C359.94,-543.05 349.72,-536.21 346,-527.3 343.18,-520.53 342.01,-516.96 346,-510.8 359.81,-489.48 386.16,-478 408.62,-471.87"/>
<polygon fill="green" stroke="green" points="409.23,-475.33 418.12,-469.56 407.57,-468.52 409.23,-475.33"/>
</g>
<!-- STATE_05_output_0&#45;&gt;STATE_UNCONTESTED_05 -->
<g id="edge79" class="edge">
<title>STATE_05_output_0&#45;&gt;STATE_UNCONTESTED_05</title>
<path fill="none" stroke="green" stroke-dasharray="5,2" d="M378.4,-395.34C371.17,-394.57 341.06,-390.62 321.75,-376.7 312.54,-370.06 304.43,-361.01 297.68,-351.87"/>
<polygon fill="green" stroke="green" points="300.58,-349.91 292.02,-343.65 294.81,-353.88 300.58,-349.91"/>
<text text-anchor="middle" x="351.38" y="-363.4" font-family="Times,serif" font-size="14.00">180 blocks</text>
</g>
<!-- STATE_05_output_0&#45;&gt;SELECT_05 -->
<g id="edge80" class="edge">
<title>STATE_05_output_0&#45;&gt;SELECT_05</title>
<path fill="none" stroke="blue" d="M380.76,-394.59C385.05,-389.48 406.59,-363.81 424.15,-342.88"/>
<polygon fill="blue" stroke="blue" points="426.65,-345.35 430.39,-335.44 421.28,-340.85 426.65,-345.35"/>
</g>
<!-- SELECT_05_output_0&#45;&gt;SELECT_UNCONTESTED_05 -->
<g id="edge82" class="edge">
<title>SELECT_05_output_0&#45;&gt;SELECT_UNCONTESTED_05</title>
<path fill="none" stroke="blue" stroke-dasharray="5,2" d="M343.86,-245.11C334.21,-245.94 294.56,-247.9 277.75,-226.1 272.77,-219.64 270.66,-211.59 270.16,-203.43"/>
<polygon fill="blue" stroke="blue" points="273.66,-203.58 270.37,-193.51 266.66,-203.44 273.66,-203.58"/>
<text text-anchor="middle" x="307.38" y="-212.8" font-family="Times,serif" font-size="14.00">180 blocks</text>
</g>
<!-- SELECT_05_output_0&#45;&gt;ARGUMENT -->
<g id="edge83" class="edge">
<title>SELECT_05_output_0&#45;&gt;ARGUMENT</title>
<path fill="none" stroke="green" d="M346.38,-243.65C347.94,-238.73 354.23,-220.48 365,-209.6 373.77,-200.74 384.63,-193.11 395.56,-186.77"/>
<polygon fill="green" stroke="green" points="397.14,-189.89 404.24,-182.03 393.79,-183.75 397.14,-189.89"/>
</g>
<!-- ARGUMENT_output_0&#45;&gt;PROOF_REFUTED -->
<g id="edge93" class="edge">
<title>ARGUMENT_output_0&#45;&gt;PROOF_REFUTED</title>
<path fill="none" stroke="blue" d="M418.42,-93.27C420.33,-88.63 428.37,-69.15 435.58,-51.65"/>
<polygon fill="blue" stroke="blue" points="438.75,-53.14 439.32,-42.56 432.28,-50.47 438.75,-53.14"/>
</g>
<!-- ARGUMENT_output_0&#45;&gt;ARGUMENT_UNCONTESTED -->
<g id="edge94" class="edge">
<title>ARGUMENT_output_0&#45;&gt;ARGUMENT_UNCONTESTED</title>
<path fill="none" stroke="green" stroke-dasharray="5,2" d="M416.4,-93.84C402.7,-89.86 304.23,-61.3 235.2,-41.28"/>
<polygon fill="green" stroke="green" points="236.43,-37.99 225.85,-38.57 234.48,-44.71 236.43,-37.99"/>
<text text-anchor="middle" x="380.31" y="-62.2" font-family="Times,serif" font-size="14.00">180 blocks</text>
</g>
</g>
</svg>
