<?xml version="1.0" encoding="UTF-8" standalone="no"?>
<!DOCTYPE svg PUBLIC "-//W3C//DTD SVG 1.1//EN"
 "http://www.w3.org/Graphics/SVG/1.1/DTD/svg11.dtd">
<!-- Generated by graphviz version 2.42.4 (0)
 -->
<!-- Title: BitSnark Pages: 1 -->
<svg width="745pt" height="758pt"
 viewBox="0.00 0.00 745.00 758.14" xmlns="http://www.w3.org/2000/svg" xmlns:xlink="http://www.w3.org/1999/xlink">
<g id="graph0" class="graph" transform="scale(1 1) rotate(0) translate(4 754.14)">
<title>BitSnark</title>
<polygon fill="white" stroke="transparent" points="-4,4 -4,-754.14 741,-754.14 741,4 -4,4"/>
<!-- LOCKED_FUNDS -->
<g id="node1" class="node">
<title>LOCKED_FUNDS</title>
<ellipse fill="none" stroke="magenta" cx="58" cy="-723.27" rx="56.64" ry="26.74"/>
<text text-anchor="middle" x="58" y="-727.07" font-family="Times,serif" font-size="14.00">LOCKED</text>
<text text-anchor="middle" x="58" y="-712.07" font-family="Times,serif" font-size="14.00">FUNDS</text>
</g>
<!-- PROOF_UNCONTESTED -->
<g id="node5" class="node">
<title>PROOF_UNCONTESTED</title>
<polygon fill="none" stroke="green" points="194,-531.8 66,-531.8 66,-493.8 200,-493.8 200,-525.8 194,-531.8"/>
<polyline fill="none" stroke="green" points="194,-531.8 194,-525.8 "/>
<polyline fill="none" stroke="green" points="200,-525.8 194,-525.8 "/>
<text text-anchor="middle" x="133" y="-516.6" font-family="Times,serif" font-size="14.00">PROOF</text>
<text text-anchor="middle" x="133" y="-501.6" font-family="Times,serif" font-size="14.00">UNCONTESTED</text>
</g>
<!-- LOCKED_FUNDS&#45;&gt;PROOF_UNCONTESTED -->
<!-- LOCKED_FUNDS_output_0 -->
<g id="node15" class="node">
<title>LOCKED_FUNDS_output_0</title>
<ellipse fill="black" stroke="black" cx="58" cy="-641.4" rx="1.8" ry="1.8"/>
</g>
<!-- LOCKED_FUNDS&#45;&gt;LOCKED_FUNDS_output_0 -->
<g id="edge6" class="edge">
<title>LOCKED_FUNDS&#45;&gt;LOCKED_FUNDS_output_0</title>
<path fill="none" stroke="magenta" d="M58,-696.12C58,-675.74 58,-649.89 58,-643.75"/>
</g>
<!-- PROVER_STAKE -->
<g id="node2" class="node">
<title>PROVER_STAKE</title>
<ellipse fill="none" stroke="green" cx="532" cy="-723.27" rx="55.72" ry="26.74"/>
<text text-anchor="middle" x="532" y="-727.07" font-family="Times,serif" font-size="14.00">PROVER</text>
<text text-anchor="middle" x="532" y="-712.07" font-family="Times,serif" font-size="14.00">STAKE</text>
</g>
<!-- PROOF -->
<g id="node3" class="node">
<title>PROOF</title>
<polygon fill="none" stroke="green" points="566.5,-659.4 497.5,-659.4 497.5,-623.4 566.5,-623.4 566.5,-659.4"/>
<text text-anchor="middle" x="532" y="-637.7" font-family="Times,serif" font-size="14.00">PROOF</text>
</g>
<!-- PROVER_STAKE&#45;&gt;PROOF -->
<g id="edge10" class="edge">
<title>PROVER_STAKE&#45;&gt;PROOF</title>
<path fill="none" stroke="green" d="M532,-696.12C532,-687.67 532,-678.29 532,-669.76"/>
<polygon fill="green" stroke="green" points="535.5,-669.55 532,-659.55 528.5,-669.55 535.5,-669.55"/>
</g>
<!-- STATE_00 -->
<g id="node7" class="node">
<title>STATE_00</title>
<polygon fill="none" stroke="green" points="563.5,-531.8 500.5,-531.8 500.5,-493.8 563.5,-493.8 563.5,-531.8"/>
<text text-anchor="middle" x="532" y="-516.6" font-family="Times,serif" font-size="14.00">STATE</text>
<text text-anchor="middle" x="532" y="-501.6" font-family="Times,serif" font-size="14.00">00</text>
</g>
<!-- PROOF&#45;&gt;STATE_00 -->
<!-- PROOF_output_0 -->
<g id="node16" class="node">
<title>PROOF_output_0</title>
<ellipse fill="black" stroke="black" cx="459" cy="-584.6" rx="1.8" ry="1.8"/>
</g>
<!-- PROOF&#45;&gt;PROOF_output_0 -->
<g id="edge11" class="edge">
<title>PROOF&#45;&gt;PROOF_output_0</title>
<path fill="none" stroke="black" d="M509.3,-623.36C490.55,-609.29 466.1,-590.93 460.28,-586.56"/>
</g>
<!-- PROOF_output_1 -->
<g id="node17" class="node">
<title>PROOF_output_1</title>
<ellipse fill="black" stroke="black" cx="274" cy="-584.6" rx="1.8" ry="1.8"/>
</g>
<!-- PROOF&#45;&gt;PROOF_output_1 -->
<g id="edge15" class="edge">
<title>PROOF&#45;&gt;PROOF_output_1</title>
<path fill="none" stroke="gray" d="M497.47,-633.07C431.01,-618.95 290.51,-589.11 275.34,-585.88"/>
</g>
<!-- CHALLENGE -->
<g id="node4" class="node">
<title>CHALLENGE</title>
<polygon fill="none" stroke="blue" points="323.5,-530.8 218.5,-530.8 218.5,-494.8 329.5,-494.8 329.5,-524.8 323.5,-530.8"/>
<polyline fill="none" stroke="blue" points="323.5,-530.8 323.5,-524.8 "/>
<polyline fill="none" stroke="blue" points="329.5,-524.8 323.5,-524.8 "/>
<text text-anchor="middle" x="274" y="-509.1" font-family="Times,serif" font-size="14.00">CHALLENGE</text>
</g>
<!-- CHALLENGE_UNCONTESTED -->
<g id="node6" class="node">
<title>CHALLENGE_UNCONTESTED</title>
<polygon fill="none" stroke="blue" points="476,-531.8 348,-531.8 348,-493.8 482,-493.8 482,-525.8 476,-531.8"/>
<polyline fill="none" stroke="blue" points="476,-531.8 476,-525.8 "/>
<polyline fill="none" stroke="blue" points="482,-525.8 476,-525.8 "/>
<text text-anchor="middle" x="415" y="-516.6" font-family="Times,serif" font-size="14.00">CHALLENGE</text>
<text text-anchor="middle" x="415" y="-501.6" font-family="Times,serif" font-size="14.00">UNCONTESTED</text>
</g>
<!-- Dissection -->
<g id="node9" class="node">
<title>Dissection</title>
<polygon fill="none" stroke="black" points="596.03,-368.24 596.03,-383.16 558.52,-393.7 505.48,-393.7 467.97,-383.16 467.97,-368.24 505.48,-357.7 558.52,-357.7 596.03,-368.24"/>
<polygon fill="none" stroke="black" points="600.03,-365.21 600.03,-386.19 559.08,-397.7 504.92,-397.7 463.97,-386.19 463.97,-365.21 504.92,-353.7 559.08,-353.7 600.03,-365.21"/>
<polygon fill="none" stroke="black" points="604.04,-362.18 604.04,-389.22 559.63,-401.7 504.37,-401.7 459.96,-389.22 459.96,-362.18 504.37,-349.7 559.63,-349.7 604.04,-362.18"/>
<text text-anchor="middle" x="532" y="-372" font-family="Times,serif" font-size="14.00">Dissection</text>
</g>
<!-- STATE_00&#45;&gt;Dissection -->
<!-- STATE_00_output_0 -->
<g id="node18" class="node">
<title>STATE_00_output_0</title>
<ellipse fill="black" stroke="black" cx="502" cy="-455" rx="1.8" ry="1.8"/>
</g>
<!-- STATE_00&#45;&gt;STATE_00_output_0 -->
<g id="edge18" class="edge">
<title>STATE_00&#45;&gt;STATE_00_output_0</title>
<path fill="none" stroke="black" d="M522.18,-493.53C514.52,-479.29 504.82,-461.24 502.51,-456.95"/>
</g>
<!-- STATE_UNCONTESTED_00 -->
<g id="node8" class="node">
<title>STATE_UNCONTESTED_00</title>
<polygon fill="none" stroke="green" points="296,-402.2 168,-402.2 168,-349.2 302,-349.2 302,-396.2 296,-402.2"/>
<polyline fill="none" stroke="green" points="296,-402.2 296,-396.2 "/>
<polyline fill="none" stroke="green" points="302,-396.2 296,-396.2 "/>
<text text-anchor="middle" x="235" y="-387" font-family="Times,serif" font-size="14.00">STATE</text>
<text text-anchor="middle" x="235" y="-372" font-family="Times,serif" font-size="14.00">UNCONTESTED</text>
<text text-anchor="middle" x="235" y="-357" font-family="Times,serif" font-size="14.00">00</text>
</g>
<!-- SELECT_05 -->
<g id="node10" class="node">
<title>SELECT_05</title>
<polygon fill="none" stroke="blue" points="570,-312.2 494,-312.2 494,-274.2 570,-274.2 570,-312.2"/>
<text text-anchor="middle" x="532" y="-297" font-family="Times,serif" font-size="14.00">SELECT</text>
<text text-anchor="middle" x="532" y="-282" font-family="Times,serif" font-size="14.00">05</text>
</g>
<!-- Dissection&#45;&gt;SELECT_05 -->
<!-- Dissection&#45;&gt;SELECT_05 -->
<g id="edge21" class="edge">
<title>Dissection&#45;&gt;SELECT_05</title>
<path fill="none" stroke="green" d="M538.3,-349.67C538.83,-341.07 538.89,-331.39 538.48,-322.55"/>
<polygon fill="green" stroke="green" points="541.95,-322.03 537.75,-312.31 534.97,-322.54 541.95,-322.03"/>
</g>
<!-- ARGUMENT -->
<g id="node12" class="node">
<title>ARGUMENT</title>
<polygon fill="none" stroke="green" points="585,-174.1 479,-174.1 479,-138.1 585,-138.1 585,-174.1"/>
<text text-anchor="middle" x="532" y="-152.4" font-family="Times,serif" font-size="14.00">ARGUMENT</text>
</g>
<!-- SELECT_05&#45;&gt;ARGUMENT -->
<!-- SELECT_05&#45;&gt;ARGUMENT -->
<g id="edge25" class="edge">
<title>SELECT_05&#45;&gt;ARGUMENT</title>
<path fill="none" stroke="gray" d="M517.63,-273.98C510.6,-250.84 509.87,-210.7 515.44,-184.02"/>
<polygon fill="gray" stroke="gray" points="518.87,-184.74 517.99,-174.18 512.09,-182.98 518.87,-184.74"/>
</g>
<!-- SELECT_05&#45;&gt;ARGUMENT -->
<g id="edge26" class="edge">
<title>SELECT_05&#45;&gt;ARGUMENT</title>
<path fill="none" stroke="gray" d="M527.21,-273.98C524.88,-250.94 524.63,-211.06 526.46,-184.38"/>
<polygon fill="gray" stroke="gray" points="529.96,-184.44 527.33,-174.18 522.99,-183.84 529.96,-184.44"/>
</g>
<!-- SELECT_05&#45;&gt;ARGUMENT -->
<g id="edge27" class="edge">
<title>SELECT_05&#45;&gt;ARGUMENT</title>
<path fill="none" stroke="gray" d="M536.79,-273.98C539.12,-250.94 539.37,-211.06 537.54,-184.38"/>
<polygon fill="gray" stroke="gray" points="541.01,-183.84 536.67,-174.18 534.04,-184.44 541.01,-183.84"/>
</g>
<!-- SELECT_05&#45;&gt;ARGUMENT -->
<g id="edge28" class="edge">
<title>SELECT_05&#45;&gt;ARGUMENT</title>
<path fill="none" stroke="gray" d="M546.37,-273.98C553.4,-250.84 554.13,-210.7 548.56,-184.02"/>
<polygon fill="gray" stroke="gray" points="551.91,-182.98 546.01,-174.18 545.13,-184.74 551.91,-182.98"/>
</g>
<!-- SELECT_05&#45;&gt;ARGUMENT -->
<g id="edge29" class="edge">
<title>SELECT_05&#45;&gt;ARGUMENT</title>
<path fill="none" stroke="gray" d="M555.94,-273.98C567.71,-250.73 568.89,-210.35 559.48,-183.67"/>
<polygon fill="gray" stroke="gray" points="562.55,-181.96 555.35,-174.18 556.13,-184.75 562.55,-181.96"/>
</g>
<!-- SELECT_05_output_0 -->
<g id="node19" class="node">
<title>SELECT_05_output_0</title>
<ellipse fill="black" stroke="black" cx="607" cy="-235.4" rx="1.8" ry="1.8"/>
</g>
<!-- SELECT_05&#45;&gt;SELECT_05_output_0 -->
<g id="edge22" class="edge">
<title>SELECT_05&#45;&gt;SELECT_05_output_0</title>
<path fill="none" stroke="black" d="M565.13,-274.06C573.6,-268.78 582.44,-262.68 590,-256.2 597.43,-249.83 604.42,-240.11 606.43,-237.23"/>
</g>
<!-- SELECT_UNCONTESTED_05 -->
<g id="node11" class="node">
<title>SELECT_UNCONTESTED_05</title>
<polygon fill="none" stroke="blue" points="731,-182.6 603,-182.6 603,-129.6 737,-129.6 737,-176.6 731,-182.6"/>
<polyline fill="none" stroke="blue" points="731,-182.6 731,-176.6 "/>
<polyline fill="none" stroke="blue" points="737,-176.6 731,-176.6 "/>
<text text-anchor="middle" x="670" y="-167.4" font-family="Times,serif" font-size="14.00">SELECT</text>
<text text-anchor="middle" x="670" y="-152.4" font-family="Times,serif" font-size="14.00">UNCONTESTED</text>
<text text-anchor="middle" x="670" y="-137.4" font-family="Times,serif" font-size="14.00">05</text>
</g>
<!-- PROOF_REFUTED -->
<g id="node13" class="node">
<title>PROOF_REFUTED</title>
<polygon fill="none" stroke="blue" points="571,-38 487,-38 487,0 577,0 577,-32 571,-38"/>
<polyline fill="none" stroke="blue" points="571,-38 571,-32 "/>
<polyline fill="none" stroke="blue" points="577,-32 571,-32 "/>
<text text-anchor="middle" x="532" y="-22.8" font-family="Times,serif" font-size="14.00">PROOF</text>
<text text-anchor="middle" x="532" y="-7.8" font-family="Times,serif" font-size="14.00">REFUTED</text>
</g>
<!-- ARGUMENT&#45;&gt;PROOF_REFUTED -->
<!-- ARGUMENT_output_0 -->
<g id="node20" class="node">
<title>ARGUMENT_output_0</title>
<ellipse fill="black" stroke="black" cx="502" cy="-90.8" rx="1.8" ry="1.8"/>
</g>
<!-- ARGUMENT&#45;&gt;ARGUMENT_output_0 -->
<g id="edge30" class="edge">
<title>ARGUMENT&#45;&gt;ARGUMENT_output_0</title>
<path fill="none" stroke="black" d="M523.8,-137.8C516.03,-121.4 505.17,-98.48 502.57,-93.01"/>
</g>
<!-- ARGUMENT_UNCONTESTED -->
<g id="node14" class="node">
<title>ARGUMENT_UNCONTESTED</title>
<polygon fill="none" stroke="green" points="262,-38 134,-38 134,0 268,0 268,-32 262,-38"/>
<polyline fill="none" stroke="green" points="262,-38 262,-32 "/>
<polyline fill="none" stroke="green" points="268,-32 262,-32 "/>
<text text-anchor="middle" x="201" y="-22.8" font-family="Times,serif" font-size="14.00">ARGUMENT</text>
<text text-anchor="middle" x="201" y="-7.8" font-family="Times,serif" font-size="14.00">UNCONTESTED</text>
</g>
<!-- LOCKED_FUNDS_output_0&#45;&gt;PROOF_UNCONTESTED -->
<g id="edge7" class="edge">
<title>LOCKED_FUNDS_output_0&#45;&gt;PROOF_UNCONTESTED</title>
<path fill="none" stroke="magenta" d="M58.35,-639.46C61.06,-632.18 79.33,-584.28 102,-549.8 104.18,-546.48 106.64,-543.14 109.19,-539.9"/>
<polygon fill="magenta" stroke="magenta" points="111.94,-542.06 115.62,-532.13 106.55,-537.6 111.94,-542.06"/>
</g>
<!-- LOCKED_FUNDS_output_0&#45;&gt;STATE_UNCONTESTED_00 -->
<g id="edge8" class="edge">
<title>LOCKED_FUNDS_output_0&#45;&gt;STATE_UNCONTESTED_00</title>
<path fill="none" stroke="magenta" d="M57.51,-639.66C54.43,-635.01 38,-609.1 38,-585.6 38,-585.6 38,-585.6 38,-454 38,-427.05 102.68,-405.61 157.92,-392.21"/>
<polygon fill="magenta" stroke="magenta" points="158.83,-395.59 167.75,-389.88 157.22,-388.78 158.83,-395.59"/>
</g>
<!-- LOCKED_FUNDS_output_0&#45;&gt;ARGUMENT_UNCONTESTED -->
<g id="edge9" class="edge">
<title>LOCKED_FUNDS_output_0&#45;&gt;ARGUMENT_UNCONTESTED</title>
<path fill="none" stroke="magenta" d="M56.57,-639.89C47.63,-636.63 0,-617.74 0,-585.6 0,-585.6 0,-585.6 0,-89.8 0,-62.49 67.06,-43.44 123.72,-32.22"/>
<polygon fill="magenta" stroke="magenta" points="124.63,-35.61 133.79,-30.28 123.31,-28.73 124.63,-35.61"/>
</g>
<!-- PROOF_output_0&#45;&gt;PROOF_UNCONTESTED -->
<g id="edge12" class="edge">
<title>PROOF_output_0&#45;&gt;PROOF_UNCONTESTED</title>
<path fill="none" stroke="green" stroke-dasharray="5,2" d="M457.44,-583.44C446.61,-582.32 381.31,-575.35 329,-564.8 287.55,-556.44 241.8,-544.68 204.92,-534.56"/>
<polygon fill="green" stroke="green" points="205.83,-531.18 195.26,-531.89 203.97,-537.93 205.83,-531.18"/>
<text text-anchor="middle" x="367.5" y="-553.6" font-family="Times,serif" font-size="14.00">180 blocks</text>
</g>
<!-- PROOF_output_0&#45;&gt;CHALLENGE_UNCONTESTED -->
<g id="edge13" class="edge">
<title>PROOF_output_0&#45;&gt;CHALLENGE_UNCONTESTED</title>
<path fill="none" stroke="blue" stroke-dasharray="5,2" d="M457.28,-583.47C450.56,-582.88 425.96,-579.7 416,-564.8 411.62,-558.25 410.17,-550.09 410.13,-542.23"/>
<polygon fill="blue" stroke="blue" points="413.62,-542.44 410.78,-532.23 406.64,-541.99 413.62,-542.44"/>
<text text-anchor="middle" x="454.5" y="-553.6" font-family="Times,serif" font-size="14.00">360 blocks</text>
</g>
<!-- PROOF_output_0&#45;&gt;STATE_00 -->
<g id="edge14" class="edge">
<title>PROOF_output_0&#45;&gt;STATE_00</title>
<path fill="none" stroke="green" d="M460.16,-583.16C464.73,-581.41 481.76,-574.49 493,-564.8 501.23,-557.7 508.85,-548.61 515.13,-540.08"/>
<polygon fill="green" stroke="green" points="518.04,-542.02 520.93,-531.83 512.32,-537.99 518.04,-542.02"/>
</g>
<!-- PROOF_output_1&#45;&gt;CHALLENGE -->
<g id="edge16" class="edge">
<title>PROOF_output_1&#45;&gt;CHALLENGE</title>
<path fill="none" stroke="gray" d="M274,-582.61C274,-578.03 274,-558.32 274,-541.16"/>
<polygon fill="gray" stroke="gray" points="277.5,-540.96 274,-530.96 270.5,-540.96 277.5,-540.96"/>
</g>
<!-- PROOF_output_1&#45;&gt;PROOF_UNCONTESTED -->
<g id="edge17" class="edge">
<title>PROOF_output_1&#45;&gt;PROOF_UNCONTESTED</title>
<path fill="none" stroke="gray" d="M272.37,-583.53C259.89,-582.94 179.21,-578.62 160,-564.8 151.94,-559 146.07,-550.04 141.91,-541.24"/>
<polygon fill="gray" stroke="gray" points="145.1,-539.81 138.04,-531.92 138.64,-542.49 145.1,-539.81"/>
</g>
<!-- STATE_00_output_0&#45;&gt;STATE_UNCONTESTED_00 -->
<g id="edge19" class="edge">
<title>STATE_00_output_0&#45;&gt;STATE_UNCONTESTED_00</title>
<path fill="none" stroke="green" stroke-dasharray="5,2" d="M500.6,-453.66C493.19,-451.87 457.74,-443.23 429,-435.2 390.29,-424.38 347.49,-411.57 311.96,-400.69"/>
<polygon fill="green" stroke="green" points="312.73,-397.27 302.14,-397.68 310.67,-403.96 312.73,-397.27"/>
<text text-anchor="middle" x="467.5" y="-424" font-family="Times,serif" font-size="14.00">180 blocks</text>
</g>
<!-- STATE_00_output_0&#45;&gt;Dissection -->
<g id="edge20" class="edge">
<title>STATE_00_output_0&#45;&gt;Dissection</title>
<path fill="none" stroke="blue" d="M502.34,-453.13C504,-448.84 511.57,-429.35 518.64,-411.12"/>
<polygon fill="blue" stroke="blue" points="521.9,-412.39 522.26,-401.8 515.38,-409.85 521.9,-412.39"/>
</g>
<!-- SELECT_05_output_0&#45;&gt;SELECT_UNCONTESTED_05 -->
<g id="edge23" class="edge">
<title>SELECT_05_output_0&#45;&gt;SELECT_UNCONTESTED_05</title>
<path fill="none" stroke="blue" stroke-dasharray="5,2" d="M607.71,-233.53C611.26,-229.18 627.54,-209.2 642.57,-190.76"/>
<polygon fill="blue" stroke="blue" points="645.29,-192.96 648.89,-183 639.86,-188.54 645.29,-192.96"/>
<text text-anchor="middle" x="670.5" y="-204.4" font-family="Times,serif" font-size="14.00">180 blocks</text>
</g>
<!-- SELECT_05_output_0&#45;&gt;ARGUMENT -->
<g id="edge24" class="edge">
<title>SELECT_05_output_0&#45;&gt;ARGUMENT</title>
<path fill="none" stroke="green" d="M606.71,-233.48C605.38,-229.3 599.44,-211.89 590,-200.6 583.83,-193.23 576.18,-186.38 568.48,-180.4"/>
<polygon fill="green" stroke="green" points="570.3,-177.4 560.18,-174.28 566.15,-183.03 570.3,-177.4"/>
</g>
<!-- ARGUMENT_output_0&#45;&gt;PROOF_REFUTED -->
<g id="edge31" class="edge">
<title>ARGUMENT_output_0&#45;&gt;PROOF_REFUTED</title>
<path fill="none" stroke="blue" d="M502.34,-89.02C504.13,-84.85 512.74,-64.8 520.23,-47.38"/>
<polygon fill="blue" stroke="blue" points="523.49,-48.66 524.23,-38.09 517.06,-45.89 523.49,-48.66"/>
</g>
<!-- ARGUMENT_output_0&#45;&gt;ARGUMENT_UNCONTESTED -->
<g id="edge32" class="edge">
<title>ARGUMENT_output_0&#45;&gt;ARGUMENT_UNCONTESTED</title>
<path fill="none" stroke="green" stroke-dasharray="5,2" d="M500.66,-89.49C486.42,-86.19 362.03,-57.34 278.05,-37.87"/>
<polygon fill="green" stroke="green" points="278.81,-34.45 268.28,-35.6 277.23,-41.27 278.81,-34.45"/>
<text text-anchor="middle" x="451.5" y="-59.8" font-family="Times,serif" font-size="14.00">180 blocks</text>
</g>
</g>
</svg>
