<?xml version="1.0" encoding="UTF-8" standalone="no"?>
<!DOCTYPE svg PUBLIC "-//W3C//DTD SVG 1.1//EN"
 "http://www.w3.org/Graphics/SVG/1.1/DTD/svg11.dtd">
<!-- Generated by graphviz version 2.42.4 (0)
 -->
<!-- Title: BitSnark Pages: 1 -->
<svg width="948pt" height="2129pt"
 viewBox="0.00 0.00 947.50 2129.14" xmlns="http://www.w3.org/2000/svg" xmlns:xlink="http://www.w3.org/1999/xlink">
<g id="graph0" class="graph" transform="scale(1 1) rotate(0) translate(4 2125.14)">
<title>BitSnark</title>
<polygon fill="white" stroke="transparent" points="-4,4 -4,-2125.14 943.5,-2125.14 943.5,4 -4,4"/>
<!-- LOCKED_FUNDS -->
<g id="node1" class="node">
<title>LOCKED_FUNDS</title>
<ellipse fill="none" stroke="magenta" cx="152" cy="-2094.27" rx="56.64" ry="26.74"/>
<text text-anchor="middle" x="152" y="-2098.07" font-family="Times,serif" font-size="14.00">LOCKED</text>
<text text-anchor="middle" x="152" y="-2083.07" font-family="Times,serif" font-size="14.00">FUNDS</text>
</g>
<!-- PROOF_UNCONTESTED -->
<g id="node5" class="node">
<title>PROOF_UNCONTESTED</title>
<polygon fill="none" stroke="green" points="652,-1902.8 524,-1902.8 524,-1864.8 658,-1864.8 658,-1896.8 652,-1902.8"/>
<polyline fill="none" stroke="green" points="652,-1902.8 652,-1896.8 "/>
<polyline fill="none" stroke="green" points="658,-1896.8 652,-1896.8 "/>
<text text-anchor="middle" x="591" y="-1887.6" font-family="Times,serif" font-size="14.00">PROOF</text>
<text text-anchor="middle" x="591" y="-1872.6" font-family="Times,serif" font-size="14.00">UNCONTESTED</text>
</g>
<!-- LOCKED_FUNDS&#45;&gt;PROOF_UNCONTESTED -->
<!-- LOCKED_FUNDS_output_0 -->
<g id="node34" class="node">
<title>LOCKED_FUNDS_output_0</title>
<ellipse fill="black" stroke="black" cx="152" cy="-2012.4" rx="1.8" ry="1.8"/>
</g>
<!-- LOCKED_FUNDS&#45;&gt;LOCKED_FUNDS_output_0 -->
<g id="edge25" class="edge">
<title>LOCKED_FUNDS&#45;&gt;LOCKED_FUNDS_output_0</title>
<path fill="none" stroke="magenta" d="M152,-2067.12C152,-2046.74 152,-2020.89 152,-2014.75"/>
</g>
<!-- PROVER_STAKE -->
<g id="node2" class="node">
<title>PROVER_STAKE</title>
<ellipse fill="none" stroke="green" cx="474" cy="-2094.27" rx="55.72" ry="26.74"/>
<text text-anchor="middle" x="474" y="-2098.07" font-family="Times,serif" font-size="14.00">PROVER</text>
<text text-anchor="middle" x="474" y="-2083.07" font-family="Times,serif" font-size="14.00">STAKE</text>
</g>
<!-- PROOF -->
<g id="node3" class="node">
<title>PROOF</title>
<polygon fill="none" stroke="green" points="508.5,-2030.4 439.5,-2030.4 439.5,-1994.4 508.5,-1994.4 508.5,-2030.4"/>
<text text-anchor="middle" x="474" y="-2008.7" font-family="Times,serif" font-size="14.00">PROOF</text>
</g>
<!-- PROVER_STAKE&#45;&gt;PROOF -->
<g id="edge34" class="edge">
<title>PROVER_STAKE&#45;&gt;PROOF</title>
<path fill="none" stroke="green" d="M474,-2067.12C474,-2058.67 474,-2049.29 474,-2040.76"/>
<polygon fill="green" stroke="green" points="477.5,-2040.55 474,-2030.55 470.5,-2040.55 477.5,-2040.55"/>
</g>
<!-- STATE_00 -->
<g id="node7" class="node">
<title>STATE_00</title>
<polygon fill="none" stroke="green" points="505.5,-1902.8 442.5,-1902.8 442.5,-1864.8 505.5,-1864.8 505.5,-1902.8"/>
<text text-anchor="middle" x="474" y="-1887.6" font-family="Times,serif" font-size="14.00">STATE</text>
<text text-anchor="middle" x="474" y="-1872.6" font-family="Times,serif" font-size="14.00">00</text>
</g>
<!-- PROOF&#45;&gt;STATE_00 -->
<!-- PROOF_output_0 -->
<g id="node35" class="node">
<title>PROOF_output_0</title>
<ellipse fill="black" stroke="black" cx="570" cy="-1955.6" rx="1.8" ry="1.8"/>
</g>
<!-- PROOF&#45;&gt;PROOF_output_0 -->
<g id="edge35" class="edge">
<title>PROOF&#45;&gt;PROOF_output_0</title>
<path fill="none" stroke="black" d="M503.85,-1994.36C529.39,-1979.78 562.97,-1960.61 569.04,-1957.15"/>
</g>
<!-- PROOF_output_1 -->
<g id="node36" class="node">
<title>PROOF_output_1</title>
<ellipse fill="black" stroke="black" cx="807" cy="-1955.6" rx="1.8" ry="1.8"/>
</g>
<!-- PROOF&#45;&gt;PROOF_output_1 -->
<g id="edge39" class="edge">
<title>PROOF&#45;&gt;PROOF_output_1</title>
<path fill="none" stroke="gray" d="M508.69,-2005.69C589.99,-1992.31 787.31,-1959.84 805.63,-1956.83"/>
</g>
<!-- CHALLENGE -->
<g id="node4" class="node">
<title>CHALLENGE</title>
<polygon fill="none" stroke="blue" points="933.5,-1901.8 828.5,-1901.8 828.5,-1865.8 939.5,-1865.8 939.5,-1895.8 933.5,-1901.8"/>
<polyline fill="none" stroke="blue" points="933.5,-1901.8 933.5,-1895.8 "/>
<polyline fill="none" stroke="blue" points="939.5,-1895.8 933.5,-1895.8 "/>
<text text-anchor="middle" x="884" y="-1880.1" font-family="Times,serif" font-size="14.00">CHALLENGE</text>
</g>
<!-- CHALLENGE_UNCONTESTED -->
<g id="node6" class="node">
<title>CHALLENGE_UNCONTESTED</title>
<polygon fill="none" stroke="blue" points="804,-1902.8 676,-1902.8 676,-1864.8 810,-1864.8 810,-1896.8 804,-1902.8"/>
<polyline fill="none" stroke="blue" points="804,-1902.8 804,-1896.8 "/>
<polyline fill="none" stroke="blue" points="810,-1896.8 804,-1896.8 "/>
<text text-anchor="middle" x="743" y="-1887.6" font-family="Times,serif" font-size="14.00">CHALLENGE</text>
<text text-anchor="middle" x="743" y="-1872.6" font-family="Times,serif" font-size="14.00">UNCONTESTED</text>
</g>
<!-- SELECT_00 -->
<g id="node9" class="node">
<title>SELECT_00</title>
<polygon fill="none" stroke="blue" points="512,-1765.7 436,-1765.7 436,-1727.7 512,-1727.7 512,-1765.7"/>
<text text-anchor="middle" x="474" y="-1750.5" font-family="Times,serif" font-size="14.00">SELECT</text>
<text text-anchor="middle" x="474" y="-1735.5" font-family="Times,serif" font-size="14.00">00</text>
</g>
<!-- STATE_00&#45;&gt;SELECT_00 -->
<!-- STATE_00_output_0 -->
<g id="node37" class="node">
<title>STATE_00_output_0</title>
<ellipse fill="black" stroke="black" cx="444" cy="-1826" rx="1.8" ry="1.8"/>
</g>
<!-- STATE_00&#45;&gt;STATE_00_output_0 -->
<g id="edge42" class="edge">
<title>STATE_00&#45;&gt;STATE_00_output_0</title>
<path fill="none" stroke="black" d="M464.18,-1864.53C456.52,-1850.29 446.82,-1832.24 444.51,-1827.95"/>
</g>
<!-- STATE_UNCONTESTED_00 -->
<g id="node8" class="node">
<title>STATE_UNCONTESTED_00</title>
<polygon fill="none" stroke="green" points="308,-1773.2 180,-1773.2 180,-1720.2 314,-1720.2 314,-1767.2 308,-1773.2"/>
<polyline fill="none" stroke="green" points="308,-1773.2 308,-1767.2 "/>
<polyline fill="none" stroke="green" points="314,-1767.2 308,-1767.2 "/>
<text text-anchor="middle" x="247" y="-1758" font-family="Times,serif" font-size="14.00">STATE</text>
<text text-anchor="middle" x="247" y="-1743" font-family="Times,serif" font-size="14.00">UNCONTESTED</text>
<text text-anchor="middle" x="247" y="-1728" font-family="Times,serif" font-size="14.00">00</text>
</g>
<!-- STATE_UNCONTESTED_01 -->
<g id="node12" class="node">
<title>STATE_UNCONTESTED_01</title>
<polygon fill="none" stroke="green" points="288,-1484 160,-1484 160,-1431 294,-1431 294,-1478 288,-1484"/>
<polyline fill="none" stroke="green" points="288,-1484 288,-1478 "/>
<polyline fill="none" stroke="green" points="294,-1478 288,-1478 "/>
<text text-anchor="middle" x="227" y="-1468.8" font-family="Times,serif" font-size="14.00">STATE</text>
<text text-anchor="middle" x="227" y="-1453.8" font-family="Times,serif" font-size="14.00">UNCONTESTED</text>
<text text-anchor="middle" x="227" y="-1438.8" font-family="Times,serif" font-size="14.00">01</text>
</g>
<!-- STATE_UNCONTESTED_00&#45;&gt;STATE_UNCONTESTED_01 -->
<!-- STATE_01 -->
<g id="node11" class="node">
<title>STATE_01</title>
<polygon fill="none" stroke="green" points="505.5,-1621.1 442.5,-1621.1 442.5,-1583.1 505.5,-1583.1 505.5,-1621.1"/>
<text text-anchor="middle" x="474" y="-1605.9" font-family="Times,serif" font-size="14.00">STATE</text>
<text text-anchor="middle" x="474" y="-1590.9" font-family="Times,serif" font-size="14.00">01</text>
</g>
<!-- SELECT_00&#45;&gt;STATE_01 -->
<!-- SELECT_00_output_0 -->
<g id="node38" class="node">
<title>SELECT_00_output_0</title>
<ellipse fill="black" stroke="black" cx="591" cy="-1681.4" rx="1.8" ry="1.8"/>
</g>
<!-- SELECT_00&#45;&gt;SELECT_00_output_0 -->
<g id="edge45" class="edge">
<title>SELECT_00&#45;&gt;SELECT_00_output_0</title>
<path fill="none" stroke="black" d="M507.53,-1727.56C538.86,-1710.61 581.96,-1687.29 589.76,-1683.07"/>
</g>
<!-- SELECT_UNCONTESTED_00 -->
<g id="node10" class="node">
<title>SELECT_UNCONTESTED_00</title>
<polygon fill="none" stroke="blue" points="652,-1628.6 524,-1628.6 524,-1575.6 658,-1575.6 658,-1622.6 652,-1628.6"/>
<polyline fill="none" stroke="blue" points="652,-1628.6 652,-1622.6 "/>
<polyline fill="none" stroke="blue" points="658,-1622.6 652,-1622.6 "/>
<text text-anchor="middle" x="591" y="-1613.4" font-family="Times,serif" font-size="14.00">SELECT</text>
<text text-anchor="middle" x="591" y="-1598.4" font-family="Times,serif" font-size="14.00">UNCONTESTED</text>
<text text-anchor="middle" x="591" y="-1583.4" font-family="Times,serif" font-size="14.00">00</text>
</g>
<!-- SELECT_UNCONTESTED_01 -->
<g id="node14" class="node">
<title>SELECT_UNCONTESTED_01</title>
<polygon fill="none" stroke="blue" points="652,-1339.4 524,-1339.4 524,-1286.4 658,-1286.4 658,-1333.4 652,-1339.4"/>
<polyline fill="none" stroke="blue" points="652,-1339.4 652,-1333.4 "/>
<polyline fill="none" stroke="blue" points="658,-1333.4 652,-1333.4 "/>
<text text-anchor="middle" x="591" y="-1324.2" font-family="Times,serif" font-size="14.00">SELECT</text>
<text text-anchor="middle" x="591" y="-1309.2" font-family="Times,serif" font-size="14.00">UNCONTESTED</text>
<text text-anchor="middle" x="591" y="-1294.2" font-family="Times,serif" font-size="14.00">01</text>
</g>
<!-- SELECT_UNCONTESTED_00&#45;&gt;SELECT_UNCONTESTED_01 -->
<!-- SELECT_01 -->
<g id="node13" class="node">
<title>SELECT_01</title>
<polygon fill="none" stroke="blue" points="512,-1476.5 436,-1476.5 436,-1438.5 512,-1438.5 512,-1476.5"/>
<text text-anchor="middle" x="474" y="-1461.3" font-family="Times,serif" font-size="14.00">SELECT</text>
<text text-anchor="middle" x="474" y="-1446.3" font-family="Times,serif" font-size="14.00">01</text>
</g>
<!-- STATE_01&#45;&gt;SELECT_01 -->
<!-- STATE_01_output_0 -->
<g id="node39" class="node">
<title>STATE_01_output_0</title>
<ellipse fill="black" stroke="black" cx="444" cy="-1536.8" rx="1.8" ry="1.8"/>
</g>
<!-- STATE_01&#45;&gt;STATE_01_output_0 -->
<g id="edge48" class="edge">
<title>STATE_01&#45;&gt;STATE_01_output_0</title>
<path fill="none" stroke="black" d="M465.32,-1582.79C457.57,-1566.43 447.06,-1544.26 444.55,-1538.97"/>
</g>
<!-- STATE_UNCONTESTED_02 -->
<g id="node16" class="node">
<title>STATE_UNCONTESTED_02</title>
<polygon fill="none" stroke="green" points="287,-1194.8 159,-1194.8 159,-1141.8 293,-1141.8 293,-1188.8 287,-1194.8"/>
<polyline fill="none" stroke="green" points="287,-1194.8 287,-1188.8 "/>
<polyline fill="none" stroke="green" points="293,-1188.8 287,-1188.8 "/>
<text text-anchor="middle" x="226" y="-1179.6" font-family="Times,serif" font-size="14.00">STATE</text>
<text text-anchor="middle" x="226" y="-1164.6" font-family="Times,serif" font-size="14.00">UNCONTESTED</text>
<text text-anchor="middle" x="226" y="-1149.6" font-family="Times,serif" font-size="14.00">02</text>
</g>
<!-- STATE_UNCONTESTED_01&#45;&gt;STATE_UNCONTESTED_02 -->
<!-- STATE_02 -->
<g id="node15" class="node">
<title>STATE_02</title>
<polygon fill="none" stroke="green" points="505.5,-1331.9 442.5,-1331.9 442.5,-1293.9 505.5,-1293.9 505.5,-1331.9"/>
<text text-anchor="middle" x="474" y="-1316.7" font-family="Times,serif" font-size="14.00">STATE</text>
<text text-anchor="middle" x="474" y="-1301.7" font-family="Times,serif" font-size="14.00">02</text>
</g>
<!-- SELECT_01&#45;&gt;STATE_02 -->
<!-- SELECT_01_output_0 -->
<g id="node40" class="node">
<title>SELECT_01_output_0</title>
<ellipse fill="black" stroke="black" cx="504" cy="-1392.2" rx="1.8" ry="1.8"/>
</g>
<!-- SELECT_01&#45;&gt;SELECT_01_output_0 -->
<g id="edge51" class="edge">
<title>SELECT_01&#45;&gt;SELECT_01_output_0</title>
<path fill="none" stroke="black" d="M482.68,-1438.19C490.43,-1421.83 500.94,-1399.66 503.45,-1394.37"/>
</g>
<!-- SELECT_UNCONTESTED_02 -->
<g id="node18" class="node">
<title>SELECT_UNCONTESTED_02</title>
<polygon fill="none" stroke="blue" points="652,-1050.2 524,-1050.2 524,-997.2 658,-997.2 658,-1044.2 652,-1050.2"/>
<polyline fill="none" stroke="blue" points="652,-1050.2 652,-1044.2 "/>
<polyline fill="none" stroke="blue" points="658,-1044.2 652,-1044.2 "/>
<text text-anchor="middle" x="591" y="-1035" font-family="Times,serif" font-size="14.00">SELECT</text>
<text text-anchor="middle" x="591" y="-1020" font-family="Times,serif" font-size="14.00">UNCONTESTED</text>
<text text-anchor="middle" x="591" y="-1005" font-family="Times,serif" font-size="14.00">02</text>
</g>
<!-- SELECT_UNCONTESTED_01&#45;&gt;SELECT_UNCONTESTED_02 -->
<!-- SELECT_02 -->
<g id="node17" class="node">
<title>SELECT_02</title>
<polygon fill="none" stroke="blue" points="512,-1187.3 436,-1187.3 436,-1149.3 512,-1149.3 512,-1187.3"/>
<text text-anchor="middle" x="474" y="-1172.1" font-family="Times,serif" font-size="14.00">SELECT</text>
<text text-anchor="middle" x="474" y="-1157.1" font-family="Times,serif" font-size="14.00">02</text>
</g>
<!-- STATE_02&#45;&gt;SELECT_02 -->
<!-- STATE_02_output_0 -->
<g id="node41" class="node">
<title>STATE_02_output_0</title>
<ellipse fill="black" stroke="black" cx="444" cy="-1247.6" rx="1.8" ry="1.8"/>
</g>
<!-- STATE_02&#45;&gt;STATE_02_output_0 -->
<g id="edge54" class="edge">
<title>STATE_02&#45;&gt;STATE_02_output_0</title>
<path fill="none" stroke="black" d="M465.32,-1293.59C457.57,-1277.23 447.06,-1255.06 444.55,-1249.77"/>
</g>
<!-- STATE_UNCONTESTED_03 -->
<g id="node20" class="node">
<title>STATE_UNCONTESTED_03</title>
<polygon fill="none" stroke="green" points="286,-905.6 158,-905.6 158,-852.6 292,-852.6 292,-899.6 286,-905.6"/>
<polyline fill="none" stroke="green" points="286,-905.6 286,-899.6 "/>
<polyline fill="none" stroke="green" points="292,-899.6 286,-899.6 "/>
<text text-anchor="middle" x="225" y="-890.4" font-family="Times,serif" font-size="14.00">STATE</text>
<text text-anchor="middle" x="225" y="-875.4" font-family="Times,serif" font-size="14.00">UNCONTESTED</text>
<text text-anchor="middle" x="225" y="-860.4" font-family="Times,serif" font-size="14.00">03</text>
</g>
<!-- STATE_UNCONTESTED_02&#45;&gt;STATE_UNCONTESTED_03 -->
<!-- STATE_03 -->
<g id="node19" class="node">
<title>STATE_03</title>
<polygon fill="none" stroke="green" points="505.5,-1042.7 442.5,-1042.7 442.5,-1004.7 505.5,-1004.7 505.5,-1042.7"/>
<text text-anchor="middle" x="474" y="-1027.5" font-family="Times,serif" font-size="14.00">STATE</text>
<text text-anchor="middle" x="474" y="-1012.5" font-family="Times,serif" font-size="14.00">03</text>
</g>
<!-- SELECT_02&#45;&gt;STATE_03 -->
<!-- SELECT_02_output_0 -->
<g id="node42" class="node">
<title>SELECT_02_output_0</title>
<ellipse fill="black" stroke="black" cx="504" cy="-1103" rx="1.8" ry="1.8"/>
</g>
<!-- SELECT_02&#45;&gt;SELECT_02_output_0 -->
<g id="edge57" class="edge">
<title>SELECT_02&#45;&gt;SELECT_02_output_0</title>
<path fill="none" stroke="black" d="M482.68,-1148.99C490.43,-1132.63 500.94,-1110.46 503.45,-1105.17"/>
</g>
<!-- SELECT_UNCONTESTED_03 -->
<g id="node22" class="node">
<title>SELECT_UNCONTESTED_03</title>
<polygon fill="none" stroke="blue" points="652,-761 524,-761 524,-708 658,-708 658,-755 652,-761"/>
<polyline fill="none" stroke="blue" points="652,-761 652,-755 "/>
<polyline fill="none" stroke="blue" points="658,-755 652,-755 "/>
<text text-anchor="middle" x="591" y="-745.8" font-family="Times,serif" font-size="14.00">SELECT</text>
<text text-anchor="middle" x="591" y="-730.8" font-family="Times,serif" font-size="14.00">UNCONTESTED</text>
<text text-anchor="middle" x="591" y="-715.8" font-family="Times,serif" font-size="14.00">03</text>
</g>
<!-- SELECT_UNCONTESTED_02&#45;&gt;SELECT_UNCONTESTED_03 -->
<!-- SELECT_03 -->
<g id="node21" class="node">
<title>SELECT_03</title>
<polygon fill="none" stroke="blue" points="512,-898.1 436,-898.1 436,-860.1 512,-860.1 512,-898.1"/>
<text text-anchor="middle" x="474" y="-882.9" font-family="Times,serif" font-size="14.00">SELECT</text>
<text text-anchor="middle" x="474" y="-867.9" font-family="Times,serif" font-size="14.00">03</text>
</g>
<!-- STATE_03&#45;&gt;SELECT_03 -->
<!-- STATE_03_output_0 -->
<g id="node43" class="node">
<title>STATE_03_output_0</title>
<ellipse fill="black" stroke="black" cx="444" cy="-958.4" rx="1.8" ry="1.8"/>
</g>
<!-- STATE_03&#45;&gt;STATE_03_output_0 -->
<g id="edge60" class="edge">
<title>STATE_03&#45;&gt;STATE_03_output_0</title>
<path fill="none" stroke="black" d="M465.32,-1004.39C457.57,-988.03 447.06,-965.86 444.55,-960.57"/>
</g>
<!-- STATE_UNCONTESTED_04 -->
<g id="node24" class="node">
<title>STATE_UNCONTESTED_04</title>
<polygon fill="none" stroke="green" points="285,-616.4 157,-616.4 157,-563.4 291,-563.4 291,-610.4 285,-616.4"/>
<polyline fill="none" stroke="green" points="285,-616.4 285,-610.4 "/>
<polyline fill="none" stroke="green" points="291,-610.4 285,-610.4 "/>
<text text-anchor="middle" x="224" y="-601.2" font-family="Times,serif" font-size="14.00">STATE</text>
<text text-anchor="middle" x="224" y="-586.2" font-family="Times,serif" font-size="14.00">UNCONTESTED</text>
<text text-anchor="middle" x="224" y="-571.2" font-family="Times,serif" font-size="14.00">04</text>
</g>
<!-- STATE_UNCONTESTED_03&#45;&gt;STATE_UNCONTESTED_04 -->
<!-- STATE_04 -->
<g id="node23" class="node">
<title>STATE_04</title>
<polygon fill="none" stroke="green" points="505.5,-753.5 442.5,-753.5 442.5,-715.5 505.5,-715.5 505.5,-753.5"/>
<text text-anchor="middle" x="474" y="-738.3" font-family="Times,serif" font-size="14.00">STATE</text>
<text text-anchor="middle" x="474" y="-723.3" font-family="Times,serif" font-size="14.00">04</text>
</g>
<!-- SELECT_03&#45;&gt;STATE_04 -->
<!-- SELECT_03_output_0 -->
<g id="node44" class="node">
<title>SELECT_03_output_0</title>
<ellipse fill="black" stroke="black" cx="504" cy="-813.8" rx="1.8" ry="1.8"/>
</g>
<!-- SELECT_03&#45;&gt;SELECT_03_output_0 -->
<g id="edge63" class="edge">
<title>SELECT_03&#45;&gt;SELECT_03_output_0</title>
<path fill="none" stroke="black" d="M482.68,-859.79C490.43,-843.43 500.94,-821.26 503.45,-815.97"/>
</g>
<!-- SELECT_UNCONTESTED_04 -->
<g id="node26" class="node">
<title>SELECT_UNCONTESTED_04</title>
<polygon fill="none" stroke="blue" points="418,-471.8 290,-471.8 290,-418.8 424,-418.8 424,-465.8 418,-471.8"/>
<polyline fill="none" stroke="blue" points="418,-471.8 418,-465.8 "/>
<polyline fill="none" stroke="blue" points="424,-465.8 418,-465.8 "/>
<text text-anchor="middle" x="357" y="-456.6" font-family="Times,serif" font-size="14.00">SELECT</text>
<text text-anchor="middle" x="357" y="-441.6" font-family="Times,serif" font-size="14.00">UNCONTESTED</text>
<text text-anchor="middle" x="357" y="-426.6" font-family="Times,serif" font-size="14.00">04</text>
</g>
<!-- SELECT_UNCONTESTED_03&#45;&gt;SELECT_UNCONTESTED_04 -->
<!-- SELECT_04 -->
<g id="node25" class="node">
<title>SELECT_04</title>
<polygon fill="none" stroke="blue" points="512,-608.9 436,-608.9 436,-570.9 512,-570.9 512,-608.9"/>
<text text-anchor="middle" x="474" y="-593.7" font-family="Times,serif" font-size="14.00">SELECT</text>
<text text-anchor="middle" x="474" y="-578.7" font-family="Times,serif" font-size="14.00">04</text>
</g>
<!-- STATE_04&#45;&gt;SELECT_04 -->
<!-- STATE_04_output_0 -->
<g id="node45" class="node">
<title>STATE_04_output_0</title>
<ellipse fill="black" stroke="black" cx="444" cy="-669.2" rx="1.8" ry="1.8"/>
</g>
<!-- STATE_04&#45;&gt;STATE_04_output_0 -->
<g id="edge66" class="edge">
<title>STATE_04&#45;&gt;STATE_04_output_0</title>
<path fill="none" stroke="black" d="M465.32,-715.19C457.57,-698.83 447.06,-676.66 444.55,-671.37"/>
</g>
<!-- STATE_UNCONTESTED_05 -->
<g id="node28" class="node">
<title>STATE_UNCONTESTED_05</title>
<polygon fill="none" stroke="green" points="323,-327.2 195,-327.2 195,-274.2 329,-274.2 329,-321.2 323,-327.2"/>
<polyline fill="none" stroke="green" points="323,-327.2 323,-321.2 "/>
<polyline fill="none" stroke="green" points="329,-321.2 323,-321.2 "/>
<text text-anchor="middle" x="262" y="-312" font-family="Times,serif" font-size="14.00">STATE</text>
<text text-anchor="middle" x="262" y="-297" font-family="Times,serif" font-size="14.00">UNCONTESTED</text>
<text text-anchor="middle" x="262" y="-282" font-family="Times,serif" font-size="14.00">05</text>
</g>
<!-- STATE_UNCONTESTED_04&#45;&gt;STATE_UNCONTESTED_05 -->
<!-- STATE_05 -->
<g id="node27" class="node">
<title>STATE_05</title>
<polygon fill="none" stroke="green" points="505.5,-464.3 442.5,-464.3 442.5,-426.3 505.5,-426.3 505.5,-464.3"/>
<text text-anchor="middle" x="474" y="-449.1" font-family="Times,serif" font-size="14.00">STATE</text>
<text text-anchor="middle" x="474" y="-434.1" font-family="Times,serif" font-size="14.00">05</text>
</g>
<!-- SELECT_04&#45;&gt;STATE_05 -->
<!-- SELECT_04_output_0 -->
<g id="node46" class="node">
<title>SELECT_04_output_0</title>
<ellipse fill="black" stroke="black" cx="444" cy="-524.6" rx="1.8" ry="1.8"/>
</g>
<!-- SELECT_04&#45;&gt;SELECT_04_output_0 -->
<g id="edge69" class="edge">
<title>SELECT_04&#45;&gt;SELECT_04_output_0</title>
<path fill="none" stroke="black" d="M465.32,-570.59C457.57,-554.23 447.06,-532.06 444.55,-526.77"/>
</g>
<!-- SELECT_UNCONTESTED_05 -->
<g id="node30" class="node">
<title>SELECT_UNCONTESTED_05</title>
<polygon fill="none" stroke="blue" points="373,-182.6 245,-182.6 245,-129.6 379,-129.6 379,-176.6 373,-182.6"/>
<polyline fill="none" stroke="blue" points="373,-182.6 373,-176.6 "/>
<polyline fill="none" stroke="blue" points="379,-176.6 373,-176.6 "/>
<text text-anchor="middle" x="312" y="-167.4" font-family="Times,serif" font-size="14.00">SELECT</text>
<text text-anchor="middle" x="312" y="-152.4" font-family="Times,serif" font-size="14.00">UNCONTESTED</text>
<text text-anchor="middle" x="312" y="-137.4" font-family="Times,serif" font-size="14.00">05</text>
</g>
<!-- SELECT_UNCONTESTED_04&#45;&gt;SELECT_UNCONTESTED_05 -->
<!-- SELECT_05 -->
<g id="node29" class="node">
<title>SELECT_05</title>
<polygon fill="none" stroke="blue" points="512,-319.7 436,-319.7 436,-281.7 512,-281.7 512,-319.7"/>
<text text-anchor="middle" x="474" y="-304.5" font-family="Times,serif" font-size="14.00">SELECT</text>
<text text-anchor="middle" x="474" y="-289.5" font-family="Times,serif" font-size="14.00">05</text>
</g>
<!-- STATE_05&#45;&gt;SELECT_05 -->
<!-- STATE_05_output_0 -->
<g id="node47" class="node">
<title>STATE_05_output_0</title>
<ellipse fill="black" stroke="black" cx="444" cy="-380" rx="1.8" ry="1.8"/>
</g>
<!-- STATE_05&#45;&gt;STATE_05_output_0 -->
<g id="edge72" class="edge">
<title>STATE_05&#45;&gt;STATE_05_output_0</title>
<path fill="none" stroke="black" d="M465.32,-425.99C457.57,-409.63 447.06,-387.46 444.55,-382.17"/>
</g>
<!-- ARGUMENT -->
<g id="node31" class="node">
<title>ARGUMENT</title>
<polygon fill="none" stroke="green" points="527,-174.1 421,-174.1 421,-138.1 527,-138.1 527,-174.1"/>
<text text-anchor="middle" x="474" y="-152.4" font-family="Times,serif" font-size="14.00">ARGUMENT</text>
</g>
<!-- SELECT_05&#45;&gt;ARGUMENT -->
<!-- SELECT_05&#45;&gt;ARGUMENT -->
<g id="edge78" class="edge">
<title>SELECT_05&#45;&gt;ARGUMENT</title>
<path fill="none" stroke="gray" d="M459.98,-281.64C452.49,-256.94 451.75,-212.45 457.78,-183.87"/>
<polygon fill="gray" stroke="gray" points="461.18,-184.68 460.3,-174.13 454.4,-182.93 461.18,-184.68"/>
</g>
<!-- SELECT_05&#45;&gt;ARGUMENT -->
<g id="edge79" class="edge">
<title>SELECT_05&#45;&gt;ARGUMENT</title>
<path fill="none" stroke="gray" d="M469.33,-281.64C466.84,-257.05 466.59,-212.84 468.57,-184.25"/>
<polygon fill="gray" stroke="gray" points="472.07,-184.39 469.43,-174.13 465.09,-183.79 472.07,-184.39"/>
</g>
<!-- SELECT_05&#45;&gt;ARGUMENT -->
<g id="edge80" class="edge">
<title>SELECT_05&#45;&gt;ARGUMENT</title>
<path fill="none" stroke="gray" d="M478.67,-281.64C481.16,-257.05 481.41,-212.84 479.43,-184.25"/>
<polygon fill="gray" stroke="gray" points="482.91,-183.79 478.57,-174.13 475.93,-184.39 482.91,-183.79"/>
</g>
<!-- SELECT_05&#45;&gt;ARGUMENT -->
<g id="edge81" class="edge">
<title>SELECT_05&#45;&gt;ARGUMENT</title>
<path fill="none" stroke="gray" d="M488.02,-281.64C495.51,-256.94 496.25,-212.45 490.22,-183.87"/>
<polygon fill="gray" stroke="gray" points="493.6,-182.93 487.7,-174.13 486.82,-184.68 493.6,-182.93"/>
</g>
<!-- SELECT_05&#45;&gt;ARGUMENT -->
<g id="edge82" class="edge">
<title>SELECT_05&#45;&gt;ARGUMENT</title>
<path fill="none" stroke="gray" d="M497.37,-281.64C509.91,-256.83 511.09,-212.06 500.91,-183.49"/>
<polygon fill="gray" stroke="gray" points="504.03,-181.9 496.83,-174.13 497.61,-184.69 504.03,-181.9"/>
</g>
<!-- SELECT_05_output_0 -->
<g id="node48" class="node">
<title>SELECT_05_output_0</title>
<ellipse fill="black" stroke="black" cx="399" cy="-235.4" rx="1.8" ry="1.8"/>
</g>
<!-- SELECT_05&#45;&gt;SELECT_05_output_0 -->
<g id="edge75" class="edge">
<title>SELECT_05&#45;&gt;SELECT_05_output_0</title>
<path fill="none" stroke="black" d="M446.42,-281.58C436.09,-274.24 424.56,-265.35 415,-256.2 408.1,-249.6 401.45,-240.04 399.54,-237.22"/>
</g>
<!-- PROOF_REFUTED -->
<g id="node32" class="node">
<title>PROOF_REFUTED</title>
<polygon fill="none" stroke="blue" points="513,-38 429,-38 429,0 519,0 519,-32 513,-38"/>
<polyline fill="none" stroke="blue" points="513,-38 513,-32 "/>
<polyline fill="none" stroke="blue" points="519,-32 513,-32 "/>
<text text-anchor="middle" x="474" y="-22.8" font-family="Times,serif" font-size="14.00">PROOF</text>
<text text-anchor="middle" x="474" y="-7.8" font-family="Times,serif" font-size="14.00">REFUTED</text>
</g>
<!-- ARGUMENT&#45;&gt;PROOF_REFUTED -->
<!-- ARGUMENT_output_0 -->
<g id="node49" class="node">
<title>ARGUMENT_output_0</title>
<ellipse fill="black" stroke="black" cx="444" cy="-90.8" rx="1.8" ry="1.8"/>
</g>
<!-- ARGUMENT&#45;&gt;ARGUMENT_output_0 -->
<g id="edge83" class="edge">
<title>ARGUMENT&#45;&gt;ARGUMENT_output_0</title>
<path fill="none" stroke="black" d="M465.8,-137.8C458.03,-121.4 447.17,-98.48 444.57,-93.01"/>
</g>
<!-- ARGUMENT_UNCONTESTED -->
<g id="node33" class="node">
<title>ARGUMENT_UNCONTESTED</title>
<polygon fill="none" stroke="green" points="242,-38 114,-38 114,0 248,0 248,-32 242,-38"/>
<polyline fill="none" stroke="green" points="242,-38 242,-32 "/>
<polyline fill="none" stroke="green" points="248,-32 242,-32 "/>
<text text-anchor="middle" x="181" y="-22.8" font-family="Times,serif" font-size="14.00">ARGUMENT</text>
<text text-anchor="middle" x="181" y="-7.8" font-family="Times,serif" font-size="14.00">UNCONTESTED</text>
</g>
<!-- LOCKED_FUNDS_output_0&#45;&gt;PROOF_UNCONTESTED -->
<g id="edge26" class="edge">
<title>LOCKED_FUNDS_output_0&#45;&gt;PROOF_UNCONTESTED</title>
<path fill="none" stroke="magenta" d="M153.51,-2011.21C166.63,-2009.55 262.56,-1997.01 338,-1976.4 408.7,-1957.09 487.76,-1927.04 538.39,-1906.67"/>
<polygon fill="magenta" stroke="magenta" points="539.85,-1909.86 547.81,-1902.86 537.23,-1903.37 539.85,-1909.86"/>
</g>
<!-- LOCKED_FUNDS_output_0&#45;&gt;STATE_UNCONTESTED_00 -->
<g id="edge27" class="edge">
<title>LOCKED_FUNDS_output_0&#45;&gt;STATE_UNCONTESTED_00</title>
<path fill="none" stroke="magenta" d="M153.66,-2010.96C163.97,-2008.14 219,-1991.46 219,-1956.6 219,-1956.6 219,-1956.6 219,-1825 219,-1810.67 223.31,-1795.69 228.54,-1782.77"/>
<polygon fill="magenta" stroke="magenta" points="231.87,-1783.91 232.67,-1773.34 225.45,-1781.1 231.87,-1783.91"/>
</g>
<!-- LOCKED_FUNDS_output_0&#45;&gt;STATE_UNCONTESTED_01 -->
<g id="edge28" class="edge">
<title>LOCKED_FUNDS_output_0&#45;&gt;STATE_UNCONTESTED_01</title>
<path fill="none" stroke="magenta" d="M152,-2010.04C152,-2003.88 152,-1977.91 152,-1956.6 152,-1956.6 152,-1956.6 152,-1535.8 152,-1518.14 162.21,-1502.98 175.1,-1490.89"/>
<polygon fill="magenta" stroke="magenta" points="177.65,-1493.31 182.94,-1484.13 173.08,-1488.01 177.65,-1493.31"/>
</g>
<!-- LOCKED_FUNDS_output_0&#45;&gt;STATE_UNCONTESTED_02 -->
<g id="edge29" class="edge">
<title>LOCKED_FUNDS_output_0&#45;&gt;STATE_UNCONTESTED_02</title>
<path fill="none" stroke="magenta" d="M151.06,-2010.75C145.21,-2006.64 114,-1983.46 114,-1956.6 114,-1956.6 114,-1956.6 114,-1246.6 114,-1223.76 129.98,-1207.14 149.86,-1195.31"/>
<polygon fill="magenta" stroke="magenta" points="151.81,-1198.23 158.91,-1190.36 148.46,-1192.09 151.81,-1198.23"/>
</g>
<!-- LOCKED_FUNDS_output_0&#45;&gt;STATE_UNCONTESTED_03 -->
<g id="edge30" class="edge">
<title>LOCKED_FUNDS_output_0&#45;&gt;STATE_UNCONTESTED_03</title>
<path fill="none" stroke="magenta" d="M150.68,-2011.15C140.59,-2009.17 76,-1994.99 76,-1956.6 76,-1956.6 76,-1956.6 76,-957.4 76,-920.88 111.7,-901.6 148.15,-891.42"/>
<polygon fill="magenta" stroke="magenta" points="149.1,-894.79 157.91,-888.9 147.35,-888.01 149.1,-894.79"/>
</g>
<!-- LOCKED_FUNDS_output_0&#45;&gt;STATE_UNCONTESTED_04 -->
<g id="edge31" class="edge">
<title>LOCKED_FUNDS_output_0&#45;&gt;STATE_UNCONTESTED_04</title>
<path fill="none" stroke="magenta" d="M150.39,-2011.4C136.53,-2011.31 38,-2008.86 38,-1956.6 38,-1956.6 38,-1956.6 38,-668.2 38,-618.37 95.63,-600.06 146.74,-593.62"/>
<polygon fill="magenta" stroke="magenta" points="147.3,-597.08 156.85,-592.49 146.52,-590.13 147.3,-597.08"/>
</g>
<!-- LOCKED_FUNDS_output_0&#45;&gt;STATE_UNCONTESTED_05 -->
<g id="edge32" class="edge">
<title>LOCKED_FUNDS_output_0&#45;&gt;STATE_UNCONTESTED_05</title>
<path fill="none" stroke="magenta" d="M153.49,-2011.27C170.3,-2009.72 324,-1994.52 324,-1956.6 324,-1956.6 324,-1956.6 324,-1825 324,-1662.11 322,-1621.39 322,-1458.5 322,-1458.5 322,-1458.5 322,-1246.6 322,-1127.75 320,-1098.05 320,-979.2 320,-979.2 320,-979.2 320,-785.5 320,-686.39 314.53,-661.44 300,-563.4 293.9,-522.27 287.54,-512.86 281,-471.8 273.65,-425.66 268.16,-372.03 265.02,-337.52"/>
<polygon fill="magenta" stroke="magenta" points="268.5,-337.1 264.12,-327.45 261.53,-337.72 268.5,-337.1"/>
</g>
<!-- LOCKED_FUNDS_output_0&#45;&gt;ARGUMENT_UNCONTESTED -->
<g id="edge33" class="edge">
<title>LOCKED_FUNDS_output_0&#45;&gt;ARGUMENT_UNCONTESTED</title>
<path fill="none" stroke="magenta" d="M150.29,-2011.18C133.59,-2008.97 0,-1990.26 0,-1956.6 0,-1956.6 0,-1956.6 0,-89.8 0,-66.08 54.8,-47.33 104.09,-35.26"/>
<polygon fill="magenta" stroke="magenta" points="104.94,-38.66 113.86,-32.94 103.32,-31.85 104.94,-38.66"/>
</g>
<!-- PROOF_output_0&#45;&gt;PROOF_UNCONTESTED -->
<g id="edge36" class="edge">
<title>PROOF_output_0&#45;&gt;PROOF_UNCONTESTED</title>
<path fill="none" stroke="green" stroke-dasharray="5,2" d="M570.3,-1953.61C571.66,-1949.07 577.5,-1929.66 582.63,-1912.61"/>
<polygon fill="green" stroke="green" points="586,-1913.55 585.53,-1902.97 579.3,-1911.54 586,-1913.55"/>
<text text-anchor="middle" x="617.5" y="-1924.6" font-family="Times,serif" font-size="14.00">180 blocks</text>
</g>
<!-- PROOF_output_0&#45;&gt;CHALLENGE_UNCONTESTED -->
<g id="edge37" class="edge">
<title>PROOF_output_0&#45;&gt;CHALLENGE_UNCONTESTED</title>
<path fill="none" stroke="blue" stroke-dasharray="5,2" d="M571.78,-1954.46C581.21,-1953.65 626.18,-1949.25 660,-1935.8 677.6,-1928.8 695.69,-1918.16 710.47,-1908.41"/>
<polygon fill="blue" stroke="blue" points="712.44,-1911.3 718.76,-1902.8 708.52,-1905.5 712.44,-1911.3"/>
<text text-anchor="middle" x="726.5" y="-1924.6" font-family="Times,serif" font-size="14.00">360 blocks</text>
</g>
<!-- PROOF_output_0&#45;&gt;STATE_00 -->
<g id="edge38" class="edge">
<title>PROOF_output_0&#45;&gt;STATE_00</title>
<path fill="none" stroke="green" d="M568.92,-1953.82C562.81,-1949.38 531.95,-1926.94 507.05,-1908.83"/>
<polygon fill="green" stroke="green" points="509.02,-1905.94 498.88,-1902.89 504.91,-1911.6 509.02,-1905.94"/>
</g>
<!-- PROOF_output_1&#45;&gt;CHALLENGE -->
<g id="edge40" class="edge">
<title>PROOF_output_1&#45;&gt;CHALLENGE</title>
<path fill="none" stroke="gray" d="M807.86,-1953.82C812.77,-1949.37 837.54,-1926.91 857.52,-1908.8"/>
<polygon fill="gray" stroke="gray" points="860.11,-1911.18 865.16,-1901.88 855.4,-1906 860.11,-1911.18"/>
</g>
<!-- PROOF_output_1&#45;&gt;PROOF_UNCONTESTED -->
<g id="edge41" class="edge">
<title>PROOF_output_1&#45;&gt;PROOF_UNCONTESTED</title>
<path fill="none" stroke="gray" d="M806.2,-1953.55C802.54,-1948.83 786.8,-1929.42 769,-1920.8 730.24,-1902.04 714.19,-1910.77 668.07,-1902.81"/>
<polygon fill="gray" stroke="gray" points="668.57,-1899.34 658.09,-1900.91 667.26,-1906.22 668.57,-1899.34"/>
</g>
<!-- STATE_00_output_0&#45;&gt;STATE_UNCONTESTED_00 -->
<g id="edge43" class="edge">
<title>STATE_00_output_0&#45;&gt;STATE_UNCONTESTED_00</title>
<path fill="none" stroke="green" stroke-dasharray="5,2" d="M442.58,-1824.74C435.04,-1823.33 399.07,-1816.33 371,-1806.2 348.87,-1798.21 325.34,-1787.67 304.79,-1777.73"/>
<polygon fill="green" stroke="green" points="306.09,-1774.48 295.57,-1773.22 303.02,-1780.76 306.09,-1774.48"/>
<text text-anchor="middle" x="409.5" y="-1795" font-family="Times,serif" font-size="14.00">180 blocks</text>
</g>
<!-- STATE_00_output_0&#45;&gt;SELECT_00 -->
<g id="edge44" class="edge">
<title>STATE_00_output_0&#45;&gt;SELECT_00</title>
<path fill="none" stroke="blue" d="M444.34,-1824.13C446.21,-1819.31 455.53,-1795.3 463.23,-1775.46"/>
<polygon fill="blue" stroke="blue" points="466.59,-1776.46 466.95,-1765.87 460.07,-1773.93 466.59,-1776.46"/>
</g>
<!-- SELECT_00_output_0&#45;&gt;SELECT_UNCONTESTED_00 -->
<g id="edge46" class="edge">
<title>SELECT_00_output_0&#45;&gt;SELECT_UNCONTESTED_00</title>
<path fill="none" stroke="blue" stroke-dasharray="5,2" d="M591,-1679.53C591,-1675.37 591,-1656.95 591,-1639.24"/>
<polygon fill="blue" stroke="blue" points="594.5,-1639 591,-1629 587.5,-1639 594.5,-1639"/>
<text text-anchor="middle" x="629.5" y="-1650.4" font-family="Times,serif" font-size="14.00">180 blocks</text>
</g>
<!-- SELECT_00_output_0&#45;&gt;STATE_01 -->
<g id="edge47" class="edge">
<title>SELECT_00_output_0&#45;&gt;STATE_01</title>
<path fill="none" stroke="green" d="M589.69,-1679.53C581.88,-1674.38 540.93,-1647.32 509.94,-1626.85"/>
<polygon fill="green" stroke="green" points="511.78,-1623.86 501.51,-1621.27 507.92,-1629.7 511.78,-1623.86"/>
</g>
<!-- STATE_01_output_0&#45;&gt;STATE_UNCONTESTED_01 -->
<g id="edge49" class="edge">
<title>STATE_01_output_0&#45;&gt;STATE_UNCONTESTED_01</title>
<path fill="none" stroke="green" stroke-dasharray="5,2" d="M442.59,-1535.51C435.1,-1533.96 399.33,-1526.36 371,-1517 345.55,-1508.6 318.18,-1497.91 294.2,-1487.97"/>
<polygon fill="green" stroke="green" points="295.42,-1484.69 284.84,-1484.06 292.72,-1491.15 295.42,-1484.69"/>
<text text-anchor="middle" x="409.5" y="-1505.8" font-family="Times,serif" font-size="14.00">180 blocks</text>
</g>
<!-- STATE_01_output_0&#45;&gt;SELECT_01 -->
<g id="edge50" class="edge">
<title>STATE_01_output_0&#45;&gt;SELECT_01</title>
<path fill="none" stroke="blue" d="M444.34,-1534.93C446.21,-1530.11 455.53,-1506.1 463.23,-1486.26"/>
<polygon fill="blue" stroke="blue" points="466.59,-1487.26 466.95,-1476.67 460.07,-1484.73 466.59,-1487.26"/>
</g>
<!-- SELECT_01_output_0&#45;&gt;SELECT_UNCONTESTED_01 -->
<g id="edge52" class="edge">
<title>SELECT_01_output_0&#45;&gt;SELECT_UNCONTESTED_01</title>
<path fill="none" stroke="blue" stroke-dasharray="5,2" d="M504.98,-1390.33C509.96,-1385.9 533.17,-1365.28 554.23,-1346.57"/>
<polygon fill="blue" stroke="blue" points="556.7,-1349.06 561.85,-1339.8 552.05,-1343.83 556.7,-1349.06"/>
<text text-anchor="middle" x="577.5" y="-1361.2" font-family="Times,serif" font-size="14.00">180 blocks</text>
</g>
<!-- SELECT_01_output_0&#45;&gt;STATE_02 -->
<g id="edge53" class="edge">
<title>SELECT_01_output_0&#45;&gt;STATE_02</title>
<path fill="none" stroke="green" d="M503.66,-1390.33C501.79,-1385.51 492.47,-1361.5 484.77,-1341.66"/>
<polygon fill="green" stroke="green" points="487.93,-1340.13 481.05,-1332.07 481.41,-1342.66 487.93,-1340.13"/>
</g>
<!-- STATE_02_output_0&#45;&gt;STATE_UNCONTESTED_02 -->
<g id="edge55" class="edge">
<title>STATE_02_output_0&#45;&gt;STATE_UNCONTESTED_02</title>
<path fill="none" stroke="green" stroke-dasharray="5,2" d="M442.59,-1246.31C435.1,-1244.75 399.34,-1237.12 371,-1227.8 345.39,-1219.38 317.83,-1208.68 293.68,-1198.75"/>
<polygon fill="green" stroke="green" points="294.84,-1195.44 284.26,-1194.84 292.16,-1201.91 294.84,-1195.44"/>
<text text-anchor="middle" x="409.5" y="-1216.6" font-family="Times,serif" font-size="14.00">180 blocks</text>
</g>
<!-- STATE_02_output_0&#45;&gt;SELECT_02 -->
<g id="edge56" class="edge">
<title>STATE_02_output_0&#45;&gt;SELECT_02</title>
<path fill="none" stroke="blue" d="M444.34,-1245.73C446.21,-1240.91 455.53,-1216.9 463.23,-1197.06"/>
<polygon fill="blue" stroke="blue" points="466.59,-1198.06 466.95,-1187.47 460.07,-1195.53 466.59,-1198.06"/>
</g>
<!-- SELECT_02_output_0&#45;&gt;SELECT_UNCONTESTED_02 -->
<g id="edge58" class="edge">
<title>SELECT_02_output_0&#45;&gt;SELECT_UNCONTESTED_02</title>
<path fill="none" stroke="blue" stroke-dasharray="5,2" d="M504.98,-1101.13C509.96,-1096.7 533.17,-1076.08 554.23,-1057.37"/>
<polygon fill="blue" stroke="blue" points="556.7,-1059.86 561.85,-1050.6 552.05,-1054.63 556.7,-1059.86"/>
<text text-anchor="middle" x="577.5" y="-1072" font-family="Times,serif" font-size="14.00">180 blocks</text>
</g>
<!-- SELECT_02_output_0&#45;&gt;STATE_03 -->
<g id="edge59" class="edge">
<title>SELECT_02_output_0&#45;&gt;STATE_03</title>
<path fill="none" stroke="green" d="M503.66,-1101.13C501.79,-1096.31 492.47,-1072.3 484.77,-1052.46"/>
<polygon fill="green" stroke="green" points="487.93,-1050.93 481.05,-1042.87 481.41,-1053.46 487.93,-1050.93"/>
</g>
<!-- STATE_03_output_0&#45;&gt;STATE_UNCONTESTED_03 -->
<g id="edge61" class="edge">
<title>STATE_03_output_0&#45;&gt;STATE_UNCONTESTED_03</title>
<path fill="none" stroke="green" stroke-dasharray="5,2" d="M442.59,-957.11C435.11,-955.54 399.36,-947.89 371,-938.6 345.23,-930.16 317.48,-919.46 293.16,-909.53"/>
<polygon fill="green" stroke="green" points="294.26,-906.19 283.68,-905.62 291.59,-912.67 294.26,-906.19"/>
<text text-anchor="middle" x="409.5" y="-927.4" font-family="Times,serif" font-size="14.00">180 blocks</text>
</g>
<!-- STATE_03_output_0&#45;&gt;SELECT_03 -->
<g id="edge62" class="edge">
<title>STATE_03_output_0&#45;&gt;SELECT_03</title>
<path fill="none" stroke="blue" d="M444.34,-956.53C446.21,-951.71 455.53,-927.7 463.23,-907.86"/>
<polygon fill="blue" stroke="blue" points="466.59,-908.86 466.95,-898.27 460.07,-906.33 466.59,-908.86"/>
</g>
<!-- SELECT_03_output_0&#45;&gt;SELECT_UNCONTESTED_03 -->
<g id="edge64" class="edge">
<title>SELECT_03_output_0&#45;&gt;SELECT_UNCONTESTED_03</title>
<path fill="none" stroke="blue" stroke-dasharray="5,2" d="M504.98,-811.93C509.96,-807.5 533.17,-786.88 554.23,-768.17"/>
<polygon fill="blue" stroke="blue" points="556.7,-770.66 561.85,-761.4 552.05,-765.43 556.7,-770.66"/>
<text text-anchor="middle" x="577.5" y="-782.8" font-family="Times,serif" font-size="14.00">180 blocks</text>
</g>
<!-- SELECT_03_output_0&#45;&gt;STATE_04 -->
<g id="edge65" class="edge">
<title>SELECT_03_output_0&#45;&gt;STATE_04</title>
<path fill="none" stroke="green" d="M503.66,-811.93C501.79,-807.11 492.47,-783.1 484.77,-763.26"/>
<polygon fill="green" stroke="green" points="487.93,-761.73 481.05,-753.67 481.41,-764.26 487.93,-761.73"/>
</g>
<!-- STATE_04_output_0&#45;&gt;STATE_UNCONTESTED_04 -->
<g id="edge67" class="edge">
<title>STATE_04_output_0&#45;&gt;STATE_UNCONTESTED_04</title>
<path fill="none" stroke="green" stroke-dasharray="5,2" d="M442.59,-667.91C435.11,-666.34 399.37,-658.66 371,-649.4 345.07,-640.94 317.13,-630.24 292.65,-620.31"/>
<polygon fill="green" stroke="green" points="293.67,-616.95 283.09,-616.4 291.03,-623.43 293.67,-616.95"/>
<text text-anchor="middle" x="409.5" y="-638.2" font-family="Times,serif" font-size="14.00">180 blocks</text>
</g>
<!-- STATE_04_output_0&#45;&gt;SELECT_04 -->
<g id="edge68" class="edge">
<title>STATE_04_output_0&#45;&gt;SELECT_04</title>
<path fill="none" stroke="blue" d="M444.34,-667.33C446.21,-662.51 455.53,-638.5 463.23,-618.66"/>
<polygon fill="blue" stroke="blue" points="466.59,-619.66 466.95,-609.07 460.07,-617.13 466.59,-619.66"/>
</g>
<!-- SELECT_04_output_0&#45;&gt;SELECT_UNCONTESTED_04 -->
<g id="edge70" class="edge">
<title>SELECT_04_output_0&#45;&gt;SELECT_UNCONTESTED_04</title>
<path fill="none" stroke="blue" stroke-dasharray="5,2" d="M442.32,-523.74C433.48,-524.37 391.92,-526.08 371,-504.8 364.9,-498.59 361.28,-490.22 359.19,-481.76"/>
<polygon fill="blue" stroke="blue" points="362.62,-481.1 357.36,-471.9 355.74,-482.37 362.62,-481.1"/>
<text text-anchor="middle" x="409.5" y="-493.6" font-family="Times,serif" font-size="14.00">180 blocks</text>
</g>
<!-- SELECT_04_output_0&#45;&gt;STATE_05 -->
<g id="edge71" class="edge">
<title>SELECT_04_output_0&#45;&gt;STATE_05</title>
<path fill="none" stroke="green" d="M444.34,-522.73C446.21,-517.91 455.53,-493.9 463.23,-474.06"/>
<polygon fill="green" stroke="green" points="466.59,-475.06 466.95,-464.47 460.07,-472.53 466.59,-475.06"/>
</g>
<!-- STATE_05_output_0&#45;&gt;STATE_UNCONTESTED_05 -->
<g id="edge73" class="edge">
<title>STATE_05_output_0&#45;&gt;STATE_UNCONTESTED_05</title>
<path fill="none" stroke="green" stroke-dasharray="5,2" d="M442.57,-378.76C434.98,-377.49 398.79,-371.05 371,-360.2 351.41,-352.55 330.86,-342.19 312.94,-332.32"/>
<polygon fill="green" stroke="green" points="314.27,-329.05 303.84,-327.21 310.85,-335.16 314.27,-329.05"/>
<text text-anchor="middle" x="409.5" y="-349" font-family="Times,serif" font-size="14.00">180 blocks</text>
</g>
<!-- STATE_05_output_0&#45;&gt;SELECT_05 -->
<g id="edge74" class="edge">
<title>STATE_05_output_0&#45;&gt;SELECT_05</title>
<path fill="none" stroke="blue" d="M444.34,-378.13C446.21,-373.31 455.53,-349.3 463.23,-329.46"/>
<polygon fill="blue" stroke="blue" points="466.59,-330.46 466.95,-319.87 460.07,-327.93 466.59,-330.46"/>
</g>
<!-- SELECT_05_output_0&#45;&gt;SELECT_UNCONTESTED_05 -->
<g id="edge76" class="edge">
<title>SELECT_05_output_0&#45;&gt;SELECT_UNCONTESTED_05</title>
<path fill="none" stroke="blue" stroke-dasharray="5,2" d="M397.32,-234.54C388.48,-235.17 346.92,-236.88 326,-215.6 319.9,-209.39 316.28,-201.02 314.19,-192.56"/>
<polygon fill="blue" stroke="blue" points="317.62,-191.9 312.36,-182.7 310.74,-193.17 317.62,-191.9"/>
<text text-anchor="middle" x="364.5" y="-204.4" font-family="Times,serif" font-size="14.00">180 blocks</text>
</g>
<!-- SELECT_05_output_0&#45;&gt;ARGUMENT -->
<g id="edge77" class="edge">
<title>SELECT_05_output_0&#45;&gt;ARGUMENT</title>
<path fill="none" stroke="green" d="M399.36,-233.48C400.99,-229.33 408.16,-212.02 418,-200.6 424.26,-193.34 431.88,-186.47 439.47,-180.43"/>
<polygon fill="green" stroke="green" points="441.79,-183.06 447.63,-174.22 437.55,-177.5 441.79,-183.06"/>
</g>
<!-- ARGUMENT_output_0&#45;&gt;PROOF_REFUTED -->
<g id="edge84" class="edge">
<title>ARGUMENT_output_0&#45;&gt;PROOF_REFUTED</title>
<path fill="none" stroke="blue" d="M444.34,-89.02C446.13,-84.85 454.74,-64.8 462.23,-47.38"/>
<polygon fill="blue" stroke="blue" points="465.49,-48.66 466.23,-38.09 459.06,-45.89 465.49,-48.66"/>
</g>
<!-- ARGUMENT_output_0&#45;&gt;ARGUMENT_UNCONTESTED -->
<g id="edge85" class="edge">
<title>ARGUMENT_output_0&#45;&gt;ARGUMENT_UNCONTESTED</title>
<path fill="none" stroke="green" stroke-dasharray="5,2" d="M442.61,-89.45C435.22,-87.57 399.86,-78.59 371,-71 333.72,-61.2 292.38,-50.13 257.81,-40.81"/>
<polygon fill="green" stroke="green" points="258.35,-37.33 247.78,-38.1 256.53,-44.09 258.35,-37.33"/>
<text text-anchor="middle" x="409.5" y="-59.8" font-family="Times,serif" font-size="14.00">180 blocks</text>
</g>
</g>
</svg>
