<?xml version="1.0" encoding="UTF-8" standalone="no"?>
<!DOCTYPE svg PUBLIC "-//W3C//DTD SVG 1.1//EN"
 "http://www.w3.org/Graphics/SVG/1.1/DTD/svg11.dtd">
<!-- Generated by graphviz version 2.42.4 (0)
 -->
<!-- Title: BitSnark Pages: 1 -->
<svg width="612pt" height="758pt"
 viewBox="0.00 0.00 612.02 758.14" xmlns="http://www.w3.org/2000/svg" xmlns:xlink="http://www.w3.org/1999/xlink">
<g id="graph0" class="graph" transform="scale(1 1) rotate(0) translate(4 754.14)">
<title>BitSnark</title>
<polygon fill="white" stroke="transparent" points="-4,4 -4,-754.14 608.02,-754.14 608.02,4 -4,4"/>
<!-- LOCKED_FUNDS -->
<g id="node1" class="node">
<title>LOCKED_FUNDS</title>
<ellipse fill="none" stroke="magenta" cx="57" cy="-723.27" rx="56.64" ry="26.74"/>
<text text-anchor="middle" x="57" y="-727.07" font-family="Times,serif" font-size="14.00">LOCKED</text>
<text text-anchor="middle" x="57" y="-712.07" font-family="Times,serif" font-size="14.00">FUNDS</text>
</g>
<!-- PROOF_UNCONTESTED -->
<g id="node5" class="node">
<title>PROOF_UNCONTESTED</title>
<polygon fill="none" stroke="green" points="194,-531.8 66,-531.8 66,-493.8 200,-493.8 200,-525.8 194,-531.8"/>
<polyline fill="none" stroke="green" points="194,-531.8 194,-525.8 "/>
<polyline fill="none" stroke="green" points="200,-525.8 194,-525.8 "/>
<text text-anchor="middle" x="133" y="-516.6" font-family="Times,serif" font-size="14.00">PROOF</text>
<text text-anchor="middle" x="133" y="-501.6" font-family="Times,serif" font-size="14.00">UNCONTESTED</text>
</g>
<!-- LOCKED_FUNDS&#45;&gt;PROOF_UNCONTESTED -->
<!-- LOCKED_FUNDS_output_0 -->
<g id="node15" class="node">
<title>LOCKED_FUNDS_output_0</title>
<ellipse fill="black" stroke="black" cx="57" cy="-641.4" rx="1.8" ry="1.8"/>
</g>
<!-- LOCKED_FUNDS&#45;&gt;LOCKED_FUNDS_output_0 -->
<g id="edge6" class="edge">
<title>LOCKED_FUNDS&#45;&gt;LOCKED_FUNDS_output_0</title>
<path fill="none" stroke="magenta" d="M57,-696.12C57,-675.74 57,-649.89 57,-643.75"/>
</g>
<!-- PROVER_STAKE -->
<g id="node2" class="node">
<title>PROVER_STAKE</title>
<ellipse fill="none" stroke="green" cx="532" cy="-723.27" rx="55.72" ry="26.74"/>
<text text-anchor="middle" x="532" y="-727.07" font-family="Times,serif" font-size="14.00">PROVER</text>
<text text-anchor="middle" x="532" y="-712.07" font-family="Times,serif" font-size="14.00">STAKE</text>
</g>
<!-- PROOF -->
<g id="node3" class="node">
<title>PROOF</title>
<polygon fill="none" stroke="green" points="566.5,-659.4 497.5,-659.4 497.5,-623.4 566.5,-623.4 566.5,-659.4"/>
<text text-anchor="middle" x="532" y="-637.7" font-family="Times,serif" font-size="14.00">PROOF</text>
</g>
<!-- PROVER_STAKE&#45;&gt;PROOF -->
<g id="edge10" class="edge">
<title>PROVER_STAKE&#45;&gt;PROOF</title>
<path fill="none" stroke="green" d="M532,-696.12C532,-687.67 532,-678.29 532,-669.76"/>
<polygon fill="green" stroke="green" points="535.5,-669.55 532,-659.55 528.5,-669.55 535.5,-669.55"/>
</g>
<!-- STATE_00 -->
<g id="node7" class="node">
<title>STATE_00</title>
<polygon fill="none" stroke="green" points="563.5,-531.8 500.5,-531.8 500.5,-493.8 563.5,-493.8 563.5,-531.8"/>
<text text-anchor="middle" x="532" y="-516.6" font-family="Times,serif" font-size="14.00">STATE</text>
<text text-anchor="middle" x="532" y="-501.6" font-family="Times,serif" font-size="14.00">00</text>
</g>
<!-- PROOF&#45;&gt;STATE_00 -->
<!-- PROOF&#45;&gt;STATE_00 -->
<g id="edge15" class="edge">
<title>PROOF&#45;&gt;STATE_00</title>
<path fill="none" stroke="gray" d="M536.79,-623.33C539.04,-602.51 539.35,-567.04 537.73,-542.12"/>
<polygon fill="gray" stroke="gray" points="541.2,-541.51 536.89,-531.83 534.22,-542.08 541.2,-541.51"/>
</g>
<!-- PROOF_output_0 -->
<g id="node16" class="node">
<title>PROOF_output_0</title>
<ellipse fill="black" stroke="black" cx="429" cy="-584.6" rx="1.8" ry="1.8"/>
</g>
<!-- PROOF&#45;&gt;PROOF_output_0 -->
<g id="edge11" class="edge">
<title>PROOF&#45;&gt;PROOF_output_0</title>
<path fill="none" stroke="black" d="M499.97,-623.36C472.57,-608.78 436.55,-589.61 430.03,-586.15"/>
</g>
<!-- PROOF_output_2 -->
<g id="node17" class="node">
<title>PROOF_output_2</title>
<ellipse fill="black" stroke="black" cx="273" cy="-584.6" rx="1.8" ry="1.8"/>
</g>
<!-- PROOF&#45;&gt;PROOF_output_2 -->
<g id="edge16" class="edge">
<title>PROOF&#45;&gt;PROOF_output_2</title>
<path fill="none" stroke="gray" d="M497.34,-633.07C430.62,-618.95 289.57,-589.11 274.34,-585.88"/>
</g>
<!-- CHALLENGE -->
<g id="node4" class="node">
<title>CHALLENGE</title>
<polygon fill="none" stroke="blue" points="323.5,-530.8 218.5,-530.8 218.5,-494.8 329.5,-494.8 329.5,-524.8 323.5,-530.8"/>
<polyline fill="none" stroke="blue" points="323.5,-530.8 323.5,-524.8 "/>
<polyline fill="none" stroke="blue" points="329.5,-524.8 323.5,-524.8 "/>
<text text-anchor="middle" x="274" y="-509.1" font-family="Times,serif" font-size="14.00">CHALLENGE</text>
</g>
<!-- CHALLENGE_UNCONTESTED -->
<g id="node6" class="node">
<title>CHALLENGE_UNCONTESTED</title>
<polygon fill="none" stroke="blue" points="476,-531.8 348,-531.8 348,-493.8 482,-493.8 482,-525.8 476,-531.8"/>
<polyline fill="none" stroke="blue" points="476,-531.8 476,-525.8 "/>
<polyline fill="none" stroke="blue" points="482,-525.8 476,-525.8 "/>
<text text-anchor="middle" x="415" y="-516.6" font-family="Times,serif" font-size="14.00">CHALLENGE</text>
<text text-anchor="middle" x="415" y="-501.6" font-family="Times,serif" font-size="14.00">UNCONTESTED</text>
</g>
<!-- Dissection -->
<g id="node9" class="node">
<title>Dissection</title>
<polygon fill="none" stroke="black" points="596.03,-368.24 596.03,-383.16 558.52,-393.7 505.48,-393.7 467.97,-383.16 467.97,-368.24 505.48,-357.7 558.52,-357.7 596.03,-368.24"/>
<polygon fill="none" stroke="black" points="600.03,-365.21 600.03,-386.19 559.08,-397.7 504.92,-397.7 463.97,-386.19 463.97,-365.21 504.92,-353.7 559.08,-353.7 600.03,-365.21"/>
<polygon fill="none" stroke="black" points="604.04,-362.18 604.04,-389.22 559.63,-401.7 504.37,-401.7 459.96,-389.22 459.96,-362.18 504.37,-349.7 559.63,-349.7 604.04,-362.18"/>
<text text-anchor="middle" x="532" y="-372" font-family="Times,serif" font-size="14.00">Dissection</text>
</g>
<!-- STATE_00&#45;&gt;Dissection -->
<!-- STATE_00_output_0 -->
<g id="node18" class="node">
<title>STATE_00_output_0</title>
<ellipse fill="black" stroke="black" cx="502" cy="-455" rx="1.8" ry="1.8"/>
</g>
<!-- STATE_00&#45;&gt;STATE_00_output_0 -->
<g id="edge19" class="edge">
<title>STATE_00&#45;&gt;STATE_00_output_0</title>
<path fill="none" stroke="black" d="M522.18,-493.53C514.52,-479.29 504.82,-461.24 502.51,-456.95"/>
</g>
<!-- STATE_UNCONTESTED_00 -->
<g id="node8" class="node">
<title>STATE_UNCONTESTED_00</title>
<polygon fill="none" stroke="green" points="296,-402.2 168,-402.2 168,-349.2 302,-349.2 302,-396.2 296,-402.2"/>
<polyline fill="none" stroke="green" points="296,-402.2 296,-396.2 "/>
<polyline fill="none" stroke="green" points="302,-396.2 296,-396.2 "/>
<text text-anchor="middle" x="235" y="-387" font-family="Times,serif" font-size="14.00">STATE</text>
<text text-anchor="middle" x="235" y="-372" font-family="Times,serif" font-size="14.00">UNCONTESTED</text>
<text text-anchor="middle" x="235" y="-357" font-family="Times,serif" font-size="14.00">00</text>
</g>
<!-- SELECT_05 -->
<g id="node10" class="node">
<title>SELECT_05</title>
<polygon fill="none" stroke="blue" points="570,-312.2 494,-312.2 494,-274.2 570,-274.2 570,-312.2"/>
<text text-anchor="middle" x="532" y="-297" font-family="Times,serif" font-size="14.00">SELECT</text>
<text text-anchor="middle" x="532" y="-282" font-family="Times,serif" font-size="14.00">05</text>
</g>
<!-- Dissection&#45;&gt;SELECT_05 -->
<!-- Dissection&#45;&gt;SELECT_05 -->
<g id="edge22" class="edge">
<title>Dissection&#45;&gt;SELECT_05</title>
<path fill="none" stroke="green" d="M538.3,-349.67C538.83,-341.07 538.89,-331.39 538.48,-322.55"/>
<polygon fill="green" stroke="green" points="541.95,-322.03 537.75,-312.31 534.97,-322.54 541.95,-322.03"/>
</g>
<!-- ARGUMENT -->
<g id="node12" class="node">
<title>ARGUMENT</title>
<polygon fill="none" stroke="green" points="585,-174.1 479,-174.1 479,-138.1 585,-138.1 585,-174.1"/>
<text text-anchor="middle" x="532" y="-152.4" font-family="Times,serif" font-size="14.00">ARGUMENT</text>
</g>
<!-- SELECT_05&#45;&gt;ARGUMENT -->
<!-- SELECT_05&#45;&gt;ARGUMENT -->
<g id="edge26" class="edge">
<title>SELECT_05&#45;&gt;ARGUMENT</title>
<path fill="none" stroke="gray" d="M503.27,-273.98C489.09,-250.63 487.72,-209.99 499.18,-183.32"/>
<polygon fill="gray" stroke="gray" points="502.43,-184.66 503.98,-174.18 496.23,-181.4 502.43,-184.66"/>
</g>
<!-- SELECT_05&#45;&gt;ARGUMENT -->
<g id="edge27" class="edge">
<title>SELECT_05&#45;&gt;ARGUMENT</title>
<path fill="none" stroke="gray" d="M512.85,-273.98C503.43,-250.73 502.49,-210.35 510.02,-183.67"/>
<polygon fill="gray" stroke="gray" points="513.34,-184.78 513.32,-174.18 506.73,-182.48 513.34,-184.78"/>
</g>
<!-- SELECT_05&#45;&gt;ARGUMENT -->
<g id="edge28" class="edge">
<title>SELECT_05&#45;&gt;ARGUMENT</title>
<path fill="none" stroke="gray" d="M522.42,-273.98C517.76,-250.94 517.25,-211.06 520.91,-184.38"/>
<polygon fill="gray" stroke="gray" points="524.42,-184.63 522.66,-174.18 517.52,-183.44 524.42,-184.63"/>
</g>
<!-- SELECT_05&#45;&gt;ARGUMENT -->
<g id="edge29" class="edge">
<title>SELECT_05&#45;&gt;ARGUMENT</title>
<path fill="none" stroke="gray" d="M532,-273.98C532,-250.94 532,-211.06 532,-184.38"/>
<polygon fill="gray" stroke="gray" points="535.5,-184.18 532,-174.18 528.5,-184.18 535.5,-184.18"/>
</g>
<!-- SELECT_05&#45;&gt;ARGUMENT -->
<g id="edge30" class="edge">
<title>SELECT_05&#45;&gt;ARGUMENT</title>
<path fill="none" stroke="gray" d="M541.58,-273.98C546.24,-250.94 546.75,-211.06 543.09,-184.38"/>
<polygon fill="gray" stroke="gray" points="546.48,-183.44 541.34,-174.18 539.58,-184.63 546.48,-183.44"/>
</g>
<!-- SELECT_05&#45;&gt;ARGUMENT -->
<g id="edge31" class="edge">
<title>SELECT_05&#45;&gt;ARGUMENT</title>
<path fill="none" stroke="gray" d="M551.15,-273.98C560.57,-250.73 561.51,-210.35 553.98,-183.67"/>
<polygon fill="gray" stroke="gray" points="557.27,-182.48 550.68,-174.18 550.66,-184.78 557.27,-182.48"/>
</g>
<!-- SELECT_05&#45;&gt;ARGUMENT -->
<g id="edge32" class="edge">
<title>SELECT_05&#45;&gt;ARGUMENT</title>
<path fill="none" stroke="gray" d="M560.73,-273.98C574.91,-250.63 576.28,-209.99 564.82,-183.32"/>
<polygon fill="gray" stroke="gray" points="567.77,-181.4 560.02,-174.18 561.57,-184.66 567.77,-181.4"/>
</g>
<!-- SELECT_05&#45;&gt;ARGUMENT -->
<g id="edge33" class="edge">
<title>SELECT_05&#45;&gt;ARGUMENT</title>
<path fill="none" stroke="gray" d="M570.08,-274.26C589.34,-250.79 591.13,-209.5 575.42,-182.73"/>
<polygon fill="gray" stroke="gray" points="578.06,-180.4 569.43,-174.26 572.35,-184.44 578.06,-180.4"/>
</g>
<!-- SELECT_05_output_0 -->
<g id="node19" class="node">
<title>SELECT_05_output_0</title>
<ellipse fill="black" stroke="black" cx="430" cy="-235.4" rx="1.8" ry="1.8"/>
</g>
<!-- SELECT_05&#45;&gt;SELECT_05_output_0 -->
<g id="edge23" class="edge">
<title>SELECT_05&#45;&gt;SELECT_05_output_0</title>
<path fill="none" stroke="black" d="M493.63,-280.25C478.29,-274.41 460.98,-266.41 447,-256.2 439.1,-250.43 432.43,-240.3 430.54,-237.28"/>
</g>
<!-- SELECT_UNCONTESTED_05 -->
<g id="node11" class="node">
<title>SELECT_UNCONTESTED_05</title>
<polygon fill="none" stroke="blue" points="404,-182.6 276,-182.6 276,-129.6 410,-129.6 410,-176.6 404,-182.6"/>
<polyline fill="none" stroke="blue" points="404,-182.6 404,-176.6 "/>
<polyline fill="none" stroke="blue" points="410,-176.6 404,-176.6 "/>
<text text-anchor="middle" x="343" y="-167.4" font-family="Times,serif" font-size="14.00">SELECT</text>
<text text-anchor="middle" x="343" y="-152.4" font-family="Times,serif" font-size="14.00">UNCONTESTED</text>
<text text-anchor="middle" x="343" y="-137.4" font-family="Times,serif" font-size="14.00">05</text>
</g>
<!-- PROOF_REFUTED -->
<g id="node13" class="node">
<title>PROOF_REFUTED</title>
<polygon fill="none" stroke="blue" points="571,-38 487,-38 487,0 577,0 577,-32 571,-38"/>
<polyline fill="none" stroke="blue" points="571,-38 571,-32 "/>
<polyline fill="none" stroke="blue" points="577,-32 571,-32 "/>
<text text-anchor="middle" x="532" y="-22.8" font-family="Times,serif" font-size="14.00">PROOF</text>
<text text-anchor="middle" x="532" y="-7.8" font-family="Times,serif" font-size="14.00">REFUTED</text>
</g>
<!-- ARGUMENT&#45;&gt;PROOF_REFUTED -->
<!-- ARGUMENT_output_0 -->
<g id="node20" class="node">
<title>ARGUMENT_output_0</title>
<ellipse fill="black" stroke="black" cx="502" cy="-90.8" rx="1.8" ry="1.8"/>
</g>
<!-- ARGUMENT&#45;&gt;ARGUMENT_output_0 -->
<g id="edge34" class="edge">
<title>ARGUMENT&#45;&gt;ARGUMENT_output_0</title>
<path fill="none" stroke="black" d="M523.8,-137.8C516.03,-121.4 505.17,-98.48 502.57,-93.01"/>
</g>
<!-- ARGUMENT_UNCONTESTED -->
<g id="node14" class="node">
<title>ARGUMENT_UNCONTESTED</title>
<polygon fill="none" stroke="green" points="262,-38 134,-38 134,0 268,0 268,-32 262,-38"/>
<polyline fill="none" stroke="green" points="262,-38 262,-32 "/>
<polyline fill="none" stroke="green" points="268,-32 262,-32 "/>
<text text-anchor="middle" x="201" y="-22.8" font-family="Times,serif" font-size="14.00">ARGUMENT</text>
<text text-anchor="middle" x="201" y="-7.8" font-family="Times,serif" font-size="14.00">UNCONTESTED</text>
</g>
<!-- LOCKED_FUNDS_output_0&#45;&gt;PROOF_UNCONTESTED -->
<g id="edge7" class="edge">
<title>LOCKED_FUNDS_output_0&#45;&gt;PROOF_UNCONTESTED</title>
<path fill="none" stroke="magenta" d="M57.49,-639.59C61.94,-632.17 96.06,-575.34 116.88,-540.66"/>
<polygon fill="magenta" stroke="magenta" points="119.96,-542.31 122.11,-531.94 113.96,-538.71 119.96,-542.31"/>
</g>
<!-- LOCKED_FUNDS_output_0&#45;&gt;STATE_UNCONTESTED_00 -->
<g id="edge8" class="edge">
<title>LOCKED_FUNDS_output_0&#45;&gt;STATE_UNCONTESTED_00</title>
<path fill="none" stroke="magenta" d="M56.53,-639.66C53.6,-634.99 38,-608.96 38,-585.6 38,-585.6 38,-585.6 38,-454 38,-427.05 102.68,-405.61 157.92,-392.21"/>
<polygon fill="magenta" stroke="magenta" points="158.83,-395.59 167.75,-389.88 157.22,-388.78 158.83,-395.59"/>
</g>
<!-- LOCKED_FUNDS_output_0&#45;&gt;ARGUMENT_UNCONTESTED -->
<g id="edge9" class="edge">
<title>LOCKED_FUNDS_output_0&#45;&gt;ARGUMENT_UNCONTESTED</title>
<path fill="none" stroke="magenta" d="M55.59,-639.89C46.81,-636.58 0,-617.45 0,-585.6 0,-585.6 0,-585.6 0,-89.8 0,-62.49 67.06,-43.44 123.72,-32.22"/>
<polygon fill="magenta" stroke="magenta" points="124.63,-35.61 133.79,-30.28 123.31,-28.73 124.63,-35.61"/>
</g>
<!-- PROOF_output_0&#45;&gt;PROOF_UNCONTESTED -->
<g id="edge12" class="edge">
<title>PROOF_output_0&#45;&gt;PROOF_UNCONTESTED</title>
<path fill="none" stroke="green" stroke-dasharray="5,2" d="M427.5,-583.38C417.99,-582.01 365.33,-574.22 323,-564.8 283.54,-556.02 239.95,-544.46 204.48,-534.56"/>
<polygon fill="green" stroke="green" points="205.28,-531.15 194.7,-531.82 203.39,-537.89 205.28,-531.15"/>
<text text-anchor="middle" x="361.5" y="-553.6" font-family="Times,serif" font-size="14.00">180 blocks</text>
</g>
<!-- PROOF_output_0&#45;&gt;CHALLENGE_UNCONTESTED -->
<g id="edge13" class="edge">
<title>PROOF_output_0&#45;&gt;CHALLENGE_UNCONTESTED</title>
<path fill="none" stroke="blue" stroke-dasharray="5,2" d="M427.89,-583.09C424.08,-581.26 411.54,-574.66 407,-564.8 403.71,-557.67 403.61,-549.45 404.9,-541.71"/>
<polygon fill="blue" stroke="blue" points="408.31,-542.5 407.25,-531.96 401.51,-540.87 408.31,-542.5"/>
<text text-anchor="middle" x="445.5" y="-553.6" font-family="Times,serif" font-size="14.00">360 blocks</text>
</g>
<!-- PROOF_output_0&#45;&gt;STATE_00 -->
<g id="edge14" class="edge">
<title>PROOF_output_0&#45;&gt;STATE_00</title>
<path fill="none" stroke="green" d="M430.47,-583.37C437.14,-582.26 465,-577.05 484,-564.8 494.43,-558.07 504.18,-548.6 512.13,-539.64"/>
<polygon fill="green" stroke="green" points="514.82,-541.88 518.62,-531.98 509.48,-537.35 514.82,-541.88"/>
</g>
<!-- PROOF_output_2&#45;&gt;CHALLENGE -->
<g id="edge17" class="edge">
<title>PROOF_output_2&#45;&gt;CHALLENGE</title>
<path fill="none" stroke="gray" d="M273.01,-582.61C273.08,-578.03 273.36,-558.32 273.61,-541.16"/>
<polygon fill="gray" stroke="gray" points="277.11,-541.01 273.75,-530.96 270.11,-540.91 277.11,-541.01"/>
</g>
<!-- PROOF_output_2&#45;&gt;PROOF_UNCONTESTED -->
<g id="edge18" class="edge">
<title>PROOF_output_2&#45;&gt;PROOF_UNCONTESTED</title>
<path fill="none" stroke="gray" d="M271.43,-582.82C262.29,-578.26 215.14,-554.75 178.37,-536.42"/>
<polygon fill="gray" stroke="gray" points="179.79,-533.22 169.28,-531.89 176.67,-539.48 179.79,-533.22"/>
</g>
<!-- STATE_00_output_0&#45;&gt;STATE_UNCONTESTED_00 -->
<g id="edge20" class="edge">
<title>STATE_00_output_0&#45;&gt;STATE_UNCONTESTED_00</title>
<path fill="none" stroke="green" stroke-dasharray="5,2" d="M500.6,-453.66C493.19,-451.87 457.74,-443.23 429,-435.2 390.29,-424.38 347.49,-411.57 311.96,-400.69"/>
<polygon fill="green" stroke="green" points="312.73,-397.27 302.14,-397.68 310.67,-403.96 312.73,-397.27"/>
<text text-anchor="middle" x="467.5" y="-424" font-family="Times,serif" font-size="14.00">180 blocks</text>
</g>
<!-- STATE_00_output_0&#45;&gt;Dissection -->
<g id="edge21" class="edge">
<title>STATE_00_output_0&#45;&gt;Dissection</title>
<path fill="none" stroke="blue" d="M502.34,-453.13C504,-448.84 511.57,-429.35 518.64,-411.12"/>
<polygon fill="blue" stroke="blue" points="521.9,-412.39 522.26,-401.8 515.38,-409.85 521.9,-412.39"/>
</g>
<!-- SELECT_05_output_0&#45;&gt;SELECT_UNCONTESTED_05 -->
<g id="edge24" class="edge">
<title>SELECT_05_output_0&#45;&gt;SELECT_UNCONTESTED_05</title>
<path fill="none" stroke="blue" stroke-dasharray="5,2" d="M428.45,-234.31C417.8,-233.69 355.33,-229.43 344,-215.6 338.84,-209.3 336.81,-201.21 336.46,-193.07"/>
<polygon fill="blue" stroke="blue" points="339.97,-192.97 336.81,-182.86 332.97,-192.74 339.97,-192.97"/>
<text text-anchor="middle" x="382.5" y="-204.4" font-family="Times,serif" font-size="14.00">180 blocks</text>
</g>
<!-- SELECT_05_output_0&#45;&gt;ARGUMENT -->
<g id="edge25" class="edge">
<title>SELECT_05_output_0&#45;&gt;ARGUMENT</title>
<path fill="none" stroke="green" d="M430.31,-233.44C431.75,-229.1 438.18,-211.1 449,-200.6 457.66,-192.19 468.28,-185 478.99,-179.03"/>
<polygon fill="green" stroke="green" points="480.75,-182.06 487.96,-174.3 477.48,-175.86 480.75,-182.06"/>
</g>
<!-- ARGUMENT_output_0&#45;&gt;PROOF_REFUTED -->
<g id="edge35" class="edge">
<title>ARGUMENT_output_0&#45;&gt;PROOF_REFUTED</title>
<path fill="none" stroke="blue" d="M502.34,-89.02C504.13,-84.85 512.74,-64.8 520.23,-47.38"/>
<polygon fill="blue" stroke="blue" points="523.49,-48.66 524.23,-38.09 517.06,-45.89 523.49,-48.66"/>
</g>
<!-- ARGUMENT_output_0&#45;&gt;ARGUMENT_UNCONTESTED -->
<g id="edge36" class="edge">
<title>ARGUMENT_output_0&#45;&gt;ARGUMENT_UNCONTESTED</title>
<path fill="none" stroke="green" stroke-dasharray="5,2" d="M500.66,-89.49C486.42,-86.19 362.03,-57.34 278.05,-37.87"/>
<polygon fill="green" stroke="green" points="278.81,-34.45 268.28,-35.6 277.23,-41.27 278.81,-34.45"/>
<text text-anchor="middle" x="451.5" y="-59.8" font-family="Times,serif" font-size="14.00">180 blocks</text>
</g>
</g>
</svg>
