<?xml version="1.0" encoding="UTF-8" standalone="no"?>
<!DOCTYPE svg PUBLIC "-//W3C//DTD SVG 1.1//EN"
 "http://www.w3.org/Graphics/SVG/1.1/DTD/svg11.dtd">
<!-- Generated by graphviz version 2.42.4 (0)
 -->
<!-- Title: BitSnark Pages: 1 -->
<svg width="614pt" height="758pt"
 viewBox="0.00 0.00 614.00 758.14" xmlns="http://www.w3.org/2000/svg" xmlns:xlink="http://www.w3.org/1999/xlink">
<g id="graph0" class="graph" transform="scale(1 1) rotate(0) translate(4 754.14)">
<title>BitSnark</title>
<polygon fill="white" stroke="transparent" points="-4,4 -4,-754.14 610,-754.14 610,4 -4,4"/>
<!-- prover_stake -->
<g id="node1" class="node">
<title>prover_stake</title>
<ellipse fill="none" stroke="green" cx="165" cy="-723.27" rx="45.01" ry="26.74"/>
<text text-anchor="middle" x="165" y="-727.07" font-family="Times,serif" font-size="14.00">prover</text>
<text text-anchor="middle" x="165" y="-712.07" font-family="Times,serif" font-size="14.00">stake</text>
</g>
<!-- proof -->
<g id="node2" class="node">
<title>proof</title>
<polygon fill="none" stroke="green" points="192,-659.4 138,-659.4 138,-623.4 192,-623.4 192,-659.4"/>
<text text-anchor="middle" x="165" y="-637.7" font-family="Times,serif" font-size="14.00">proof</text>
</g>
<!-- prover_stake&#45;&gt;proof -->
<g id="edge6" class="edge">
<title>prover_stake&#45;&gt;proof</title>
<path fill="none" stroke="green" d="M165,-696.12C165,-687.67 165,-678.29 165,-669.76"/>
<polygon fill="green" stroke="green" points="168.5,-669.55 165,-659.55 161.5,-669.55 168.5,-669.55"/>
</g>
<!-- state_00 -->
<g id="node7" class="node">
<title>state_00</title>
<polygon fill="none" stroke="green" points="192,-531.8 138,-531.8 138,-493.8 192,-493.8 192,-531.8"/>
<text text-anchor="middle" x="165" y="-516.6" font-family="Times,serif" font-size="14.00">state</text>
<text text-anchor="middle" x="165" y="-501.6" font-family="Times,serif" font-size="14.00">00</text>
</g>
<!-- proof&#45;&gt;state_00 -->
<!-- proof&#45;&gt;state_00 -->
<g id="edge11" class="edge">
<title>proof&#45;&gt;state_00</title>
<path fill="none" stroke="gray" d="M150.63,-623.33C143.86,-602.42 142.93,-566.72 147.86,-541.78"/>
<polygon fill="gray" stroke="gray" points="151.32,-542.38 150.33,-531.83 144.53,-540.69 151.32,-542.38"/>
</g>
<!-- proof&#45;&gt;state_00 -->
<g id="edge12" class="edge">
<title>proof&#45;&gt;state_00</title>
<path fill="none" stroke="gray" d="M160.21,-623.33C157.96,-602.51 157.65,-567.04 159.27,-542.12"/>
<polygon fill="gray" stroke="gray" points="162.78,-542.08 160.11,-531.83 155.8,-541.51 162.78,-542.08"/>
</g>
<!-- proof&#45;&gt;state_00 -->
<g id="edge13" class="edge">
<title>proof&#45;&gt;state_00</title>
<path fill="none" stroke="gray" d="M169.79,-623.33C172.04,-602.51 172.35,-567.04 170.73,-542.12"/>
<polygon fill="gray" stroke="gray" points="174.2,-541.51 169.89,-531.83 167.22,-542.08 174.2,-541.51"/>
</g>
<!-- proof&#45;&gt;state_00 -->
<g id="edge14" class="edge">
<title>proof&#45;&gt;state_00</title>
<path fill="none" stroke="gray" d="M179.37,-623.33C186.14,-602.42 187.07,-566.72 182.14,-541.78"/>
<polygon fill="gray" stroke="gray" points="185.47,-540.69 179.67,-531.83 178.68,-542.38 185.47,-540.69"/>
</g>
<!-- proof&#45;&gt;state_00 -->
<g id="edge15" class="edge">
<title>proof&#45;&gt;state_00</title>
<path fill="none" stroke="gray" d="M188.94,-623.33C200.34,-602.23 201.8,-566.08 193.34,-541.12"/>
<polygon fill="gray" stroke="gray" points="196.54,-539.7 189.45,-531.83 190.08,-542.4 196.54,-539.7"/>
</g>
<!-- proof_output_0 -->
<g id="node15" class="node">
<title>proof_output_0</title>
<ellipse fill="black" stroke="black" cx="254" cy="-584.6" rx="1.8" ry="1.8"/>
</g>
<!-- proof&#45;&gt;proof_output_0 -->
<g id="edge7" class="edge">
<title>proof&#45;&gt;proof_output_0</title>
<path fill="none" stroke="black" d="M192.19,-624.64C202.25,-618.71 213.7,-611.85 224,-605.4 235.42,-598.25 248.93,-589.07 252.87,-586.38"/>
</g>
<!-- proof_output_6 -->
<g id="node16" class="node">
<title>proof_output_6</title>
<ellipse fill="black" stroke="black" cx="360" cy="-584.6" rx="1.8" ry="1.8"/>
</g>
<!-- proof&#45;&gt;proof_output_6 -->
<g id="edge16" class="edge">
<title>proof&#45;&gt;proof_output_6</title>
<path fill="none" stroke="gray" d="M192.11,-632.78C242.35,-618.66 345.95,-589.55 358.7,-585.96"/>
</g>
<!-- challenge -->
<g id="node3" class="node">
<title>challenge</title>
<polygon fill="none" stroke="blue" points="411.5,-530.8 332.5,-530.8 332.5,-494.8 417.5,-494.8 417.5,-524.8 411.5,-530.8"/>
<polyline fill="none" stroke="blue" points="411.5,-530.8 411.5,-524.8 "/>
<polyline fill="none" stroke="blue" points="417.5,-524.8 411.5,-524.8 "/>
<text text-anchor="middle" x="375" y="-509.1" font-family="Times,serif" font-size="14.00">challenge</text>
</g>
<!-- proof_uncontested -->
<g id="node4" class="node">
<title>proof_uncontested</title>
<polygon fill="none" stroke="green" points="534,-531.8 436,-531.8 436,-493.8 540,-493.8 540,-525.8 534,-531.8"/>
<polyline fill="none" stroke="green" points="534,-531.8 534,-525.8 "/>
<polyline fill="none" stroke="green" points="540,-525.8 534,-525.8 "/>
<text text-anchor="middle" x="488" y="-516.6" font-family="Times,serif" font-size="14.00">proof</text>
<text text-anchor="middle" x="488" y="-501.6" font-family="Times,serif" font-size="14.00">uncontested</text>
</g>
<!-- challenge_uncontested -->
<g id="node5" class="node">
<title>challenge_uncontested</title>
<polygon fill="none" stroke="blue" points="308,-531.8 210,-531.8 210,-493.8 314,-493.8 314,-525.8 308,-531.8"/>
<polyline fill="none" stroke="blue" points="308,-531.8 308,-525.8 "/>
<polyline fill="none" stroke="blue" points="314,-525.8 308,-525.8 "/>
<text text-anchor="middle" x="262" y="-516.6" font-family="Times,serif" font-size="14.00">challenge</text>
<text text-anchor="middle" x="262" y="-501.6" font-family="Times,serif" font-size="14.00">uncontested</text>
</g>
<!-- locked_funds -->
<g id="node6" class="node">
<title>locked_funds</title>
<ellipse fill="none" stroke="magenta" cx="549" cy="-723.27" rx="43.68" ry="26.74"/>
<text text-anchor="middle" x="549" y="-727.07" font-family="Times,serif" font-size="14.00">locked</text>
<text text-anchor="middle" x="549" y="-712.07" font-family="Times,serif" font-size="14.00">funds</text>
</g>
<!-- locked_funds&#45;&gt;proof_uncontested -->
<!-- locked_funds_output_0 -->
<g id="node17" class="node">
<title>locked_funds_output_0</title>
<ellipse fill="black" stroke="black" cx="549" cy="-641.4" rx="1.8" ry="1.8"/>
</g>
<!-- locked_funds&#45;&gt;locked_funds_output_0 -->
<g id="edge19" class="edge">
<title>locked_funds&#45;&gt;locked_funds_output_0</title>
<path fill="none" stroke="magenta" d="M549,-696.12C549,-675.74 549,-649.89 549,-643.75"/>
</g>
<!-- Bisection -->
<g id="node9" class="node">
<title>Bisection</title>
<polygon fill="none" stroke="black" points="223.29,-368.24 223.29,-383.16 189.15,-393.7 140.85,-393.7 106.71,-383.16 106.71,-368.24 140.85,-357.7 189.15,-357.7 223.29,-368.24"/>
<polygon fill="none" stroke="black" points="227.29,-365.29 227.29,-386.11 189.75,-397.7 140.25,-397.7 102.71,-386.11 102.71,-365.29 140.25,-353.7 189.75,-353.7 227.29,-365.29"/>
<polygon fill="none" stroke="black" points="231.28,-362.34 231.28,-389.06 190.35,-401.7 139.65,-401.7 98.72,-389.06 98.72,-362.34 139.65,-349.7 190.35,-349.7 231.28,-362.34"/>
<text text-anchor="middle" x="165" y="-372" font-family="Times,serif" font-size="14.00">Bisection</text>
</g>
<!-- state_00&#45;&gt;Bisection -->
<!-- state_00_output_0 -->
<g id="node18" class="node">
<title>state_00_output_0</title>
<ellipse fill="black" stroke="black" cx="195" cy="-455" rx="1.8" ry="1.8"/>
</g>
<!-- state_00&#45;&gt;state_00_output_0 -->
<g id="edge23" class="edge">
<title>state_00&#45;&gt;state_00_output_0</title>
<path fill="none" stroke="black" d="M174.82,-493.53C182.48,-479.29 192.18,-461.24 194.49,-456.95"/>
</g>
<!-- state_uncontested_00 -->
<g id="node8" class="node">
<title>state_uncontested_00</title>
<polygon fill="none" stroke="green" points="490,-402.2 392,-402.2 392,-349.2 496,-349.2 496,-396.2 490,-402.2"/>
<polyline fill="none" stroke="green" points="490,-402.2 490,-396.2 "/>
<polyline fill="none" stroke="green" points="496,-396.2 490,-396.2 "/>
<text text-anchor="middle" x="444" y="-387" font-family="Times,serif" font-size="14.00">state</text>
<text text-anchor="middle" x="444" y="-372" font-family="Times,serif" font-size="14.00">uncontested</text>
<text text-anchor="middle" x="444" y="-357" font-family="Times,serif" font-size="14.00">00</text>
</g>
<!-- select_18 -->
<g id="node10" class="node">
<title>select_18</title>
<polygon fill="none" stroke="blue" points="194.5,-312.2 135.5,-312.2 135.5,-274.2 194.5,-274.2 194.5,-312.2"/>
<text text-anchor="middle" x="165" y="-297" font-family="Times,serif" font-size="14.00">select</text>
<text text-anchor="middle" x="165" y="-282" font-family="Times,serif" font-size="14.00">18</text>
</g>
<!-- Bisection&#45;&gt;select_18 -->
<!-- Bisection&#45;&gt;select_18 -->
<g id="edge26" class="edge">
<title>Bisection&#45;&gt;select_18</title>
<path fill="none" stroke="green" d="M171.3,-349.67C171.83,-341.07 171.89,-331.39 171.48,-322.55"/>
<polygon fill="green" stroke="green" points="174.95,-322.03 170.75,-312.31 167.97,-322.54 174.95,-322.03"/>
</g>
<!-- argument -->
<g id="node12" class="node">
<title>argument</title>
<polygon fill="none" stroke="green" points="208,-174.1 122,-174.1 122,-138.1 208,-138.1 208,-174.1"/>
<text text-anchor="middle" x="165" y="-152.4" font-family="Times,serif" font-size="14.00">argument</text>
</g>
<!-- select_18&#45;&gt;argument -->
<!-- select_18_output_0 -->
<g id="node19" class="node">
<title>select_18_output_0</title>
<ellipse fill="black" stroke="black" cx="135" cy="-235.4" rx="1.8" ry="1.8"/>
</g>
<!-- select_18&#45;&gt;select_18_output_0 -->
<g id="edge27" class="edge">
<title>select_18&#45;&gt;select_18_output_0</title>
<path fill="none" stroke="black" d="M155.18,-273.93C147.52,-259.69 137.82,-241.64 135.51,-237.35"/>
</g>
<!-- select_uncontested_18 -->
<g id="node11" class="node">
<title>select_uncontested_18</title>
<polygon fill="none" stroke="blue" points="98,-182.6 0,-182.6 0,-129.6 104,-129.6 104,-176.6 98,-182.6"/>
<polyline fill="none" stroke="blue" points="98,-182.6 98,-176.6 "/>
<polyline fill="none" stroke="blue" points="104,-176.6 98,-176.6 "/>
<text text-anchor="middle" x="52" y="-167.4" font-family="Times,serif" font-size="14.00">select</text>
<text text-anchor="middle" x="52" y="-152.4" font-family="Times,serif" font-size="14.00">uncontested</text>
<text text-anchor="middle" x="52" y="-137.4" font-family="Times,serif" font-size="14.00">18</text>
</g>
<!-- proof_refuted -->
<g id="node13" class="node">
<title>proof_refuted</title>
<polygon fill="none" stroke="blue" points="193.5,-38 130.5,-38 130.5,0 199.5,0 199.5,-32 193.5,-38"/>
<polyline fill="none" stroke="blue" points="193.5,-38 193.5,-32 "/>
<polyline fill="none" stroke="blue" points="199.5,-32 193.5,-32 "/>
<text text-anchor="middle" x="165" y="-22.8" font-family="Times,serif" font-size="14.00">proof</text>
<text text-anchor="middle" x="165" y="-7.8" font-family="Times,serif" font-size="14.00">refuted</text>
</g>
<!-- argument&#45;&gt;proof_refuted -->
<!-- argument_output_0 -->
<g id="node20" class="node">
<title>argument_output_0</title>
<ellipse fill="black" stroke="black" cx="195" cy="-90.8" rx="1.8" ry="1.8"/>
</g>
<!-- argument&#45;&gt;argument_output_0 -->
<g id="edge30" class="edge">
<title>argument&#45;&gt;argument_output_0</title>
<path fill="none" stroke="black" d="M173.2,-137.8C180.97,-121.4 191.83,-98.48 194.43,-93.01"/>
</g>
<!-- argument_uncontested -->
<g id="node14" class="node">
<title>argument_uncontested</title>
<polygon fill="none" stroke="green" points="458,-38 360,-38 360,0 464,0 464,-32 458,-38"/>
<polyline fill="none" stroke="green" points="458,-38 458,-32 "/>
<polyline fill="none" stroke="green" points="464,-32 458,-32 "/>
<text text-anchor="middle" x="412" y="-22.8" font-family="Times,serif" font-size="14.00">argument</text>
<text text-anchor="middle" x="412" y="-7.8" font-family="Times,serif" font-size="14.00">uncontested</text>
</g>
<!-- proof_output_0&#45;&gt;proof_uncontested -->
<g id="edge8" class="edge">
<title>proof_output_0&#45;&gt;proof_uncontested</title>
<path fill="none" stroke="green" stroke-dasharray="5,2" d="M255.44,-583.28C263.07,-581.55 299.57,-573.2 329,-564.8 361.31,-555.58 396.95,-544.25 426.29,-534.62"/>
<polygon fill="green" stroke="green" points="427.58,-537.88 435.98,-531.42 425.39,-531.23 427.58,-537.88"/>
<text text-anchor="middle" x="406.5" y="-553.6" font-family="Times,serif" font-size="14.00">6 blocks</text>
</g>
<!-- proof_output_0&#45;&gt;challenge_uncontested -->
<g id="edge9" class="edge">
<title>proof_output_0&#45;&gt;challenge_uncontested</title>
<path fill="none" stroke="blue" stroke-dasharray="5,2" d="M254.11,-582.61C254.63,-578.11 256.82,-559.02 258.76,-542.08"/>
<polygon fill="blue" stroke="blue" points="262.26,-542.3 259.92,-531.97 255.3,-541.5 262.26,-542.3"/>
<text text-anchor="middle" x="291" y="-553.6" font-family="Times,serif" font-size="14.00">18 blocks</text>
</g>
<!-- proof_output_0&#45;&gt;state_00 -->
<g id="edge10" class="edge">
<title>proof_output_0&#45;&gt;state_00</title>
<path fill="none" stroke="green" d="M253.25,-582.69C249.82,-578.58 235.23,-561.41 221,-549.8 214.7,-544.66 207.64,-539.63 200.71,-535.04"/>
<polygon fill="green" stroke="green" points="202.37,-531.94 192.06,-529.47 198.58,-537.83 202.37,-531.94"/>
</g>
<!-- proof_output_6&#45;&gt;challenge -->
<g id="edge17" class="edge">
<title>proof_output_6&#45;&gt;challenge</title>
<path fill="none" stroke="gray" d="M360.21,-582.61C361.2,-578.03 365.43,-558.32 369.12,-541.16"/>
<polygon fill="gray" stroke="gray" points="372.63,-541.47 371.31,-530.96 365.79,-540 372.63,-541.47"/>
</g>
<!-- proof_output_6&#45;&gt;proof_uncontested -->
<g id="edge18" class="edge">
<title>proof_output_6&#45;&gt;proof_uncontested</title>
<path fill="none" stroke="gray" d="M361.71,-583.7C371.51,-584.22 421.4,-585.7 453,-564.8 462.07,-558.8 469.44,-549.57 475.04,-540.6"/>
<polygon fill="gray" stroke="gray" points="478.11,-542.27 480.04,-531.85 472.04,-538.79 478.11,-542.27"/>
</g>
<!-- locked_funds_output_0&#45;&gt;proof_uncontested -->
<g id="edge20" class="edge">
<title>locked_funds_output_0&#45;&gt;proof_uncontested</title>
<path fill="none" stroke="magenta" d="M548.58,-639.5C545.36,-632.57 524,-586.74 506,-549.8 504.64,-547 503.2,-544.09 501.76,-541.18"/>
<polygon fill="magenta" stroke="magenta" points="504.82,-539.47 497.23,-532.08 498.56,-542.59 504.82,-539.47"/>
</g>
<!-- locked_funds_output_0&#45;&gt;state_uncontested_00 -->
<g id="edge21" class="edge">
<title>locked_funds_output_0&#45;&gt;state_uncontested_00</title>
<path fill="none" stroke="magenta" d="M549.47,-639.66C552.4,-634.99 568,-608.96 568,-585.6 568,-585.6 568,-585.6 568,-454 568,-421.47 536.89,-402.13 505.83,-390.94"/>
<polygon fill="magenta" stroke="magenta" points="506.82,-387.58 496.23,-387.72 504.6,-394.21 506.82,-387.58"/>
</g>
<!-- locked_funds_output_0&#45;&gt;argument_uncontested -->
<g id="edge22" class="edge">
<title>locked_funds_output_0&#45;&gt;argument_uncontested</title>
<path fill="none" stroke="magenta" d="M550.41,-639.89C559.19,-636.58 606,-617.45 606,-585.6 606,-585.6 606,-585.6 606,-89.8 606,-61.31 530.98,-41.26 474.25,-30.17"/>
<polygon fill="magenta" stroke="magenta" points="474.72,-26.7 464.24,-28.27 473.41,-33.58 474.72,-26.7"/>
</g>
<!-- state_00_output_0&#45;&gt;state_uncontested_00 -->
<g id="edge24" class="edge">
<title>state_00_output_0&#45;&gt;state_uncontested_00</title>
<path fill="none" stroke="green" stroke-dasharray="5,2" d="M196.59,-453.51C210.55,-449.17 313.27,-417.28 381.9,-395.98"/>
<polygon fill="green" stroke="green" points="383.25,-399.23 391.76,-392.92 381.17,-392.54 383.25,-399.23"/>
<text text-anchor="middle" x="326.5" y="-424" font-family="Times,serif" font-size="14.00">6 blocks</text>
</g>
<!-- state_00_output_0&#45;&gt;Bisection -->
<g id="edge25" class="edge">
<title>state_00_output_0&#45;&gt;Bisection</title>
<path fill="none" stroke="blue" d="M194.66,-453.13C193,-448.84 185.43,-429.35 178.36,-411.12"/>
<polygon fill="blue" stroke="blue" points="181.62,-409.85 174.74,-401.8 175.1,-412.39 181.62,-409.85"/>
</g>
<!-- select_18_output_0&#45;&gt;select_uncontested_18 -->
<g id="edge28" class="edge">
<title>select_18_output_0&#45;&gt;select_uncontested_18</title>
<path fill="none" stroke="blue" stroke-dasharray="5,2" d="M133.46,-234.28C126.51,-233.67 97.68,-230.31 81,-215.6 73.76,-209.21 68.12,-200.6 63.83,-191.95"/>
<polygon fill="blue" stroke="blue" points="66.95,-190.36 59.69,-182.65 60.56,-193.21 66.95,-190.36"/>
<text text-anchor="middle" x="110.5" y="-204.4" font-family="Times,serif" font-size="14.00">6 blocks</text>
</g>
<!-- select_18_output_0&#45;&gt;argument -->
<g id="edge29" class="edge">
<title>select_18_output_0&#45;&gt;argument</title>
<path fill="none" stroke="green" d="M135.34,-233.53C137.25,-228.6 146.95,-203.62 154.74,-183.54"/>
<polygon fill="green" stroke="green" points="158.01,-184.77 158.37,-174.18 151.49,-182.24 158.01,-184.77"/>
</g>
<!-- argument_output_0&#45;&gt;proof_refuted -->
<g id="edge31" class="edge">
<title>argument_output_0&#45;&gt;proof_refuted</title>
<path fill="none" stroke="blue" d="M194.66,-89.02C192.87,-84.85 184.26,-64.8 176.77,-47.38"/>
<polygon fill="blue" stroke="blue" points="179.94,-45.89 172.77,-38.09 173.51,-48.66 179.94,-45.89"/>
</g>
<!-- argument_output_0&#45;&gt;argument_uncontested -->
<g id="edge32" class="edge">
<title>argument_output_0&#45;&gt;argument_uncontested</title>
<path fill="none" stroke="green" stroke-dasharray="5,2" d="M196.39,-89.35C208.03,-85.61 290.57,-59.06 350.06,-39.92"/>
<polygon fill="green" stroke="green" points="351.32,-43.19 359.77,-36.8 349.18,-36.53 351.32,-43.19"/>
<text text-anchor="middle" x="325.5" y="-59.8" font-family="Times,serif" font-size="14.00">6 blocks</text>
</g>
</g>
</svg>
